<?xml version="1.0" standalone="no"?>
<!DOCTYPE svg PUBLIC "-//W3C//DTD SVG 1.1//EN" "http://www.w3.org/Graphics/SVG/1.1/DTD/svg11.dtd" >
<svg xmlns="http://www.w3.org/2000/svg">
<metadata></metadata>
<defs>
<font id="nerislight" horiz-adv-x="1234" >
<font-face units-per-em="2048" ascent="1546" descent="-502" />
<missing-glyph horiz-adv-x="440" />
<glyph horiz-adv-x="0" />
<glyph unicode="&#xd;" horiz-adv-x="806" />
<glyph unicode=" "  horiz-adv-x="440" />
<glyph unicode="&#x09;" horiz-adv-x="440" />
<glyph unicode="&#xa0;" horiz-adv-x="440" />
<glyph unicode="!" horiz-adv-x="485" d="M154 82q0 48 25.5 75t72.5 27t73.5 -27.5t26.5 -74.5t-26.5 -74.5t-73.5 -27.5t-72.5 27t-25.5 75zM174 786v607q0 18 19 18h100q18 0 18 -18v-607q0 -79 -8.5 -237.5t-9.5 -208.5q0 -18 -19 -18h-63q-18 0 -18 18q-1 53 -10 210.5t-9 235.5z" />
<glyph unicode="&#x22;" horiz-adv-x="636" d="M117 1339v91q0 18 18 18h103q18 0 18 -18v-91q0 -31 -9 -106t-11 -100q-3 -19 -21 -19h-55q-18 0 -21 16q-2 18 -12 97.5t-10 111.5zM381 1339v91q0 18 18 18h103q18 0 18 -18v-91q0 -31 -9 -106t-11 -100q-3 -19 -21 -19h-55q-18 0 -21 16q-2 18 -12 97.5t-10 111.5z " />
<glyph unicode="#" horiz-adv-x="1488" d="M109 328l14 84q3 16 18 16h213l80 555h-213q-19 0 -16 18l8 84q3 19 20 19h218l41 289q3 16 18 16h88q21 0 18 -20l-41 -285h447l41 289q3 16 18 16h90q9 0 14.5 -5.5t4.5 -14.5l-41 -285h213q19 0 16 -19l-8 -84q-3 -18 -20 -18h-217l-80 -555h217q18 0 18 -20l-14 -84 q-3 -17 -19 -17h-219l-41 -291q-3 -16 -18 -16h-90q-9 0 -14.5 5.5t-4.5 14.5l41 287h-444l-41 -291q-3 -16 -18 -16h-91q-21 0 -18 20l41 287h-211q-18 0 -18 21zM481 428h445l80 555h-447z" />
<glyph unicode="$" horiz-adv-x="1218" d="M127 102l31 84q6 19 22 13l82 -31q139 -51 283 -59v563l-92 35q-166 62 -236 148t-70 218q0 157 107 251.5t291 105.5v167q0 19 18 19h99q18 0 18 -19v-170q116 -13 221 -47l103 -32q18 -6 12 -25l-29 -84q-6 -16 -22 -10l-99 31q-87 29 -186 38v-538l108 -41 q155 -58 232.5 -139.5t77.5 -214.5q0 -162 -114.5 -262.5t-303.5 -118.5v-177q0 -18 -18 -18h-99q-18 0 -18 18v175q-167 8 -326 67l-82 31q-16 6 -10 22zM285 1073q0 -79 48.5 -140.5t172.5 -107.5l39 -14v489q-120 -11 -190 -71t-70 -156zM680 111q124 18 201 84.5 t77 169.5q0 150 -221 235l-57 21v-510z" />
<glyph unicode="%" horiz-adv-x="1546" d="M123 1110q0 142 79 221.5t216 79.5q138 0 216.5 -79.5t78.5 -221.5q0 -141 -78.5 -222t-216.5 -81q-137 0 -216 81t-79 222zM236 7q-3 7 4 16l940 1357q10 13 22 13h92q11 0 14.5 -7t-3.5 -16l-940 -1358q-9 -12 -23 -12h-92q-11 0 -14 7zM236 1110q0 -91 48 -143 t134 -52t134 52t48 143q0 92 -48 143.5t-134 51.5t-134 -51.5t-48 -143.5zM831 281q0 142 79 221.5t218 79.5q137 0 215 -79.5t78 -221.5q0 -141 -78 -221t-215 -80q-138 0 -217.5 80t-79.5 221zM946 281q0 -90 48 -141.5t134 -51.5q84 0 132.5 51.5t48.5 141.5 q0 92 -48 143t-133 51q-86 0 -134 -51t-48 -143z" />
<glyph unicode="&#x26;" horiz-adv-x="1398" d="M104 279q0 89 36 159.5t132 155.5l156 147q-80 88 -113.5 165.5t-33.5 168.5q0 161 111.5 259t291.5 98q78 0 129.5 -10t136.5 -38l80 -26q18 -6 12 -25l-28 -82q-7 -17 -23 -10l-80 25q-67 22 -112.5 30.5t-114.5 8.5q-123 0 -197.5 -62.5t-74.5 -167.5q0 -71 26.5 -129 t98.5 -135l366 -389l27 22q47 46 66.5 67t42 51.5t29.5 58t7 63.5v61h-131q-18 0 -18 19v84q0 18 18 18h242q18 0 18 -18v-164q0 -100 -41 -166.5t-153 -171.5l-19 -16l289 -307q8 -9 5 -16t-15 -7h-123q-15 0 -25 10l-223 236l-137 -123q-85 -81 -162.5 -112t-177.5 -31 q-148 0 -233 80.5t-85 218.5zM238 279q0 -80 48.5 -126.5t135.5 -46.5q79 0 137 24.5t125 90.5l127 117l-299 313l-168 -155q-63 -61 -84.5 -109t-21.5 -108z" />
<glyph unicode="'" horiz-adv-x="372" d="M117 1339v91q0 18 18 18h103q18 0 18 -18v-91q0 -31 -9 -106t-11 -100q-3 -19 -21 -19h-55q-18 0 -21 16q-2 18 -12 97.5t-10 111.5z" />
<glyph unicode="(" horiz-adv-x="688" d="M215 659q0 448 182 848q6 15 21 15h92q9 0 13 -6t1 -15q-86 -207 -134 -407t-48 -435t48 -434.5t134 -406.5q3 -9 -1 -15t-13 -6h-92q-15 0 -21 15q-182 403 -182 847z" />
<glyph unicode=")" horiz-adv-x="688" d="M164 -182q86 207 134 406.5t48 434.5t-48 435t-134 407q-3 9 1 15t13 6h92q15 0 21 -15q182 -400 182 -848q0 -444 -182 -847q-6 -15 -21 -15h-92q-9 0 -13 6t-1 15z" />
<glyph unicode="*" horiz-adv-x="802" d="M94 1122v66q0 18 19 18h112q5 0 86 -6q16 -4 19 0q0 4 -2 8q-36 40 -49 62l-86 155q-6 9 -2.5 16t14.5 7h76q13 0 22 -12l62 -111q20 -38 28 -78q3 -9 9 -8t8 10q10 46 26 72l64 115q9 12 22 12h76q10 0 13.5 -7t-1.5 -16l-88 -155q-16 -31 -47 -62q-4 -6 -2 -9t8 -1 q58 8 82 8h127q19 0 19 -18v-66q0 -18 -19 -18h-127q-11 0 -84 10q-6 2 -8 -2t2 -10q43 -48 51 -64l86 -153q5 -9 1.5 -16t-13.5 -7h-76q-13 0 -22 12l-62 111q-14 22 -26 66q-1 2 -3.5 9.5t-5.5 10.5q-7 3 -10 -10q-17 -58 -28 -76l-62 -111q-9 -12 -22 -12h-76 q-10 0 -13.5 7t1.5 16l83 147q5 12 13 23.5t22 28t17 20.5q4 6 1.5 10t-7.5 2q-62 -12 -97 -12h-112q-19 0 -19 18z" />
<glyph unicode="+" horiz-adv-x="1298" d="M166 494v86q0 18 18 18h402v438q0 19 18 19h90q19 0 19 -19v-438h401q19 0 19 -18v-86q0 -19 -19 -19h-401v-438q0 -19 -19 -19h-90q-18 0 -18 19v438h-402q-18 0 -18 19z" />
<glyph unicode="," horiz-adv-x="450" d="M111 -240h100l72 146q45 87 45 166q0 52 -28 83t-73 31q-48 0 -76 -27.5t-28 -76.5q0 -35 17.5 -60.5t43.5 -33.5q20 -6 23.5 -16t-8.5 -33z" />
<glyph unicode="-" horiz-adv-x="901" d="M166 496v84q0 18 18 18h533q18 0 18 -18v-84q0 -19 -18 -19h-533q-18 0 -18 19z" />
<glyph unicode="." horiz-adv-x="464" d="M133 82q0 48 25.5 75t72.5 27t74 -27.5t27 -74.5t-27 -74.5t-74 -27.5t-72.5 27t-25.5 75z" />
<glyph unicode="/" horiz-adv-x="964" d="M78 -182l696 1689q6 15 23 15h96q9 0 13 -6t1 -15l-696 -1689q-6 -15 -23 -15h-96q-9 0 -13 6t-1 15z" />
<glyph unicode="0" horiz-adv-x="1288" d="M123 705q0 339 139 533t383 194q243 0 381.5 -194t138.5 -533q0 -338 -138.5 -531.5t-381.5 -193.5q-244 0 -383 193t-139 532zM258 705q0 -284 102 -443.5t285 -159.5q180 0 282.5 159.5t102.5 443.5q0 282 -102.5 442t-282.5 160q-183 0 -285 -159.5t-102 -442.5z" />
<glyph unicode="1" horiz-adv-x="653" d="M96 1245q-6 15 10 25l320 155q16 6 27 -2l10 -8q10 -10 10 -22v-1375q0 -18 -18 -18h-97q-18 0 -18 18v1092q0 14 6 113q0 20 -12 20q-5 0 -17 -6l-161 -84q-17 -7 -25 10z" />
<glyph unicode="2" horiz-adv-x="1167" d="M143 18v72q0 332 248 504l346 244q158 113 158 233q0 107 -83.5 171.5t-223.5 64.5q-155 0 -273 -43l-102 -33q-19 -6 -25 10l-26 82q-6 19 12 25l102 32q173 52 312 52q203 0 322.5 -97t119.5 -264q0 -94 -54.5 -175t-170.5 -161l-344 -246q-182 -127 -182 -368h716 q19 0 19 -19v-84q0 -18 -19 -18h-833q-19 0 -19 18z" />
<glyph unicode="3" horiz-adv-x="1150" d="M121 86l31 82q6 16 22 10l102 -31q153 -45 277 -45q153 0 245.5 78.5t92.5 208.5q0 138 -90.5 214.5t-251.5 76.5h-78q-18 0 -18 18v86q0 19 18 19h78q141 0 221 67t80 183q0 118 -80 186t-213 68q-129 0 -254 -39l-92 -27q-16 -7 -23 10l-26 82q-6 19 12 25l90 26 q156 48 293 48q196 0 311 -99.5t115 -271.5q0 -222 -192 -301q-15 -6 -15 -13.5t15 -13.5q115 -39 175 -131t60 -223q0 -184 -128 -291.5t-345 -107.5q-147 0 -313 51l-107 30q-18 6 -12 25z" />
<glyph unicode="4" horiz-adv-x="1232" d="M98 418v96q0 12 8 23q19 20 134 159l467 572q53 63 90 129q9 12 22 12h131q19 0 19 -18v-869h127q18 0 18 -18v-86q0 -19 -18 -19h-127v-381q0 -18 -19 -18h-96q-18 0 -18 18v381h-719q-19 0 -19 19zM260 529q3 -7 14 -7h562v531q0 78 10 153q2 15 -7.5 18t-19.5 -10 l-454 -552q-89 -107 -99 -115q-9 -11 -6 -18z" />
<glyph unicode="5" horiz-adv-x="1206" d="M137 88l31 82q6 16 22 10l103 -33q140 -45 274 -45q174 0 273.5 89t99.5 245q2 150 -87 234t-255 84q-96 0 -209 -17l-133 -18q-13 -3 -25 6l-18 18q-10 8 -10 23v625q0 18 18 18h746q23 0 16 -20l-25 -84q-3 -17 -20 -17h-602v-311q0 -72 -4 -105q-3 -15 2.5 -19 t21.5 -1l58 8q117 19 198 19q219 0 341 -117t122 -326q0 -215 -134.5 -335.5t-373.5 -120.5q-138 0 -313 51l-104 32q-19 6 -13 25z" />
<glyph unicode="6" horiz-adv-x="1230" d="M123 446q0 159 51.5 283.5t167.5 282.5l285 385q9 12 22 12h119q12 0 15 -7t-3 -16l-327 -438q-50 -70 -97 -125q-11 -15 -3.5 -22.5t26.5 2.5q117 74 268 74q216 0 342.5 -119.5t126.5 -329.5q0 -212 -131 -330t-367 -118q-239 0 -367 121t-128 345zM258 428 q0 -153 94.5 -239.5t265.5 -86.5q172 0 267.5 86.5t95.5 239.5q0 154 -95 240t-268 86q-171 0 -265.5 -86t-94.5 -240z" />
<glyph unicode="7" horiz-adv-x="1171" d="M100 1307v84q0 18 19 18h925q14 0 23 -12l8 -17q6 -13 -2 -24q-33 -54 -104 -203l-504 -1139q-6 -14 -21 -14h-104q-11 0 -14.5 6t0.5 17l499 1124q24 56 66 115q8 15 3 20.5t-24 5.5h-751q-19 0 -19 19z" />
<glyph unicode="8" horiz-adv-x="1253" d="M125 375q0 123 72 219t194 137q11 3 15 8.5t0 11t-15 9.5q-112 37 -167.5 116t-55.5 187q0 170 122.5 269.5t336.5 99.5q213 0 334.5 -99.5t121.5 -269.5q0 -108 -55 -187t-168 -116q-11 -4 -15 -9.5t0 -11t15 -8.5q122 -41 195 -137.5t73 -218.5q0 -184 -133.5 -289.5 t-367.5 -105.5t-368 106t-134 289zM262 383q0 -131 98 -206t267 -75q171 0 268.5 74.5t97.5 206.5q0 135 -104 216t-262 81t-261.5 -81t-103.5 -216zM303 1051q0 -115 86.5 -180.5t237.5 -65.5q147 0 234 65.5t87 180.5q0 120 -85.5 188t-235.5 68q-152 0 -238 -68t-86 -188 z" />
<glyph unicode="9" horiz-adv-x="1230" d="M113 981q0 213 130.5 331t366.5 118q239 0 367.5 -121.5t128.5 -345.5q0 -159 -51.5 -283.5t-167.5 -282.5l-285 -385q-9 -12 -22 -12h-119q-12 0 -15 7t3 16l327 438q56 78 96 125q11 15 3.5 22.5t-25.5 -2.5q-117 -74 -268 -74q-216 0 -342.5 119.5t-126.5 329.5z M248 981q0 -154 94.5 -240t267.5 -86q171 0 266 86t95 240q0 153 -95 239.5t-266 86.5q-172 0 -267 -86.5t-95 -239.5z" />
<glyph unicode=":" horiz-adv-x="444" d="M133 82q0 48 25.5 75t72.5 27t74 -27.5t27 -74.5t-27 -74.5t-74 -27.5t-72.5 27t-25.5 75zM133 899q0 48 25.5 75t72.5 27t74 -27.5t27 -74.5t-27 -74.5t-74 -27.5t-72.5 27t-25.5 75z" />
<glyph unicode=";" horiz-adv-x="464" d="M125 -231h100l72 145q45 87 45 166q0 52 -27.5 83.5t-72.5 31.5q-48 0 -76.5 -28t-28.5 -77q0 -35 18 -60.5t44 -33.5q20 -6 23 -16t-9 -33zM147 899q0 48 26 75t73 27t73.5 -27.5t26.5 -74.5t-26.5 -74.5t-73.5 -27.5t-73 27t-26 75z" />
<glyph unicode="&#x3c;" horiz-adv-x="1298" d="M166 483v74q0 15 14 21l930 430q10 4 16.5 0t6.5 -15v-98q0 -15 -15 -21l-780 -354l780 -356q15 -6 15 -21v-98q0 -11 -6.5 -14.5t-16.5 0.5l-930 432q-14 6 -14 20z" />
<glyph unicode="=" horiz-adv-x="1239" d="M166 274v84q0 19 18 19h873q18 0 18 -19v-84q0 -18 -18 -18h-873q-18 0 -18 18zM166 717v84q0 18 18 18h873q18 0 18 -18v-84q0 -19 -18 -19h-873q-18 0 -18 19z" />
<glyph unicode="&#x3e;" horiz-adv-x="1298" d="M166 45v98q0 15 14 21l781 356l-781 354q-14 6 -14 21v98q0 24 22 15l930 -430q15 -6 15 -21v-74q0 -14 -15 -20l-930 -432q-22 -9 -22 14z" />
<glyph unicode="?" horiz-adv-x="1126" d="M109 1323q-6 19 12 25l106 32q183 52 316 52q210 0 329 -91.5t119 -250.5q0 -99 -51 -180.5t-162 -159.5l-90 -64q-55 -39 -90 -93.5t-35 -117.5v-139q0 -19 -18 -19h-96q-19 0 -19 19v139q0 187 180 313l92 64q80 53 117 109.5t37 128.5q0 95 -86 152.5t-227 57.5 q-123 0 -275 -40l-106 -33q-16 -7 -23 10zM410 82q0 48 25.5 75t72.5 27t73.5 -27.5t26.5 -74.5t-26.5 -74.5t-73.5 -27.5t-72.5 27t-25.5 75z" />
<glyph unicode="@" horiz-adv-x="1773" d="M145 510q0 325 201.5 525t530.5 200q167 0 308 -50.5t238 -141t151 -217.5t54 -277q0 -130 -63.5 -199t-169.5 -69q-99 0 -158.5 54.5t-122.5 201.5q-43 100 -96.5 143t-136.5 43q-98 0 -154.5 -55t-56.5 -152q0 -103 61 -160t170 -57q68 0 160 25l24 6q15 3 23 -8 q34 -48 61 -68q11 -6 10.5 -13t-12.5 -10l-73 -22q-98 -31 -193 -31q-167 0 -260.5 89.5t-93.5 248.5q0 153 88 239.5t244 86.5q112 0 188 -50t135 -169q70 -137 94 -168q44 -52 99 -54q48 0 78 37.5t30 110.5q0 251 -173.5 408t-452.5 157q-272 0 -439.5 -166.5 t-167.5 -437.5t164.5 -437.5t431.5 -166.5q177 0 361 57l133 37q16 3 22 -12l25 -80q6 -19 -12 -25l-135 -39q-193 -59 -394 -59q-325 0 -523 199.5t-198 525.5z" />
<glyph unicode="A" horiz-adv-x="1425" d="M90 20l422 1020q71 179 119 353q3 16 20 16h121q18 0 21 -16q43 -155 120 -353l420 -1020q1 -4 1 -7t-2 -7q-4 -6 -13 -6h-105q-16 0 -22 14l-139 344h-680l-140 -344q-6 -14 -22 -14h-107q-9 0 -13 6q-2 3 -2 7q0 3 1 7zM424 483h577l-188 453q-62 153 -88 272 q-1 9 -7 12q-3 2 -6 2t-6 -2q-6 -3 -8 -12q-22 -113 -88 -272z" />
<glyph unicode="B" horiz-adv-x="1323" d="M180 18v1373q0 18 19 18h544q197 0 308.5 -90.5t111.5 -251.5q0 -118 -57.5 -202.5t-157.5 -121.5q-12 -3 -16.5 -8.5t0 -11.5t16.5 -10q121 -30 191.5 -118.5t70.5 -225.5q0 -175 -115.5 -272t-322.5 -97h-573q-19 0 -19 18zM315 123h457q140 0 219.5 67t79.5 187 q0 141 -104 213t-305 72h-347v-539zM315 784h338q179 0 276 73t97 200q0 106 -76 167.5t-207 61.5h-428v-502z" />
<glyph unicode="C" d="M115 705q0 338 159.5 532.5t438.5 194.5q87 0 149 -11t142 -41l86 -30q12 -5 12 -14q0 -4 -2 -9l-29 -84q-6 -18 -24 -12l-86 33q-61 23 -115 31t-133 8q-218 0 -338.5 -157.5t-120.5 -440.5q0 -282 120.5 -440.5t338.5 -158.5q127 0 252 46l84 28q16 6 22 -10l31 -84 q2 -5 2 -9q0 -9 -12 -14l-84 -30q-83 -30 -146.5 -41.5t-148.5 -11.5q-279 0 -438.5 194.5t-159.5 530.5z" />
<glyph unicode="D" horiz-adv-x="1359" d="M180 18v1373q0 18 19 18h452q276 0 434 -188t158 -516q0 -326 -158.5 -515.5t-433.5 -189.5h-452q-19 0 -19 18zM315 123h336q215 0 335 154t120 428q0 275 -120 428t-335 153h-336v-1163z" />
<glyph unicode="E" horiz-adv-x="1228" d="M180 18v1373q0 18 19 18h895q23 0 16 -20l-27 -86q-3 -17 -20 -17h-748v-502h637q19 0 19 -18v-86q0 -18 -19 -18h-637v-539h787q18 0 18 -19v-86q0 -18 -18 -18h-903q-19 0 -19 18z" />
<glyph unicode="F" horiz-adv-x="1202" d="M180 18v1373q0 18 19 18h880q11 1 15 -5q3 -3 3 -8q0 -3 -1 -7l-25 -86q-3 -17 -20 -17h-736v-547h643q19 0 19 -18v-86q0 -19 -19 -19h-643v-598q0 -18 -18 -18h-98q-19 0 -19 18z" />
<glyph unicode="G" horiz-adv-x="1335" d="M115 705q0 336 159 531.5t437 195.5q84 0 146.5 -12t148.5 -42l86 -30q17 -7 10 -23l-31 -86q-6 -16 -22 -10l-86 31q-122 43 -252 43q-216 0 -336.5 -158t-120.5 -440t120.5 -440.5t336.5 -158.5q141 3 247 41l93 33v393h-279q-10 0 -14.5 6t-1.5 15l24 86q3 16 21 16 h364q19 0 19 -18v-567q0 -18 -15 -21l-34 -12l-131 -47q-84 -30 -144.5 -40.5t-148.5 -10.5q-279 0 -437.5 193.5t-158.5 531.5z" />
<glyph unicode="H" horiz-adv-x="1413" d="M180 18v1373q0 18 19 18h98q18 0 18 -18v-607h781v607q0 18 18 18h100q19 0 19 -18v-1373q0 -18 -19 -18h-100q-18 0 -18 18v644h-781v-644q0 -18 -18 -18h-98q-19 0 -19 18z" />
<glyph unicode="I" horiz-adv-x="495" d="M180 18v1373q0 18 19 18h98q18 0 18 -18v-1373q0 -18 -18 -18h-98q-19 0 -19 18z" />
<glyph unicode="J" horiz-adv-x="870" d="M98 47l29 84q7 17 23 10l53 -16q58 -19 129 -19q102 0 159.5 70t57.5 201v1014q0 18 18 18h101q18 0 18 -18v-1014q0 -184 -95 -290.5t-259 -106.5q-93 0 -166 24l-55 19q-14 5 -14 16q0 4 1 8z" />
<glyph unicode="K" horiz-adv-x="1296" d="M180 18v1373q0 18 19 18h98q18 0 18 -18v-607h47q85 0 171 46.5t148.5 109t117.5 141.5l231 316q9 12 23 12h112q11 0 14.5 -7t-3.5 -16l-263 -370q-67 -95 -155.5 -171t-161.5 -106q-27 -12 0 -24q169 -67 334 -297l274 -395q5 -6 5 -12q0 -2 -1 -4q-3 -7 -14 -7h-117 q-13 0 -22 12l-238 338q-91 134 -207 223t-243 89h-52v-644q0 -18 -18 -18h-98q-19 0 -19 18z" />
<glyph unicode="L" horiz-adv-x="1150" d="M180 18v1373q0 18 19 18h98q18 0 18 -18v-1268h701q18 0 18 -19v-86q0 -18 -18 -18h-817q-19 0 -19 18z" />
<glyph unicode="M" horiz-adv-x="1644" d="M180 18v1373q0 18 19 18h161q18 0 21 -16q26 -84 63 -162l304 -670q37 -90 59 -168q5 -15 15 -15t14 15q31 100 59 166l305 672q42 90 62 162q3 16 20 16h164q18 0 18 -18v-1373q0 -18 -18 -18h-100q-19 0 -19 18v893q0 158 14 273q2 19 -9 22.5t-17 -16.5 q-26 -72 -68 -164l-278 -606q-35 -81 -78 -203q-3 -14 -21 -14h-96q-17 0 -20 14q-48 138 -80 203l-275 604q-14 28 -71 166q-4 13 -10.5 16t-11 -3.5t-3.5 -18.5q12 -123 12 -273v-893q0 -18 -18 -18h-98q-19 0 -19 18z" />
<glyph unicode="N" horiz-adv-x="1439" d="M180 18v1373q0 18 19 18h129q14 0 20 -14q64 -122 115 -199l584 -856q40 -59 67 -123q6 -13 17 -9.5t8 17.5q-15 77 -15 195v971q0 18 19 18h98q19 0 19 -18v-1373q0 -18 -19 -18h-127q-14 0 -20 14q-39 82 -115 201l-584 856q-44 70 -67 121q-6 14 -17 10.5t-8 -18.5 q14 -89 14 -195v-971q0 -18 -18 -18h-100q-19 0 -19 18z" />
<glyph unicode="O" horiz-adv-x="1415" d="M115 705q0 336 159 531.5t435 195.5q274 0 432.5 -196t158.5 -531t-158 -530t-433 -195q-276 0 -435 195t-159 530zM254 705q0 -282 120 -440.5t335 -158.5t333.5 158.5t118.5 440.5t-118.5 440t-333.5 158t-335 -158t-120 -440z" />
<glyph unicode="P" horiz-adv-x="1269" d="M180 18v1373q0 18 19 18h495q221 0 344 -112t123 -312q0 -216 -147 -329t-434 -113h-265v-525q0 -18 -18 -18h-98q-19 0 -19 18zM315 666h265q221 0 331.5 81t110.5 238q0 142 -87 221.5t-241 79.5h-379v-620z" />
<glyph unicode="Q" horiz-adv-x="1417" d="M115 705q0 336 159 531.5t435 195.5q274 0 432.5 -196t158.5 -531q0 -241 -84.5 -406.5t-214.5 -224.5q-13 -6 -18 -11.5t0 -10t18 -7.5q69 -21 139.5 -72t127.5 -125l86 -112q4 -7 4 -13q0 -7 -8 -12l-74 -57q-7 -6 -13 -6q-8 0 -14 8l-88 115q-80 107 -187.5 158 t-264.5 51q-277 0 -435.5 194t-158.5 531zM254 705q0 -282 120 -440.5t335 -158.5t333.5 158.5t118.5 440.5t-118.5 440t-333.5 158t-335 -158t-120 -440z" />
<glyph unicode="R" horiz-adv-x="1345" d="M180 18v1373q0 18 19 18h536q204 0 319 -100.5t115 -280.5q0 -137 -78.5 -230.5t-222.5 -140.5q-41 -13 -2 -32q131 -64 211 -252l150 -350q2 -6 2 -10t-2 -7q-4 -6 -13 -6h-106q-15 0 -21 14l-133 308q-60 146 -156 213t-247 67h-236v-584q0 -18 -18 -18h-98 q-19 0 -19 18zM315 725h295q201 0 311.5 78t110.5 219q0 124 -79 194t-218 70h-420v-561z" />
<glyph unicode="S" horiz-adv-x="1218" d="M127 102l31 84q6 19 22 13l82 -31q174 -62 342 -62q151 0 252.5 69.5t101.5 189.5q0 150 -221 235l-284 107q-166 62 -236 148t-70 218q0 167 120.5 263t324.5 96q145 0 309 -52l103 -32q18 -6 12 -25l-29 -84q-6 -16 -22 -10l-99 31q-133 43 -274 43q-139 0 -223 -62.5 t-84 -167.5q0 -79 48.5 -140.5t172.5 -107.5l282 -106q155 -58 232.5 -139.5t77.5 -214.5q0 -179 -137 -282t-357 -103q-197 0 -385 69l-82 31q-12 4 -12 14q0 4 2 8z" />
<glyph unicode="T" horiz-adv-x="1280" d="M88 1305v86q0 18 18 18h1068q18 0 18 -18v-86q0 -19 -18 -19h-465v-1268q0 -18 -19 -18h-100q-19 0 -19 18v1268h-465q-18 0 -18 19z" />
<glyph unicode="U" horiz-adv-x="1363" d="M160 553v838q0 18 18 18h98q19 0 19 -18v-838q0 -212 101.5 -329.5t285.5 -117.5t285.5 117.5t101.5 329.5v838q0 18 18 18h99q18 0 18 -18v-838q0 -270 -137.5 -421.5t-384.5 -151.5t-384.5 151.5t-137.5 421.5z" />
<glyph unicode="V" horiz-adv-x="1388" d="M80 1389q-1 4 -1 7q0 4 2 8q4 6 13 5h107q16 0 22 -14l383 -924q53 -134 76 -256q1 -9 7 -12t11.5 0t6.5 12q24 127 75 256l383 924q6 14 23 14h106q10 1 14 -5q3 -3 2 -8q0 -3 -1 -7l-422 -1012q-65 -164 -115 -361q-3 -16 -20 -16h-117q-18 0 -21 16q-55 217 -112 361z " />
<glyph unicode="W" horiz-adv-x="1988" d="M98 1389q-1 4 -1 7q1 6 3 8q4 6 15 5h100q18 0 21 -16l276 -920q30 -105 49 -242q1 -9 6 -12t10.5 0t6.5 12q11 103 53 242l299 922q3 14 20 14h76q18 0 21 -14l299 -922q43 -134 55 -242q0 -9 5.5 -12t11 0t6.5 12q13 125 49 242l274 920q3 16 21 16h100q18 0 18 -12 q0 -4 -2 -8l-313 -1061q-52 -186 -78 -312q-3 -16 -18 -16h-121q-15 0 -21 16q-32 169 -73 295l-230 707q-23 96 -28 125q-3 15 -12.5 15t-12.5 -15q-3 -16 -29 -125l-229 -707q-43 -134 -74 -295q-6 -16 -20 -16h-121q-18 0 -21 16q-34 165 -75 312z" />
<glyph unicode="X" horiz-adv-x="1353" d="M126 7q-1 3 -1 5q0 5 4 11l383 591q36 65 76 86q6 5 6.5 12.5t-6.5 12.5q-38 21 -74 86l-373 575q-6 9 -2 16t15 7h110q14 0 23 -12l372 -576q7 -13 17 -13t18 13l371 576q9 12 22 12h113q11 0 14.5 -7t-2.5 -16l-370 -575q-44 -67 -76 -86q-8 -5 -8 -13t8 -12 q39 -21 76 -86l381 -591q4 -5 4 -10q0 -3 -2 -6q-4 -7 -15 -7h-112q-14 0 -23 12l-381 596q-16 25 -35 0l-383 -596q-9 -12 -22 -12h-113q-11 0 -15 7z" />
<glyph unicode="Y" horiz-adv-x="1337" d="M84 1402q3 7 14 7h113q13 0 22 -12l302 -465q67 -111 116 -223q3 -13 11 -21q4 -4 10.5 -1t9.5 11q47 115 119 234l303 465q9 12 22 12h113q11 0 15 -7q1 -3 1 -5q0 -5 -4 -11l-350 -542q-95 -154 -130.5 -244.5t-35.5 -220.5v-361q0 -18 -18 -18h-99q-18 0 -18 18v361 q0 131 -35 222t-129 243l-350 542q-4 6 -4 11q0 2 2 5z" />
<glyph unicode="Z" horiz-adv-x="1241" d="M125 29q-3 6 -3 12q0 8 5 14q64 87 139 215l559 873q2 4 22 35t33.5 50t28.5 34q23 30 -10 30q-79 -6 -139 -6h-584q-18 0 -18 19v86q0 18 18 18h911q15 0 21 -12l8 -15q4 -7 4 -13q0 -7 -6 -13q-66 -85 -133 -201l-567 -887q-44 -65 -84 -118q-12 -15 -8.5 -23.5 t20.5 -7.5q102 4 141 4h607q10 0 14.5 -6t1.5 -15l-25 -86q-3 -16 -20 -16h-907q-15 0 -21 14z" />
<glyph unicode="[" horiz-adv-x="675" d="M221 -184v1687q0 19 19 19h268q18 0 18 -19v-86q0 -18 -18 -18h-162v-1479h162q18 0 18 -18v-86q0 -19 -18 -19h-268q-19 0 -19 19z" />
<glyph unicode="\" horiz-adv-x="964" d="M57 1501q-3 9 1.5 15t13.5 6h96q16 0 22 -15l697 -1689q3 -9 -1.5 -15t-13.5 -6h-96q-16 0 -22 15z" />
<glyph unicode="]" horiz-adv-x="675" d="M150 -98q0 18 18 18h162v1479h-162q-18 0 -18 18v86q0 19 18 19h268q19 0 19 -19v-1687q0 -19 -19 -19h-268q-18 0 -18 19v86z" />
<glyph unicode="^" horiz-adv-x="989" d="M133 729l297 651q6 15 21 15h88q14 0 20 -15l297 -651q9 -22 -14 -22h-103q-14 0 -20 14l-225 514l-224 -514q-6 -14 -20 -14h-103q-23 0 -14 22z" />
<glyph unicode="_" horiz-adv-x="997" d="M-25 -330q0 19 19 19h1007q19 0 19 -19v-84q0 -18 -19 -18h-1007q-19 0 -19 18v84z" />
<glyph unicode="`" horiz-adv-x="530" d="M112 1441q3 7 15 7h113q13 0 22 -12l156 -232q6 -9 2.5 -15.5t-14.5 -6.5h-84q-13 0 -23 10l-182 233q-8 9 -5 16z" />
<glyph unicode="a" horiz-adv-x="1036" d="M92 274q0 137 94 218.5t267 82.5h309v27q0 131 -71.5 203t-203.5 72q-106 0 -186 -25l-72 -21q-18 -6 -24 13l-23 80q-6 18 13 24l75 23q98 30 219 30q188 0 297 -106t109 -291v-586q0 -18 -18 -18h-64q-17 0 -20 18l-7 93q-9 39 -41 2q-106 -133 -325 -133 q-155 0 -241.5 78.5t-86.5 215.5zM225 283q0 -87 53.5 -135t151.5 -48q158 0 245 87t87 247v27h-309q-113 0 -170.5 -47.5t-57.5 -130.5z" />
<glyph unicode="b" horiz-adv-x="1132" d="M160 117v1313q0 18 18 18h96q19 0 19 -18v-377q0 -118 -17 -207q-5 -17 5 -21t20 11q110 165 311 165q196 0 307 -136t111 -373q0 -238 -118.5 -375t-327.5 -137q-143 0 -262 53l-148 63q-14 6 -14 21zM291 188l84 -43q95 -43 209 -43q148 0 230.5 103.5t82.5 286.5 q0 182 -79 284.5t-218 102.5q-150 0 -229.5 -114.5t-79.5 -295.5v-281z" />
<glyph unicode="c" horiz-adv-x="956" d="M102 492q0 238 120.5 373.5t344.5 135.5q89 0 191 -30l63 -19q19 -3 13 -22l-27 -82q-6 -15 -23 -12l-57 16q-80 27 -158 27q-165 0 -249 -101.5t-84 -285.5q0 -185 84 -287.5t245 -102.5q76 0 174 29l58 16q18 6 24 -12l25 -80q2 -4 2 -8q0 -11 -14 -16l-66 -19 q-106 -32 -203 -32q-222 0 -342.5 136.5t-120.5 375.5z" />
<glyph unicode="d" horiz-adv-x="1132" d="M102 492q0 237 118 372t325 137q130 0 233 -49l64 -28v506q0 18 18 18h94q19 0 19 -18v-1412q0 -18 -19 -18h-63q-18 0 -21 18l-8 123q-1 9 -5 13t-10 1.5t-13 -12.5q-118 -163 -314 -163q-194 0 -306 137.5t-112 374.5zM317 206q79 -104 218 -104q148 0 227.5 114.5 t79.5 295.5v283l-84 39q-89 45 -209 45q-148 -2 -231 -104q-82 -101 -82 -279q0 -183 81 -290z" />
<glyph unicode="e" horiz-adv-x="1024" d="M102 492q0 235 120 372t329 137q174 0 272.5 -80.5t98.5 -222.5q0 -212 -275 -258l-399 -65q20 -130 100 -201.5t205 -71.5q105 0 190 27l62 18q18 3 24 -14l25 -82q3 -19 -14 -22l-66 -19q-94 -30 -221 -30q-211 0 -331 137.5t-120 374.5zM238 487l387 66 q163 27 163 143q0 87 -62.5 135t-176.5 48q-145 0 -226 -99t-85 -293z" />
<glyph unicode="f" horiz-adv-x="690" d="M109 879v84q0 18 18 18h94v178q0 145 75.5 227t207.5 82q54 0 108 -22l33 -12q12 -5 12 -14q0 -4 -2 -9l-30 -82q-7 -17 -23 -10l-27 10q-35 14 -71 14q-70 0 -110 -49t-40 -135v-178h228q18 0 18 -18v-84q0 -19 -18 -19h-228v-842q0 -18 -18 -18h-96q-19 0 -19 18v842 h-94q-18 0 -18 19z" />
<glyph unicode="g" horiz-adv-x="1124" d="M102 489q0 240 120 376t335 136q134 0 256 -53l148 -65q14 -6 14 -21v-893q0 -201 -116 -311.5t-335 -110.5q-126 0 -233 31l-90 25q-19 6 -13 24l27 82q7 17 23 10l79 -22q85 -25 203 -25q152 0 238 70.5t96 210.5q2 85 8 188q2 13 -6.5 15t-17.5 -11 q-119 -165 -318 -165q-193 0 -305.5 137t-112.5 372zM236 492q0 -176 77.5 -283t218.5 -107q149 0 229.5 113t80.5 299v281l-84 39q-85 45 -205 45q-151 -2 -234 -102.5t-83 -284.5z" />
<glyph unicode="h" horiz-adv-x="1138" d="M160 18v1412q0 18 18 18h96q19 0 19 -18v-377q0 -109 -19 -209q-3 -14 6 -17.5t21 9.5q113 165 326 165q169 0 265.5 -106t96.5 -291v-586q0 -18 -18 -18h-97q-18 0 -18 18v576q0 134 -64 209.5t-178 75.5q-85 0 -149 -33t-100.5 -91.5t-54 -130t-17.5 -157.5v-449 q0 -18 -19 -18h-96q-18 0 -18 18z" />
<glyph unicode="i" horiz-adv-x="514" d="M109 879v84q0 18 18 18h209q18 0 18 -18v-945q0 -18 -18 -18h-96q-19 0 -19 18v842h-94q-18 0 -18 19zM176 1368q0 42 24 66t66 24q41 0 64.5 -23.5t23.5 -66.5t-23.5 -66.5t-64.5 -23.5q-42 0 -66 24t-24 66z" />
<glyph unicode="j" horiz-adv-x="514" d="M68 -369q-2 6 -2 11q0 9 8 14l59 45q88 62 88 180v979h-94q-18 0 -18 19v84q0 18 18 18h209q18 0 18 -18v-1082q0 -93 -36.5 -161.5t-114.5 -122.5l-62 -46q-7 -5 -12 -5q-8 0 -14 10zM178 1368q0 43 23.5 66.5t64.5 23.5q43 0 65.5 -23.5t22.5 -66.5t-22.5 -66.5 t-65.5 -23.5q-41 0 -64.5 23.5t-23.5 66.5z" />
<glyph unicode="k" horiz-adv-x="1028" d="M160 18v1412q0 18 18 18h96q19 0 19 -18v-873h39q39 0 75 15t69.5 45t57 56t56.5 66l12 15l170 217q10 10 23 10h112q12 0 15.5 -7t-2.5 -16l-201 -262q-118 -154 -203 -186q-19 -10 0 -18q94 -37 215 -193l205 -276q4 -6 4 -11q0 -3 -1 -5q-3 -7 -15 -7h-113 q-13 0 -23 10l-178 236q-31 40 -45.5 58t-44.5 48.5t-53.5 44.5t-58 25.5t-72.5 11.5h-43v-416q0 -18 -19 -18h-96q-18 0 -18 18z" />
<glyph unicode="l" horiz-adv-x="520" d="M160 176v1254q0 18 18 18h96q19 0 19 -18v-1254q0 -74 53 -74q13 0 19 2q16 6 22 -10l35 -80q2 -5 2 -9q0 -10 -12 -15q-33 -10 -66 -10q-88 0 -137 51.5t-49 144.5z" />
<glyph unicode="m" horiz-adv-x="1751" d="M160 18v945q0 18 18 18h64q17 0 20 -18l6 -121q9 -31 33 -4q60 84 133 123.5t176 39.5q102 0 173 -51t108 -133q19 -32 45 -2q63 98 144 142t186 44q158 0 247 -106t89 -291v-586q0 -18 -19 -18h-96q-19 0 -19 18v576q0 135 -56 210t-159 75q-104 0 -174 -54t-100.5 -144 t-30.5 -214v-449q0 -18 -18 -18h-96q-19 0 -19 18v578q0 132 -57.5 207.5t-159.5 75.5q-104 0 -174 -54t-100.5 -144t-30.5 -214v-449q0 -18 -19 -18h-96q-18 0 -18 18z" />
<glyph unicode="n" horiz-adv-x="1138" d="M160 18v945q0 18 18 18h64q18 0 18 -18l8 -125q3 -9 8 -12t11 -0.5t12 10.5q116 165 328 165q169 0 265.5 -106t96.5 -291v-586q0 -18 -18 -18h-97q-18 0 -18 18v576q0 134 -64 209.5t-178 75.5q-152 0 -236.5 -108.5t-84.5 -303.5v-449q0 -18 -19 -18h-96q-18 0 -18 18z " />
<glyph unicode="o" horiz-adv-x="1099" d="M102 492q0 235 120 372t327 137t326.5 -137t119.5 -372q0 -237 -119.5 -374.5t-326.5 -137.5t-327 138t-120 374zM236 492q0 -183 82.5 -286.5t230.5 -103.5t231.5 103.5t83.5 286.5q0 182 -83.5 284.5t-231.5 102.5t-230.5 -102.5t-82.5 -284.5z" />
<glyph unicode="p" horiz-adv-x="1132" d="M160 -414v1377q0 18 18 18h64q17 0 20 -18l8 -123q3 -14 11.5 -14.5t17.5 12.5q117 163 313 163t307 -136t111 -373q0 -239 -117 -375.5t-325 -136.5q-131 0 -234 49l-61 28v-471q0 -18 -19 -18h-96q-18 0 -18 18zM291 186l84 -41q90 -43 209 -43q148 0 230.5 103.5 t82.5 286.5q0 181 -79 284t-220 103q-147 0 -227 -114t-80 -296v-283z" />
<glyph unicode="q" horiz-adv-x="1122" d="M102 492q0 237 118.5 373t328.5 136q145 0 264 -55l145 -63q15 -6 15 -21v-1278q0 -18 -19 -18h-94q-18 0 -18 18v344q0 128 16 207q3 15 -6 19t-21 -9q-110 -165 -311 -165q-196 0 -307 137t-111 375zM236 492q0 -184 78 -287t218 -103q149 0 229.5 113t80.5 297v283 l-82 39q-95 45 -211 45q-148 0 -230.5 -103t-82.5 -284z" />
<glyph unicode="r" horiz-adv-x="763" d="M160 18v945q0 18 18 18h64q17 0 20 -18l14 -154q3 -12 11 -14t16 10q60 95 140 143.5t194 52.5q18 0 18 -18v-86q0 -18 -18 -18q-166 -8 -255 -146t-89 -395v-320q0 -18 -19 -18h-96q-18 0 -18 18z" />
<glyph unicode="s" horiz-adv-x="960" d="M111 70l28 82q7 17 23 10l53 -19q115 -41 272 -41q113 0 176.5 43.5t63.5 118.5q0 57 -33 92.5t-104 57.5l-240 67q-114 29 -167.5 91t-53.5 163q0 125 92.5 195.5t257.5 70.5q138 0 240 -30l80 -25q18 -6 12 -24l-23 -80q-6 -19 -24 -13l-78 23q-93 27 -205 27 q-103 0 -161 -39.5t-58 -104.5q0 -54 31 -88.5t100 -54.5l238 -68q118 -30 173.5 -94.5t55.5 -165.5q0 -134 -98 -209t-275 -75q-182 0 -309 47l-55 18q-13 4 -13 16q0 4 1 9z" />
<glyph unicode="t" horiz-adv-x="698" d="M109 879v84q0 18 18 18h94v246q0 17 15 20l98 33q5 2 8 2q12 0 12 -18v-283h228q18 0 18 -18v-84q0 -19 -18 -19h-228v-620q0 -66 28.5 -102t80.5 -36q20 0 53 11q15 6 25 -11l34 -75q8 -19 -8 -25q-46 -22 -104 -22q-114 0 -178 67.5t-64 190.5v622h-94q-18 0 -18 19z " />
<glyph unicode="u" horiz-adv-x="1138" d="M150 377v586q0 18 18 18h96q19 0 19 -18v-576q0 -134 63.5 -209.5t177.5 -75.5q152 0 237 108.5t85 303.5v449q0 18 18 18h97q18 0 18 -18v-945q0 -18 -18 -18h-64q-18 0 -18 18l-9 125q-10 29 -30 2q-116 -165 -328 -165q-169 0 -265.5 106t-96.5 291z" />
<glyph unicode="v" horiz-adv-x="1093" d="M82 974q4 6 14 7h103q14 0 20 -14l232 -514q54 -126 81 -246q4 -13 14 -13t15 13q20 104 82 246l231 514q6 14 21 14h102q11 -1 15 -7q2 -3 2 -7t-2 -9l-267 -591q-70 -169 -122 -351q-3 -16 -21 -16h-110q-18 0 -21 16q-46 173 -123 351l-266 591q-2 5 -2 10q0 3 2 6z " />
<glyph unicode="w" horiz-adv-x="1564" d="M90 961q-2 5 -2 8q0 12 18 12h99q17 0 20 -14l164 -521q47 -159 62 -241q2 -9 7.5 -12t11 0t7.5 12q20 83 76 256l178 506q6 14 23 14h57q17 0 23 -14l178 -506q55 -175 75 -256q2 -9 7.5 -12t11.5 0t8 12q14 78 60 241l165 521q3 14 21 14h96q12 1 16 -5q3 -3 2 -8 q0 -3 -1 -7l-197 -625q-58 -186 -92 -320q-3 -16 -21 -16h-114q-18 0 -21 16q-18 71 -80 254l-123 346q-22 69 -28 113q-5 18 -14.5 18t-14.5 -18q-11 -61 -29 -113l-123 -346q-50 -143 -79 -254q-3 -16 -21 -16h-115q-17 0 -20 16q-27 106 -90 320z" />
<glyph unicode="x" horiz-adv-x="1060" d="M105 7q-1 2 -1 4q0 5 5 12l278 405q24 38 47 55q15 10 15 13q0 4 -7 8q-27 20 -55 61l-270 393q-7 9 -4 16t14 7h111q13 0 22 -12l256 -371q9 -16 21 -8q2 2 12 16l252 363q9 12 22 12h109q11 0 14 -7t-4 -16l-270 -393q-34 -49 -56 -61q-6 -3 -6 -6q-1 -2 0 -4t3 -3.5 t4 -2.5t5.5 -2.5t4.5 -2.5q25 -22 45 -55l278 -405q5 -6 5 -12q0 -2 -1 -4q-3 -7 -14 -7h-111q-13 0 -22 12l-264 381q-12 18 -27 0l-264 -381q-9 -12 -23 -12h-110q-11 0 -14 7z" />
<glyph unicode="y" horiz-adv-x="1105" d="M82 974q3 7 14 7h103q14 0 20 -14l244 -539q55 -129 76 -225q2 -9 7 -12t10.5 0t8.5 12q22 85 82 225l240 539q6 14 20 14h105q9 0 12 -7q2 -3 2 -6q0 -5 -2 -10l-602 -1376q-6 -14 -21 -14h-100q-23 0 -14 22l141 318q23 54 23 119q0 98 -52 221l-317 710q-2 5 -2 10 q0 3 2 6z" />
<glyph unicode="z" horiz-adv-x="958" d="M109 18q-4 6 -4 12q0 8 6 15q50 62 92 133l389 584q33 52 59 80q8 9 6 15t-14 5q-37 -2 -98 -2h-400q-18 0 -18 19v84q0 18 18 18h684q14 0 23 -12l4 -6q4 -6 4 -12q0 -8 -6 -15q-43 -51 -86 -121l-395 -598q-13 -19 -60 -78q-8 -9 -4.5 -15t15.5 -5q35 2 96 2h407 q10 0 15 -6t2 -15l-25 -84q-3 -16 -20 -16h-664q-13 0 -22 12z" />
<glyph unicode="{" horiz-adv-x="710" d="M129 616v89q0 18 18 18h11q47 0 75.5 31t28.5 86v424q0 125 75 197.5t210 76.5q18 0 18 -18v-86q0 -19 -18 -19q-75 -4 -116.5 -44.5t-41.5 -106.5v-424q0 -62 -17 -101t-57 -63q-12 -6 -15.5 -11t0 -9.5t15.5 -10.5q74 -44 74 -166v-420q0 -68 41.5 -108.5t116.5 -44.5 q18 0 18 -19v-84q0 -18 -18 -18q-135 5 -210 76.5t-75 197.5v420q0 56 -28.5 87.5t-75.5 31.5h-11q-18 0 -18 18z" />
<glyph unicode="|" horiz-adv-x="567" d="M219 -416v1921q0 19 19 19h92q18 0 18 -19v-1921q0 -18 -18 -18h-92q-19 0 -19 18z" />
<glyph unicode="}" horiz-adv-x="710" d="M145 -113q0 19 19 19q75 4 116.5 44.5t41.5 108.5v420q0 62 16.5 102t56.5 64q12 6 15.5 10.5t0 9.5t-15.5 11q-40 24 -56.5 63t-16.5 101v424q0 66 -41.5 106.5t-116.5 44.5q-19 0 -19 19v86q0 18 19 18q135 -4 210 -76.5t75 -197.5v-424q0 -55 28.5 -86t75.5 -31h10 q19 0 19 -18v-89q0 -18 -19 -18h-10q-47 0 -75.5 -31.5t-28.5 -87.5v-420q0 -126 -75 -197.5t-210 -76.5q-19 0 -19 18v84z" />
<glyph unicode="~" horiz-adv-x="1067" d="M117.5 576q-3.5 7 1.5 16l71 119q74 116 197 116q73 0 139 -51l80 -61q40 -27 76 -27q62 0 94 55l39 68q9 12 23 12h96q12 0 15.5 -6.5t-1.5 -15.5l-71 -121q-68 -115 -193 -115q-74 0 -139 49l-84 64q-33 24 -74 24q-67 0 -94 -53l-41 -67q-10 -13 -23 -13h-96 q-12 0 -15.5 7z" />
<glyph unicode="&#xa2;" horiz-adv-x="956" d="M102 922q0 213 96 344.5t279 158.5v172q0 19 19 19h96q18 0 18 -19v-167q76 -6 148 -29l63 -19q19 -3 13 -22l-27 -82q-6 -15 -23 -12l-57 16q-68 22 -117 25v-772q50 5 129 26l58 17q18 6 24 -13l25 -80q6 -18 -12 -24l-66 -19q-76 -24 -158 -30v-170q0 -19 -18 -19h-96 q-19 0 -19 19v174q-181 26 -278 159t-97 347zM236 922q0 -158 61 -255.5t180 -125.5v757q-120 -26 -180.5 -123t-60.5 -253z" />
<glyph unicode="&#xa3;" horiz-adv-x="1167" d="M70 631v86q0 18 18 18h178v285q0 191 111 301.5t303 110.5q91 0 199 -33l61 -21q18 -6 12 -24l-30 -82q-7 -17 -23 -10l-61 18q-90 23 -158 23q-130 0 -204.5 -75t-74.5 -208v-285h353q18 0 18 -18v-86q0 -19 -18 -19h-353v-168q0 -169 -86 -299q-7 -17 -1.5 -25t20.5 -5 q55 8 143 8h574q18 0 18 -19v-86q0 -18 -18 -18h-885q-15 0 -21 12l-10 19q-6 13 2 24l41 70q88 128 88 309v178h-178q-18 0 -18 19z" />
<glyph unicode="&#xa5;" horiz-adv-x="1357" d="M94 1402q4 7 15 7h112q14 0 23 -12l301 -465q71 -117 117 -223q4 -15 10 -21q4 -4 10.5 -1t9.5 11q47 115 119 234l303 465q9 12 23 12h112q11 0 15 -7t-2 -16l-351 -542q-65 -108 -92 -160h252q19 0 19 -18v-72q0 -19 -19 -19h-299q-22 -81 -24 -143h323q19 0 19 -18 v-72q0 -18 -19 -18h-326v-306q0 -18 -18 -18h-98q-19 0 -19 18v306h-323q-19 0 -19 18v72q0 18 19 18h321q-3 75 -24 143h-297q-19 0 -19 19v72q0 18 19 18h252q-21 42 -93 160l-350 542q-6 9 -2 16z" />
<glyph unicode="&#xa7;" horiz-adv-x="1216" d="M121 -330l31 80q6 16 22 10l82 -28q169 -62 336 -62q166 0 260 54.5t94 152.5q0 134 -196 207l-326 123q-150 58 -217.5 146t-65.5 206q1 47 13.5 88.5t28.5 68t42.5 52t42.5 36.5t41 27q12 8 13 13.5t-11 15.5q-33 24 -55 43.5t-47.5 50.5t-38 71t-12.5 89 q0 149 116.5 233.5t323.5 84.5q155 0 307 -52l103 -32q18 -6 12 -25l-29 -82q-6 -16 -22 -10l-99 31q-131 45 -268 45q-145 0 -227 -51t-82 -142q0 -71 49 -121.5t152 -89.5l315 -121q289 -112 289 -358q0 -55 -13.5 -100t-38 -76.5t-51 -52.5t-61.5 -39q-14 -8 -15.5 -13 t11.5 -14q73 -50 112 -105t39 -147q0 -157 -128.5 -244.5t-358.5 -87.5q-180 0 -381 72l-80 29q-18 6 -12 24zM272 559q0 -162 224 -246l204 -77q70 -22 129.5 -5t98.5 70t39 119q0 88 -60.5 153.5t-154.5 100.5l-215 80q-95 35 -180 -24t-85 -171z" />
<glyph unicode="&#xa8;" horiz-adv-x="657" d="M90 1370q0 41 23 64.5t63 23.5q39 0 62.5 -23.5t23.5 -64.5t-23.5 -64.5t-62.5 -23.5q-40 0 -63 23.5t-23 64.5zM401 1370q0 41 23 64.5t63 23.5q39 0 62.5 -23.5t23.5 -64.5t-23.5 -64.5t-62.5 -23.5q-40 0 -63 23.5t-23 64.5z" />
<glyph unicode="&#xa9;" horiz-adv-x="1615" d="M100 705q0 215 88 380t248.5 256t370.5 91t371 -91t249.5 -256t88.5 -380q0 -325 -195.5 -525t-513.5 -200q-210 0 -370.5 90.5t-248.5 255t-88 379.5zM195 705q0 -283 168.5 -456t443.5 -173q276 0 444 173t168 456q0 284 -167.5 457t-444.5 173q-275 0 -443.5 -173 t-168.5 -457zM463 707q0 184 92.5 291.5t253.5 107.5q84 0 172 -29l43 -14q16 -6 10 -25l-18 -55q-7 -17 -23 -10l-43 12q-71 25 -141 25q-115 0 -181.5 -80.5t-66.5 -222.5q0 -144 66.5 -225t181.5 -81q68 0 139 23l43 14q19 6 25 -12l18 -55q6 -19 -12 -25l-43 -12 q-79 -27 -170 -27q-161 0 -253.5 107.5t-92.5 292.5z" />
<glyph unicode="&#xab;" horiz-adv-x="1101" d="M162 483v15q0 11 8 22l260 328q10 10 23 10h110q12 0 15 -6.5t-5 -15.5l-270 -344l270 -347q8 -9 5 -15.5t-15 -6.5h-108q-13 0 -23 10l-262 328q-8 11 -8 22zM512 483v15q0 11 8 22l260 328q10 10 23 10h110q12 0 15.5 -6.5t-4.5 -15.5l-271 -344l271 -347 q8 -9 4.5 -15.5t-15.5 -6.5h-108q-13 0 -23 10l-262 328q-8 11 -8 22z" />
<glyph unicode="&#xad;" horiz-adv-x="901" d="M166 496v84q0 18 18 18h533q18 0 18 -18v-84q0 -19 -18 -19h-533q-18 0 -18 19z" />
<glyph unicode="&#xae;" horiz-adv-x="1615" d="M100 705q0 215 88 380t248.5 256t370.5 91t371 -91t249.5 -256t88.5 -380q0 -325 -195.5 -525t-513.5 -200q-210 0 -370.5 90.5t-248.5 255t-88 379.5zM195 705q0 -283 168.5 -456t443.5 -173q276 0 444 173t168 456q0 284 -167.5 457t-444.5 173q-275 0 -443.5 -173 t-168.5 -457zM553 356v701q0 18 18 18h285q112 0 176 -56.5t64 -154.5q0 -70 -40.5 -118.5t-109.5 -71.5q-3 -1 -10 -3t-10 -5q-7 -4 8 -13q78 -41 108 -123l76 -170q9 -22 -14 -22h-60q-14 0 -20 14l-63 146q-32 69 -79 100t-130 31h-103v-273q0 -18 -18 -18h-60 q-18 0 -18 18zM649 719h146q206 0 206 139q0 123 -145 123h-207v-262z" />
<glyph unicode="&#xb0;" horiz-adv-x="548" d="M51 1214q0 105 59 164.5t164 59.5q104 0 164 -60t60 -164q0 -105 -59.5 -164t-164.5 -59q-106 0 -164.5 58.5t-58.5 164.5zM164 1214q0 -57 28.5 -87.5t81.5 -30.5t82 30.5t29 87.5q0 55 -29 86t-82 31q-52 0 -81 -30.5t-29 -86.5z" />
<glyph unicode="&#xb4;" horiz-adv-x="530" d="M110.5 1188.5q-3.5 6.5 2.5 15.5l155 232q9 12 23 12h112q12 0 15.5 -7t-4.5 -16l-183 -233q-10 -10 -22 -10h-84q-11 0 -14.5 6.5z" />
<glyph unicode="&#xb6;" horiz-adv-x="1271" d="M195 1024q0 182 103.5 283.5t287.5 101.5h487q19 0 19 -18v-1373q0 -18 -19 -18h-72q-18 0 -18 18v1287h-180v-1287q0 -18 -19 -18h-71q-19 0 -19 18v617q-223 0 -361 101t-138 288z" />
<glyph unicode="&#xb7;" horiz-adv-x="444" d="M133 510q0 48 25.5 75t72.5 27t74 -27.5t27 -74.5t-27 -74.5t-74 -27.5t-72.5 27t-25.5 75z" />
<glyph unicode="&#xb8;" horiz-adv-x="567" d="M119 -403l20 63q7 17 23 10l31 -8q31 -10 61 -10q46 0 73 21.5t27 60.5t-27 59.5t-75 20.5h-66q-12 0 -22 10l-4 4q-7 10 -4 27l49 143q6 14 22 14h60q21 0 14 -20l-39 -98h14q82 0 130.5 -44.5t48.5 -123.5q0 -84 -53 -132.5t-148 -48.5q-42 0 -92 17l-31 10 q-18 6 -12 25z" />
<glyph unicode="&#xbb;" horiz-adv-x="1101" d="M173 129.5q-3 6.5 5 15.5l271 347l-271 344q-8 9 -5 15.5t15 6.5h111q13 0 23 -10l260 -328q8 -11 8 -22v-15q0 -11 -8 -22l-263 -328q-10 -10 -22 -10h-109q-12 0 -15 6.5zM523.5 129.5q-3.5 6.5 4.5 15.5l271 347l-271 344q-8 9 -4.5 15.5t15.5 6.5h110q13 0 23 -10 l260 -328q8 -11 8 -22v-15q0 -11 -8 -22l-262 -328q-10 -10 -23 -10h-108q-12 0 -15.5 6.5z" />
<glyph unicode="&#x2c6;" horiz-adv-x="735" d="M112 1188.5q-3 6.5 5 15.5l184 234q10 10 23 10h88q12 0 22 -10l184 -234q8 -9 5 -15.5t-15 -6.5h-76q-14 0 -22 10l-141 151l-142 -151q-7 -10 -22 -10h-78q-12 0 -15 6.5z" />
<glyph unicode="&#x2da;" horiz-adv-x="507" d="M90 1315q0 71 43.5 110t122.5 39q78 0 122 -39.5t44 -109.5t-44 -110t-122 -40q-79 0 -122.5 39.5t-43.5 110.5zM176 1315q0 -70 80 -70q38 0 59 18t21 52q0 69 -80 69t-80 -69z" />
<glyph unicode="&#x2dc;" horiz-adv-x="806" d="M109 1288l36 78q45 88 136 88q38 0 94 -29l98 -55q32 -16 53 -16q34 0 54 41l22 41q9 12 23 12h61q11 0 14.5 -6t-2.5 -17l-39 -75q-42 -88 -133 -88q-46 0 -98 30l-94 49q-35 21 -53 21q-34 0 -54 -39l-22 -43q-6 -14 -21 -14h-61q-23 0 -14 22z" />
<glyph unicode="&#x400;" horiz-adv-x="1228" d="M180 18v1373q0 18 19 18h895q23 0 16 -20l-27 -86q-3 -17 -20 -17h-748v-502h637q19 0 19 -18v-86q0 -18 -19 -18h-637v-539h787q18 0 18 -19v-86q0 -18 -18 -18h-903q-19 0 -19 18zM391 1785q3 7 15 7h139q15 0 22 -10l160 -187q7 -9 4 -15.5t-14 -6.5h-99q-11 0 -22 8 l-199 188q-9 9 -6 16z" />
<glyph unicode="&#x401;" horiz-adv-x="1228" d="M180 18v1373q0 18 19 18h895q23 0 16 -20l-27 -86q-3 -17 -20 -17h-748v-502h637q19 0 19 -18v-86q0 -18 -19 -18h-637v-539h787q18 0 18 -19v-86q0 -18 -18 -18h-903q-19 0 -19 18zM410 1679q0 40 24 63t66 23q40 0 64 -23t24 -63q0 -39 -24 -61.5t-64 -22.5 q-43 0 -66.5 22t-23.5 62zM715 1679q0 40 24 63t66 23q40 0 64 -23t24 -63q0 -39 -24 -61.5t-64 -22.5q-43 0 -66.5 22t-23.5 62z" />
<glyph unicode="&#x402;" horiz-adv-x="1529" d="M39 1305v86q0 18 18 18h1076q18 0 18 -18v-86q0 -19 -18 -19h-525v-508l129 45q121 45 271 45q193 0 301 -113.5t108 -316.5q0 -217 -115.5 -337.5t-322.5 -120.5q-83 0 -178 26l-33 10q-19 3 -12 23l24 84q6 15 25 12l29 -8q64 -21 145 -21q141 0 220 87t79 241 q0 144 -74 225.5t-205 81.5q-127 0 -231 -36l-160 -58v-629q0 -18 -18 -18h-98q-19 0 -19 18v1268h-416q-18 0 -18 19z" />
<glyph unicode="&#x403;" horiz-adv-x="1163" d="M180 18v1373q0 18 19 18h845q11 0 15.5 -5.5t1.5 -14.5l-25 -86q-3 -17 -20 -17h-701v-1268q0 -18 -18 -18h-98q-19 0 -19 18zM494 1579.5q-3 6.5 4 15.5l159 187q7 10 23 10h139q12 0 14.5 -7t-6.5 -16l-198 -188q-11 -8 -23 -8h-98q-11 0 -14 6.5z" />
<glyph unicode="&#x404;" d="M115 705q0 338 159.5 532.5t438.5 194.5q87 0 149 -11t142 -41l86 -30q17 -7 10 -23l-29 -84q-6 -18 -24 -12l-86 33q-61 23 -115 31t-133 8q-202 0 -321 -136t-136 -383h651q19 0 19 -18v-86q0 -18 -19 -18h-653q9 -262 129.5 -409t329.5 -147q127 0 252 46l84 28 q16 6 22 -10l31 -84q7 -16 -10 -23l-84 -30q-83 -30 -146.5 -41.5t-148.5 -11.5q-279 0 -438.5 194.5t-159.5 530.5z" />
<glyph unicode="&#x405;" horiz-adv-x="1218" d="M127 102l31 84q6 19 22 13l82 -31q174 -62 342 -62q151 0 252.5 69.5t101.5 189.5q0 150 -221 235l-284 107q-166 62 -236 148t-70 218q0 167 120.5 263t324.5 96q145 0 309 -52l103 -32q18 -6 12 -25l-29 -84q-6 -16 -22 -10l-99 31q-133 43 -274 43q-139 0 -223 -62.5 t-84 -167.5q0 -79 48.5 -140.5t172.5 -107.5l282 -106q155 -58 232.5 -139.5t77.5 -214.5q0 -179 -137 -282t-357 -103q-197 0 -385 69l-82 31q-16 6 -10 22z" />
<glyph unicode="&#x406;" horiz-adv-x="495" d="M180 18v1373q0 18 19 18h98q18 0 18 -18v-1373q0 -18 -18 -18h-98q-19 0 -19 18z" />
<glyph unicode="&#x407;" horiz-adv-x="495" d="M8 1679q0 40 24 63t66 23q40 0 64 -23t24 -63q0 -39 -24 -61.5t-64 -22.5q-43 0 -66.5 22t-23.5 62zM180 18v1373q0 18 19 18h98q18 0 18 -18v-1373q0 -18 -18 -18h-98q-19 0 -19 18zM313 1679q0 40 24 63t66 23q40 0 64.5 -23.5t24.5 -62.5t-24.5 -61.5t-64.5 -22.5 q-43 0 -66.5 22t-23.5 62z" />
<glyph unicode="&#x408;" horiz-adv-x="870" d="M98 47l29 84q7 17 23 10l53 -16q58 -19 129 -19q102 0 159.5 70t57.5 201v1014q0 18 18 18h101q18 0 18 -18v-1014q0 -184 -95 -290.5t-259 -106.5q-93 0 -166 24l-55 19q-19 6 -13 24z" />
<glyph unicode="&#x409;" horiz-adv-x="2117" d="M43 74q-6 16 10 22l78 27q152 51 152 264v1004q0 18 18 18h870q19 0 19 -18v-588h278q255 0 399 -110t144 -304q0 -183 -118 -286t-330 -103h-492q-18 0 -18 18v1268h-633v-899q0 -153 -61 -245.5t-189 -135.5l-78 -26q-18 -6 -24 12zM1190 123h373q147 0 229 70t82 196 q0 137 -108 214t-298 77h-278v-557z" />
<glyph unicode="&#x40a;" horiz-adv-x="2066" d="M180 18v1373q0 18 19 18h98q18 0 18 -18v-588h689v588q0 18 18 18h98q19 0 19 -18v-588h278q255 0 399 -110t144 -304q0 -183 -118 -286t-329 -103h-491q-18 0 -18 18v662h-689v-662q0 -18 -18 -18h-98q-19 0 -19 18zM1139 123h374q146 0 228 70t82 196q0 137 -108 214 t-298 77h-278v-557z" />
<glyph unicode="&#x40b;" horiz-adv-x="1556" d="M39 1305v86q0 18 18 18h1076q18 0 18 -18v-86q0 -19 -18 -19h-525v-510l127 45q125 45 266 45q192 0 299 -120t107 -334v-394q0 -18 -18 -18h-99q-18 0 -18 18v383q0 158 -75.5 248t-207.5 90q-126 0 -225 -37l-156 -57v-627q0 -18 -18 -18h-98q-19 0 -19 18v1268h-416 q-18 0 -18 19z" />
<glyph unicode="&#x40c;" horiz-adv-x="1296" d="M180 18v1373q0 18 19 18h98q18 0 18 -18v-607h47q85 0 171 46.5t148.5 109t117.5 141.5l231 316q9 12 23 12h112q11 0 14.5 -7t-3.5 -16l-263 -370q-67 -95 -155.5 -171t-161.5 -106q-27 -12 0 -24q169 -67 334 -297l274 -395q7 -9 4 -16t-14 -7h-117q-13 0 -22 12 l-238 338q-91 134 -207 223t-243 89h-52v-644q0 -18 -18 -18h-98q-19 0 -19 18zM567.5 1579.5q-3.5 6.5 3.5 15.5l160 187q7 10 23 10h139q12 0 14.5 -7t-6.5 -16l-199 -188q-11 -8 -22 -8h-98q-11 0 -14.5 6.5z" />
<glyph unicode="&#x40e;" horiz-adv-x="1345" d="M79.5 1402.5q3.5 6.5 14.5 6.5h109q14 0 20 -12l357 -688q71 -132 94 -230q2 -8 7 -11t11 -0.5t10 11.5q49 131 97 230l338 686q6 14 20 14h107q11 0 14.5 -6.5t-0.5 -16.5l-504 -1030q-18 -37 -28.5 -58t-30 -56t-33.5 -55.5t-36.5 -49t-43 -46t-48 -37t-56 -30 t-64 -17.5t-74.5 -7h-75q-19 0 -19 18v86q0 19 19 19h75q97 0 157.5 65.5t60.5 147.5q0 51 -15 102t-65 148l-416 800q-6 10 -2.5 16.5zM438 1808v52q0 18 19 18h71q19 0 19 -18v-52q0 -56 34.5 -86t98.5 -30t98.5 30t34.5 86v52q0 18 18 18h72q19 0 19 -18v-52 q0 -101 -64 -158t-178 -57t-178 57t-64 158z" />
<glyph unicode="&#x40f;" horiz-adv-x="1388" d="M180 20v1373q0 18 19 18h98q18 0 18 -18v-1268h758v1268q0 18 19 18h98q18 0 18 -18v-1373q0 -18 -18 -18h-430v-364q0 -19 -19 -19h-94q-18 0 -18 19v364h-430q-19 0 -19 18z" />
<glyph unicode="&#x410;" horiz-adv-x="1425" d="M90 20l422 1020q71 179 119 353q3 16 20 16h121q18 0 21 -16q43 -155 120 -353l420 -1020q3 -9 -1 -14.5t-13 -5.5h-105q-16 0 -22 14l-139 344h-680l-140 -344q-6 -14 -22 -14h-107q-9 0 -13 5.5t-1 14.5zM424 483h577l-188 453q-62 153 -88 272q-2 9 -7.5 12t-11.5 0 t-8 -12q-22 -113 -88 -272z" />
<glyph unicode="&#x411;" horiz-adv-x="1316" d="M180 18v1373q0 18 19 18h888q11 0 15.5 -5.5t1.5 -14.5l-25 -86q-3 -17 -20 -17h-744v-469h383q238 0 372 -108.5t134 -300.5q0 -193 -115 -300.5t-321 -107.5h-569q-19 0 -19 18zM315 123h451q141 0 220 75.5t79 209.5q0 135 -96.5 210.5t-268.5 75.5h-385v-571z" />
<glyph unicode="&#x412;" horiz-adv-x="1323" d="M180 18v1373q0 18 19 18h544q197 0 308.5 -90.5t111.5 -251.5q0 -118 -57.5 -202.5t-157.5 -121.5q-12 -3 -16.5 -8.5t0 -11.5t16.5 -10q121 -30 191.5 -118.5t70.5 -225.5q0 -175 -115.5 -272t-322.5 -97h-573q-19 0 -19 18zM315 123h457q140 0 219.5 67t79.5 187 q0 141 -104 213t-305 72h-347v-539zM315 784h338q179 0 276 73t97 200q0 106 -76 167.5t-207 61.5h-428v-502z" />
<glyph unicode="&#x413;" horiz-adv-x="1163" d="M180 18v1373q0 18 19 18h845q11 0 15.5 -5.5t1.5 -14.5l-25 -86q-3 -17 -20 -17h-701v-1268q0 -18 -18 -18h-98q-19 0 -19 18z" />
<glyph unicode="&#x414;" horiz-adv-x="1513" d="M84 104q0 19 18 19h93l88 188q69 153 69 371v709q0 18 19 18h882q19 0 19 -18v-1268h112q19 0 19 -19v-466q0 -19 -19 -19h-94q-18 0 -18 19v362h-1057v-362q0 -19 -18 -19h-95q-18 0 -18 19v466zM340 123h797v1163h-650v-604q0 -250 -84 -422z" />
<glyph unicode="&#x415;" horiz-adv-x="1228" d="M180 18v1373q0 18 19 18h895q23 0 16 -20l-27 -86q-3 -17 -20 -17h-748v-502h637q19 0 19 -18v-86q0 -18 -19 -18h-637v-539h787q18 0 18 -19v-86q0 -18 -18 -18h-903q-19 0 -19 18z" />
<glyph unicode="&#x416;" horiz-adv-x="1896" d="M114 7q-3 7 3 16l248 405q152 229 284 285q12 6 12 13t-12 11q-63 30 -137 101t-133 161l-240 387q-6 9 -2.5 16t15.5 7h108q14 0 23 -12l202 -316q190 -297 353 -297h43v607q0 18 18 18h98q19 0 19 -18v-607h43q164 0 354 297l203 316q9 12 22 12h109q12 0 15 -7t-3 -16 l-239 -387q-59 -90 -133.5 -161t-139.5 -101q-11 -5 -11 -11.5t11 -12.5q137 -57 285 -285l248 -405q6 -9 2.5 -16t-15.5 -7h-108q-14 0 -23 12l-213 338q-33 53 -57.5 89.5t-62.5 82t-72.5 73.5t-79 47.5t-90.5 19.5h-45v-644q0 -18 -19 -18h-98q-18 0 -18 18v644h-45 q-56 0 -108.5 -26.5t-99 -77t-80.5 -97t-73 -111.5l-213 -338q-9 -12 -22 -12h-111q-12 0 -15 7z" />
<glyph unicode="&#x417;" horiz-adv-x="1245" d="M131 84l31 84q6 15 22 12l115 -35q141 -41 299 -41q175 0 280 74t105 201q0 93 -53.5 158.5t-139.5 95t-198 29.5h-180q-19 0 -19 18v86q0 18 19 18h180q153 0 249.5 75.5t96.5 187.5q0 117 -92 187.5t-244 70.5q-180 0 -301 -39l-100 -31q-19 -6 -25 12l-26 84 q-6 19 12 25l98 28q154 48 344 48q213 0 342 -103.5t129 -273.5q0 -101 -59 -184t-168 -130q-11 -4 -14.5 -9t0.5 -9.5t14 -7.5q127 -41 199.5 -132t72.5 -210q0 -179 -142 -286t-378 -107q-182 0 -342 45l-115 34q-18 6 -12 25z" />
<glyph unicode="&#x418;" horiz-adv-x="1439" d="M180 18v1373q0 18 19 18h100q18 0 18 -18v-971q0 -106 -14 -195q-3 -15 8 -18.5t17 10.5q23 51 67 121l584 856q76 119 115 201q6 14 20 14h127q19 0 19 -18v-1373q0 -18 -19 -18h-98q-19 0 -19 18v971q0 119 15 195q3 14 -8 17.5t-17 -9.5q-27 -64 -67 -123l-584 -856 q-51 -77 -115 -199q-6 -14 -20 -14h-129q-19 0 -19 18z" />
<glyph unicode="&#x419;" horiz-adv-x="1439" d="M180 18v1373q0 18 19 18h100q18 0 18 -18v-971q0 -106 -14 -195q-3 -15 8 -18.5t17 10.5q23 51 67 121l584 856q76 119 115 201q6 14 20 14h127q19 0 19 -18v-1373q0 -18 -19 -18h-98q-19 0 -19 18v971q0 119 15 195q3 14 -8 17.5t-17 -9.5q-27 -64 -67 -123l-584 -856 q-51 -77 -115 -199q-6 -14 -20 -14h-129q-19 0 -19 18zM485 1749v25q0 18 19 18h76q18 0 18 -18v-23q0 -98 133 -98q64 0 98.5 25.5t34.5 72.5v23q0 18 19 18h75q19 0 19 -18v-25q0 -199 -246 -199t-246 199z" />
<glyph unicode="&#x41a;" horiz-adv-x="1296" d="M180 18v1373q0 18 19 18h98q18 0 18 -18v-607h47q85 0 171 46.5t148.5 109t117.5 141.5l231 316q9 12 23 12h112q11 0 14.5 -7t-3.5 -16l-263 -370q-67 -95 -155.5 -171t-161.5 -106q-27 -12 0 -24q169 -67 334 -297l274 -395q7 -9 4 -16t-14 -7h-117q-13 0 -22 12 l-238 338q-91 134 -207 223t-243 89h-52v-644q0 -18 -18 -18h-98q-19 0 -19 18z" />
<glyph unicode="&#x41b;" horiz-adv-x="1433" d="M45 59q-9 16 6 27l74 45q107 69 158 208.5t51 365.5v686q0 18 18 18h883q18 0 18 -18v-1373q0 -18 -18 -18h-98q-19 0 -19 18v1268h-649v-581q0 -260 -69.5 -425.5t-217.5 -256.5l-71 -46q-18 -11 -25 7z" />
<glyph unicode="&#x41c;" horiz-adv-x="1644" d="M180 18v1373q0 18 19 18h161q18 0 21 -16q26 -84 63 -162l304 -670q37 -90 59 -168q5 -15 15 -15t14 15q31 100 59 166l305 672q42 90 62 162q3 16 20 16h164q18 0 18 -18v-1373q0 -18 -18 -18h-100q-19 0 -19 18v893q0 158 14 273q2 19 -9 22.5t-17 -16.5 q-26 -72 -68 -164l-278 -606q-35 -81 -78 -203q-3 -14 -21 -14h-96q-17 0 -20 14q-48 138 -80 203l-275 604q-14 28 -71 166q-4 13 -10.5 16t-11 -3.5t-3.5 -18.5q12 -123 12 -273v-893q0 -18 -18 -18h-98q-19 0 -19 18z" />
<glyph unicode="&#x41d;" horiz-adv-x="1413" d="M180 18v1373q0 18 19 18h98q18 0 18 -18v-607h781v607q0 18 18 18h100q19 0 19 -18v-1373q0 -18 -19 -18h-100q-18 0 -18 18v644h-781v-644q0 -18 -18 -18h-98q-19 0 -19 18z" />
<glyph unicode="&#x41e;" horiz-adv-x="1415" d="M115 705q0 336 159 531.5t435 195.5q274 0 432.5 -196t158.5 -531t-158 -530t-433 -195q-276 0 -435 195t-159 530zM254 705q0 -282 120 -440.5t335 -158.5t333.5 158.5t118.5 440.5t-118.5 440t-333.5 158t-335 -158t-120 -440z" />
<glyph unicode="&#x41f;" horiz-adv-x="1388" d="M180 18v1373q0 18 19 18h991q18 0 18 -18v-1373q0 -18 -18 -18h-98q-19 0 -19 18v1268h-758v-1268q0 -18 -18 -18h-98q-19 0 -19 18z" />
<glyph unicode="&#x420;" horiz-adv-x="1269" d="M180 18v1373q0 18 19 18h495q221 0 344 -112t123 -312q0 -216 -147 -329t-434 -113h-265v-525q0 -18 -18 -18h-98q-19 0 -19 18zM315 666h265q221 0 331.5 81t110.5 238q0 142 -87 221.5t-241 79.5h-379v-620z" />
<glyph unicode="&#x421;" d="M115 705q0 338 159.5 532.5t438.5 194.5q87 0 149 -11t142 -41l86 -30q17 -7 10 -23l-29 -84q-6 -18 -24 -12l-86 33q-61 23 -115 31t-133 8q-218 0 -338.5 -157.5t-120.5 -440.5q0 -282 120.5 -440.5t338.5 -158.5q127 0 252 46l84 28q16 6 22 -10l31 -84q7 -16 -10 -23 l-84 -30q-83 -30 -146.5 -41.5t-148.5 -11.5q-279 0 -438.5 194.5t-159.5 530.5z" />
<glyph unicode="&#x422;" horiz-adv-x="1280" d="M88 1305v86q0 18 18 18h1068q18 0 18 -18v-86q0 -19 -18 -19h-465v-1268q0 -18 -19 -18h-100q-19 0 -19 18v1268h-465q-18 0 -18 19z" />
<glyph unicode="&#x423;" horiz-adv-x="1345" d="M79.5 1402.5q3.5 6.5 14.5 6.5h109q14 0 20 -12l357 -688q71 -132 94 -230q2 -8 7 -11t11 -0.5t10 11.5q49 131 97 230l338 686q6 14 20 14h107q11 0 14.5 -6.5t-0.5 -16.5l-504 -1030q-18 -37 -28.5 -58t-30 -56t-33.5 -55.5t-36.5 -49t-43 -46t-48 -37t-56 -30 t-64 -17.5t-74.5 -7h-75q-19 0 -19 18v86q0 19 19 19h75q97 0 157.5 65.5t60.5 147.5q0 51 -15 102t-65 148l-416 800q-6 10 -2.5 16.5z" />
<glyph unicode="&#x424;" horiz-adv-x="1714" d="M104 713q0 244 138 380t383 136h166v162q0 18 18 18h98q19 0 19 -18v-162h164q246 0 383 -136t137 -380q0 -243 -137 -379.5t-383 -136.5h-164v-179q0 -18 -19 -18h-98q-18 0 -18 18v179h-166q-245 0 -383 136.5t-138 379.5zM244 713q0 -185 101.5 -289.5t279.5 -104.5 h166v787h-166q-179 0 -280 -103.5t-101 -289.5zM926 319h164q180 0 280 104.5t100 289.5q0 186 -100 289.5t-280 103.5h-164v-787z" />
<glyph unicode="&#x425;" horiz-adv-x="1353" d="M126.5 7q-3.5 7 2.5 16l383 591q36 65 76 86q6 5 6.5 12.5t-6.5 12.5q-38 21 -74 86l-373 575q-6 9 -2 16t15 7h110q14 0 23 -12l372 -576q7 -13 17 -13t18 13l371 576q9 12 22 12h113q11 0 14.5 -7t-2.5 -16l-370 -575q-44 -67 -76 -86q-8 -5 -8 -13t8 -12 q39 -21 76 -86l381 -591q6 -9 2 -16t-15 -7h-112q-14 0 -23 12l-381 596q-16 25 -35 0l-383 -596q-9 -12 -22 -12h-113q-11 0 -14.5 7z" />
<glyph unicode="&#x426;" horiz-adv-x="1449" d="M180 18v1373q0 18 19 18h98q18 0 18 -18v-1268h758v1268q0 18 19 18h98q18 0 18 -18v-1268h113q18 0 18 -19v-466q0 -19 -18 -19h-94q-19 0 -19 19v362h-1009q-19 0 -19 18z" />
<glyph unicode="&#x427;" horiz-adv-x="1314" d="M133 961v430q0 18 19 18h100q18 0 18 -18v-416q0 -163 81 -252.5t227 -89.5q137 0 247 37l174 57v664q0 18 19 18h98q19 0 19 -18v-1373q0 -18 -19 -18h-98q-19 0 -19 18v578l-139 -47q-136 -43 -289 -43q-207 0 -322.5 120t-115.5 335z" />
<glyph unicode="&#x428;" horiz-adv-x="1935" d="M180 18v1373q0 18 19 18h98q18 0 18 -18v-1268h584v1268q0 18 19 18h100q18 0 18 -18v-1268h584v1268q0 18 18 18h99q18 0 18 -18v-1373q0 -18 -18 -18h-1538q-19 0 -19 18z" />
<glyph unicode="&#x429;" horiz-adv-x="1996" d="M180 18v1373q0 18 19 18h98q18 0 18 -18v-1268h584v1268q0 18 19 18h100q18 0 18 -18v-1268h584v1268q0 18 18 18h99q18 0 18 -18v-1268h113q18 0 18 -19v-466q0 -19 -18 -19h-94q-19 0 -19 19v362h-1556q-19 0 -19 18z" />
<glyph unicode="&#x42a;" horiz-adv-x="1550" d="M39 1305v86q0 18 18 18h525q18 0 18 -18v-525h264q287 0 434.5 -113t147.5 -329q0 -200 -123 -312t-344 -112h-496q-18 0 -18 18v1268h-408q-18 0 -18 19zM600 123h379q154 0 241 79.5t87 221.5q0 157 -111 238t-332 81h-264v-620z" />
<glyph unicode="&#x42b;" horiz-adv-x="1693" d="M180 18v1373q0 18 19 18h98q18 0 18 -18v-525h265q287 0 434 -113t147 -329q0 -200 -123 -312t-344 -112h-495q-19 0 -19 18zM315 123h379q154 0 241 79.5t87 221.5q0 157 -110.5 238t-331.5 81h-265v-620zM1378 18v1373q0 18 19 18h98q18 0 18 -18v-1373q0 -18 -18 -18 h-98q-19 0 -19 18z" />
<glyph unicode="&#x42c;" horiz-adv-x="1265" d="M180 18v1373q0 18 19 18h98q18 0 18 -18v-525h265q287 0 434 -113t147 -329q0 -200 -123 -312t-344 -112h-495q-19 0 -19 18zM315 123h379q154 0 241 79.5t87 221.5q0 157 -110.5 238t-331.5 81h-265v-620z" />
<glyph unicode="&#x42d;" d="M133 86l31 84q6 16 22 10l84 -28q125 -46 252 -46q209 0 329.5 147t129.5 409h-653q-19 0 -19 18v86q0 18 19 18h651q-17 247 -136 383t-321 136q-79 0 -133 -8t-115 -31l-86 -33q-18 -6 -24 12l-29 84q-7 16 10 23l86 30q80 30 142 41t149 11q279 0 438.5 -194.5 t159.5 -532.5q0 -336 -159.5 -530.5t-438.5 -194.5q-85 0 -148.5 11.5t-146.5 41.5l-84 30q-17 7 -10 23z" />
<glyph unicode="&#x42e;" horiz-adv-x="1896" d="M180 18v1373q0 18 19 18h98q18 0 18 -18v-607h281q20 301 177 474.5t415 173.5q275 0 433.5 -196t158.5 -531t-158.5 -530t-433.5 -195q-267 0 -425 182.5t-169 499.5h-279v-644q0 -18 -18 -18h-98q-19 0 -19 18zM733 705q0 -282 120 -440.5t335 -158.5t333.5 158.5 t118.5 440.5t-118.5 440t-333.5 158t-335 -158t-120 -440z" />
<glyph unicode="&#x42f;" horiz-adv-x="1345" d="M118.5 6q-3.5 6 0.5 17l149 350q80 188 211 252q39 19 -2 32q-144 47 -222.5 140.5t-78.5 230.5q0 180 115 280.5t319 100.5h537q18 0 18 -18v-1373q0 -18 -18 -18h-98q-19 0 -19 18v584h-235q-151 0 -247.5 -67t-156.5 -213l-133 -308q-6 -14 -20 -14h-107q-9 0 -12.5 6 zM313 1022q0 -141 110.5 -219t311.5 -78h295v561h-420q-139 0 -218 -70t-79 -194z" />
<glyph unicode="&#x430;" horiz-adv-x="1036" d="M92 274q0 137 94 218.5t267 82.5h309v27q0 131 -71.5 203t-203.5 72q-106 0 -186 -25l-72 -21q-18 -6 -24 13l-23 80q-6 18 13 24l75 23q98 30 219 30q188 0 297 -106t109 -291v-586q0 -18 -18 -18h-64q-17 0 -20 18l-7 93q-9 39 -41 2q-106 -133 -325 -133 q-155 0 -241.5 78.5t-86.5 215.5zM225 283q0 -87 53.5 -135t151.5 -48q158 0 245 87t87 247v27h-309q-113 0 -170.5 -47.5t-57.5 -130.5z" />
<glyph unicode="&#x431;" horiz-adv-x="1130" d="M133 467v348q0 209 93.5 339t291.5 196l340 112q19 6 25 -12l24 -82q6 -16 -10 -22l-340 -115q-145 -50 -217.5 -142t-79.5 -239q-3 -24 8.5 -31.5t28.5 10.5q57 60 134 93.5t165 33.5q197 0 313.5 -131.5t116.5 -355.5q0 -226 -120 -357.5t-326 -131.5q-207 0 -327 130 t-120 357zM266 467q0 -171 83.5 -267t230.5 -96q148 0 231.5 96t83.5 267q0 173 -83.5 268.5t-231.5 95.5q-147 0 -230.5 -96t-83.5 -268z" />
<glyph unicode="&#x432;" horiz-adv-x="1040" d="M160 18v945q0 18 18 18h404q151 0 236 -68t85 -188q0 -80 -39.5 -134t-101.5 -79q-14 -5 -14.5 -12.5t12.5 -12.5q74 -19 126 -77t52 -148q0 -123 -88 -192.5t-246 -69.5h-426q-18 0 -18 18zM291 121h315q95 0 147 40t52 111q0 78 -70 121t-200 43h-244v-315zM291 555 h237q117 0 179.5 41.5t62.5 118.5q0 69 -47.5 107t-132.5 38h-299v-305z" />
<glyph unicode="&#x433;" horiz-adv-x="894" d="M160 18v945q0 18 18 18h613q23 0 16 -20l-25 -84q-3 -17 -20 -17h-469v-842q0 -18 -19 -18h-96q-18 0 -18 18z" />
<glyph unicode="&#x434;" horiz-adv-x="1185" d="M68 102q0 19 18 19h76l53 123q51 114 51 254v465q0 18 19 18h684q18 0 18 -18v-842h88q19 0 19 -19v-395q0 -18 -19 -18h-90q-18 0 -18 18v293h-774v-293q0 -18 -19 -18h-88q-18 0 -18 18v395zM303 121h551v739h-455v-362q0 -157 -59 -287z" />
<glyph unicode="&#x435;" horiz-adv-x="1024" d="M102 492q0 235 120 372t329 137q174 0 272.5 -80.5t98.5 -222.5q0 -212 -275 -258l-399 -65q20 -130 100 -201.5t205 -71.5q105 0 190 27l62 18q18 3 24 -14l25 -82q3 -19 -14 -22l-66 -19q-94 -30 -221 -30q-211 0 -331 137.5t-120 374.5zM238 487l387 66 q163 27 163 143q0 87 -62.5 135t-176.5 48q-145 0 -226 -99t-85 -293z" />
<glyph unicode="&#x436;" horiz-adv-x="1507" d="M114.5 7q-3.5 7 2.5 16l178 276q90 144 197 190q7 2 9.5 5.5t0 6.5t-9.5 5q-44 20 -95 71t-92 115l-174 266q-6 9 -2.5 16t14.5 7h111q13 0 22 -12l140 -213q132 -199 241 -199h31v406q0 18 19 18h94q18 0 18 -18v-406h29q107 0 244 199l139 213q9 12 22 12h109 q11 0 14.5 -7t-2.5 -16l-174 -266q-42 -65 -91.5 -116t-94.5 -70q-9 -3 -9 -8.5t9 -8.5q56 -24 102 -69.5t96 -120.5l179 -276q6 -9 2 -16t-15 -7h-108q-14 0 -23 12l-155 242q-121 180 -240 180h-33v-416q0 -18 -18 -18h-94q-19 0 -19 18v416h-35q-118 0 -237 -180 l-156 -242q-9 -12 -22 -12h-109q-11 0 -14.5 7z" />
<glyph unicode="&#x437;" horiz-adv-x="966" d="M111 57l24 82q3 18 23 15l86 -23q114 -29 219 -29q120 0 194 47t74 125q0 75 -76 119.5t-192 44.5h-127q-19 0 -19 19v80q0 18 19 18h125q107 0 171 44t64 120q0 70 -63.5 115t-165.5 45q-114 0 -223 -25l-74 -20q-20 -3 -23 14l-22 82q-6 19 12 22l76 21q115 28 252 28 q165 0 263.5 -74.5t98.5 -197.5q0 -73 -39 -132t-120 -85q-12 -3 -12 -10t12 -10q90 -27 143 -86.5t53 -143.5q0 -128 -108.5 -205t-292.5 -77q-115 0 -250 32l-90 23q-18 3 -12 22z" />
<glyph unicode="&#x438;" horiz-adv-x="1136" d="M160 18v945q0 18 18 18h96q19 0 19 -18v-586q0 -97 -12 -176q-2 -12 6 -14t12 10q6 12 55 96l377 530q45 70 78 144q6 14 20 14h132q18 0 18 -18v-945q0 -18 -18 -18h-97q-18 0 -18 18v586q0 112 12 176q2 11 -6 14.5t-12 -8.5q-21 -46 -58 -100l-376 -532 q-48 -68 -80 -140q-6 -14 -21 -14h-127q-18 0 -18 18z" />
<glyph unicode="&#x439;" horiz-adv-x="1136" d="M160 18v945q0 18 18 18h96q19 0 19 -18v-586q0 -97 -12 -176q-2 -12 6 -14t12 10q6 12 55 96l377 530q45 70 78 144q6 14 20 14h132q18 0 18 -18v-945q0 -18 -18 -18h-97q-18 0 -18 18v586q0 112 12 176q2 11 -6 14.5t-12 -8.5q-21 -46 -58 -100l-376 -532 q-48 -68 -80 -140q-6 -14 -21 -14h-127q-18 0 -18 18zM330 1378v52q0 18 18 18h72q18 0 18 -18v-52q0 -56 34.5 -86t98.5 -30t99 30t35 86v52q0 18 18 18h72q18 0 18 -18v-52q0 -101 -64 -158t-178 -57t-177.5 57t-63.5 158z" />
<glyph unicode="&#x43a;" horiz-adv-x="1028" d="M160 18v945q0 18 18 18h96q19 0 19 -18v-406h39q39 0 75 15t69.5 45t57 56t56.5 66l12 15l170 217q10 10 23 10h112q12 0 15.5 -7t-2.5 -16l-201 -262q-118 -154 -203 -186q-19 -10 0 -18q94 -37 215 -193l205 -276q6 -9 3 -16t-15 -7h-113q-13 0 -23 10l-178 236 q-31 40 -45.5 58t-44.5 48.5t-53.5 44.5t-58 25.5t-72.5 11.5h-43v-416q0 -18 -19 -18h-96q-18 0 -18 18z" />
<glyph unicode="&#x43b;" horiz-adv-x="1157" d="M51 68q-8 14 8 24l56 29q83 46 122 135.5t39 232.5v474q0 18 19 18h684q18 0 18 -18v-945q0 -18 -18 -18h-96q-19 0 -19 18v842h-454v-371q0 -181 -58.5 -296.5t-181.5 -180.5l-53 -30q-16 -7 -25 8z" />
<glyph unicode="&#x43c;" horiz-adv-x="1300" d="M160 18v945q0 18 18 18h154q17 0 20 -16q13 -45 43 -111l201 -399q36 -87 45 -123q2 -9 5.5 -12t7 0t5.5 12q8 29 46 123l202 399q25 54 41 111q3 16 21 16h153q19 0 19 -18v-945q0 -18 -19 -18h-96q-18 0 -18 18v525q0 149 10 239q2 14 -6.5 16.5t-12.5 -10.5 q-20 -49 -51 -116l-192 -383q-30 -69 -49 -125q-3 -14 -21 -14h-74q-17 0 -20 14q-20 66 -49 125l-193 383q-31 66 -51 116q-4 13 -12.5 10.5t-5.5 -16.5q12 -108 12 -239v-525q0 -18 -19 -18h-96q-18 0 -18 18z" />
<glyph unicode="&#x43d;" horiz-adv-x="1116" d="M160 18v945q0 18 18 18h96q19 0 19 -18v-406h532v406q0 18 19 18h96q18 0 18 -18v-945q0 -18 -18 -18h-96q-19 0 -19 18v416h-532v-416q0 -18 -19 -18h-96q-18 0 -18 18z" />
<glyph unicode="&#x43e;" horiz-adv-x="1099" d="M102 492q0 235 120 372t327 137t326.5 -137t119.5 -372q0 -237 -119.5 -374.5t-326.5 -137.5t-327 138t-120 374zM236 492q0 -183 82.5 -286.5t230.5 -103.5t231.5 103.5t83.5 286.5q0 182 -83.5 284.5t-231.5 102.5t-230.5 -102.5t-82.5 -284.5z" />
<glyph unicode="&#x43f;" horiz-adv-x="1105" d="M160 18v945q0 18 18 18h750q18 0 18 -18v-945q0 -18 -18 -18h-97q-18 0 -18 18v842h-520v-842q0 -18 -19 -18h-96q-18 0 -18 18z" />
<glyph unicode="&#x440;" horiz-adv-x="1132" d="M160 -414v1377q0 18 18 18h64q17 0 20 -18l8 -123q3 -14 11.5 -14.5t17.5 12.5q117 163 313 163t307 -136t111 -373q0 -239 -117 -375.5t-325 -136.5q-131 0 -234 49l-61 28v-471q0 -18 -19 -18h-96q-18 0 -18 18zM291 186l84 -41q90 -43 209 -43q148 0 230.5 103.5 t82.5 286.5q0 181 -79 284t-220 103q-147 0 -227 -114t-80 -296v-283z" />
<glyph unicode="&#x441;" horiz-adv-x="956" d="M102 492q0 238 120.5 373.5t344.5 135.5q89 0 191 -30l63 -19q19 -3 13 -22l-27 -82q-6 -15 -23 -12l-57 16q-80 27 -158 27q-165 0 -249 -101.5t-84 -285.5q0 -185 84 -287.5t245 -102.5q76 0 174 29l58 16q18 6 24 -12l25 -80q6 -18 -12 -24l-66 -19q-106 -32 -203 -32 q-222 0 -342.5 136.5t-120.5 375.5z" />
<glyph unicode="&#x442;" horiz-adv-x="1009" d="M84 879v84q0 18 18 18h803q19 0 19 -18v-84q0 -19 -19 -19h-336v-842q0 -18 -18 -18h-94q-19 0 -19 18v842h-336q-18 0 -18 19z" />
<glyph unicode="&#x443;" horiz-adv-x="1114" d="M81.5 974.5q3.5 6.5 14.5 6.5h103q14 0 20 -14l262 -551q52 -113 68 -203q5 -13 15 -13t14 13q21 82 71 203l246 551q6 14 20 14h103q11 0 14.5 -6.5t-0.5 -16.5l-508 -1144q-54 -127 -131.5 -186.5t-189.5 -59.5h-56q-18 0 -18 18v84q0 19 18 19h54q64 0 108 33t78 106 l55 125q30 69 19 146t-62 184l-317 675q-4 10 -0.5 16.5z" />
<glyph unicode="&#x444;" horiz-adv-x="1615" d="M113 492q0 237 101 373t282 136q106 0 194 -49l51 -28v506q0 18 19 18h96q18 0 18 -18v-506l52 28q88 49 194 49q179 0 280 -136t101 -373q0 -239 -101 -375.5t-280 -136.5q-106 0 -194 49l-52 28v-471q0 -18 -18 -18h-96q-19 0 -19 18v471l-51 -28q-94 -49 -194 -49 q-181 0 -282 136.5t-101 375.5zM246 492q0 -184 67.5 -287t188.5 -103q96 0 172 43l67 41v609l-67 39q-74 45 -172 45q-121 0 -188.5 -103t-67.5 -284zM872 186l70 -41q78 -43 172 -43q121 0 187.5 103t66.5 287q0 181 -66.5 284t-187.5 103q-96 0 -172 -45l-70 -39v-609z " />
<glyph unicode="&#x445;" horiz-adv-x="1060" d="M105 7q-3 7 4 16l278 405q24 38 47 55q15 10 15 13q0 4 -7 8q-27 20 -55 61l-270 393q-7 9 -4 16t14 7h111q13 0 22 -12l256 -371q9 -16 21 -8q2 2 12 16l252 363q9 12 22 12h109q11 0 14 -7t-4 -16l-270 -393q-34 -49 -56 -61q-6 -3 -6 -6q-1 -2 0 -4t3 -3.5t4 -2.5 t5.5 -2.5t4.5 -2.5q25 -22 45 -55l278 -405q7 -9 4 -16t-14 -7h-111q-13 0 -22 12l-264 381q-12 18 -27 0l-264 -381q-9 -12 -23 -12h-110q-11 0 -14 7z" />
<glyph unicode="&#x446;" horiz-adv-x="1144" d="M160 18v945q0 18 18 18h96q19 0 19 -18v-842h520v842q0 18 18 18h97q18 0 18 -18v-842h88q19 0 19 -19v-395q0 -18 -19 -18h-88q-18 0 -18 18v293h-750q-18 0 -18 18z" />
<glyph unicode="&#x447;" horiz-adv-x="1050" d="M113 659v304q0 18 18 18h96q19 0 19 -18v-289q0 -100 57.5 -155.5t161.5 -55.5q97 0 170 22l123 37v441q0 18 18 18h96q19 0 19 -18v-945q0 -18 -19 -18h-96q-18 0 -18 18v377l-94 -26q-102 -31 -211 -31q-160 0 -250 85t-90 236z" />
<glyph unicode="&#x448;" horiz-adv-x="1497" d="M160 18v945q0 18 18 18h96q19 0 19 -18v-842h389v842q0 18 18 18h97q18 0 18 -18v-842h389v842q0 18 19 18h96q18 0 18 -18v-945q0 -18 -18 -18h-1141q-18 0 -18 18z" />
<glyph unicode="&#x449;" horiz-adv-x="1538" d="M160 18v945q0 18 18 18h96q19 0 19 -18v-842h389v842q0 18 18 18h97q18 0 18 -18v-842h389v842q0 18 19 18h96q18 0 18 -18v-842h88q19 0 19 -19v-395q0 -18 -19 -18h-88q-18 0 -18 18v293h-1141q-18 0 -18 18z" />
<glyph unicode="&#x44a;" horiz-adv-x="1196" d="M47 879v84q0 18 19 18h399q18 0 18 -18v-332h164q213 0 331 -86t118 -240q0 -145 -93 -225t-260 -80h-374q-19 0 -19 18v842h-284q-19 0 -19 19zM483 121h260q103 0 161.5 48.5t58.5 135.5q0 96 -83.5 150.5t-232.5 54.5h-164v-389z" />
<glyph unicode="&#x44b;" horiz-adv-x="1384" d="M160 18v945q0 18 18 18h96q19 0 19 -18v-332h164q213 0 330.5 -86t117.5 -240q0 -145 -92.5 -225t-259.5 -80h-375q-18 0 -18 18zM293 121h260q103 0 161 48.5t58 135.5q0 96 -83 150.5t-232 54.5h-164v-389zM1094 18v945q0 18 18 18h94q19 0 19 -18v-945q0 -18 -19 -18 h-94q-18 0 -18 18z" />
<glyph unicode="&#x44c;" horiz-adv-x="1005" d="M160 18v945q0 18 18 18h96q19 0 19 -18v-332h164q213 0 330.5 -86t117.5 -240q0 -145 -92.5 -225t-259.5 -80h-375q-18 0 -18 18zM293 121h260q103 0 161 48.5t58 135.5q0 96 -83 150.5t-232 54.5h-164v-389z" />
<glyph unicode="&#x44d;" horiz-adv-x="966" d="M121 53l24 82q6 18 25 12l57 -16q95 -29 174 -29q149 0 232 88t94 248h-444q-19 0 -19 19v80q0 18 19 18h444q-14 156 -97 240t-235 84q-77 0 -157 -27l-58 -16q-16 -3 -22 12l-27 82q-6 19 12 22l66 19q110 30 188 30q225 0 345 -135t120 -374t-120 -375.5t-341 -136.5 q-96 0 -202 32l-66 19q-18 3 -12 22z" />
<glyph unicode="&#x44e;" horiz-adv-x="1521" d="M160 18v945q0 18 18 18h96q19 0 19 -18v-406h235q17 206 135.5 325t309.5 119q207 0 326.5 -137t119.5 -372q0 -237 -119.5 -374.5t-326.5 -137.5q-195 0 -312.5 120.5t-132.5 333.5h-235v-416q0 -18 -19 -18h-96q-18 0 -18 18zM659 492q0 -183 83 -286.5t231 -103.5 t231.5 103.5t83.5 286.5q0 182 -83.5 284.5t-231.5 102.5t-231 -102.5t-83 -284.5z" />
<glyph unicode="&#x44f;" horiz-adv-x="1067" d="M106 6.5q-4 6.5 0 16.5l109 235q54 119 154 162q9 3 12 7t-0.5 8t-13.5 7q-101 30 -158 95t-57 161q0 133 90.5 208t251.5 75h397q18 0 18 -18v-945q0 -18 -18 -18h-96q-19 0 -19 18v371h-155q-107 0 -176.5 -45t-112.5 -139l-88 -191q-6 -14 -21 -14h-102q-11 0 -15 6.5 zM283 690q0 -88 73 -135t207 -47h213v352h-287q-96 0 -151 -46t-55 -124z" />
<glyph unicode="&#x450;" horiz-adv-x="1024" d="M102 492q0 235 120 372t329 137q174 0 272.5 -80.5t98.5 -222.5q0 -212 -275 -258l-399 -65q20 -130 100 -201.5t205 -71.5q105 0 190 27l62 18q18 3 24 -14l25 -82q3 -19 -14 -22l-66 -19q-94 -30 -221 -30q-211 0 -331 137.5t-120 374.5zM238 487l387 66 q163 27 163 143q0 87 -62.5 135t-176.5 48q-145 0 -226 -99t-85 -293zM302 1441q3 7 15 7h113q14 0 23 -12l155 -232q6 -9 2.5 -15.5t-14.5 -6.5h-84q-13 0 -23 10l-182 233q-8 9 -5 16z" />
<glyph unicode="&#x451;" horiz-adv-x="1024" d="M102 492q0 235 120 372t329 137q174 0 272.5 -80.5t98.5 -222.5q0 -212 -275 -258l-399 -65q20 -130 100 -201.5t205 -71.5q105 0 190 27l62 18q18 3 24 -14l25 -82q3 -19 -14 -22l-66 -19q-94 -30 -221 -30q-211 0 -331 137.5t-120 374.5zM238 487l387 66 q163 27 163 143q0 87 -62.5 135t-176.5 48q-145 0 -226 -99t-85 -293zM287 1370q0 41 23 64.5t63 23.5q39 0 62.5 -23.5t23.5 -64.5t-23.5 -64.5t-62.5 -23.5q-40 0 -63 23.5t-23 64.5zM598 1370q0 41 23 64.5t63 23.5q39 0 62.5 -23.5t23.5 -64.5t-23.5 -64.5t-62.5 -23.5 q-40 0 -63 23.5t-23 64.5z" />
<glyph unicode="&#x452;" horiz-adv-x="1087" d="M41 1124v66q0 18 18 18h111v222q0 18 18 18h95q18 0 18 -18v-222h406q18 0 18 -18v-66q0 -18 -18 -18h-406v-311l92 28q103 33 238 33q157 0 246.5 -86t89.5 -238v-675q0 -146 -79.5 -229t-219.5 -83q-63 0 -133 23l-35 10q-19 6 -13 25l27 80q7 17 23 10l34 -10 q43 -13 97 -13q78 0 122 49.5t44 137.5v661q0 100 -58 157.5t-158 57.5q-106 0 -192 -26l-125 -37v-652q0 -18 -18 -18h-95q-18 0 -18 18v1088h-111q-18 0 -18 18z" />
<glyph unicode="&#x453;" horiz-adv-x="894" d="M160 18v945q0 18 18 18h613q23 0 16 -20l-25 -84q-3 -17 -20 -17h-469v-842q0 -18 -19 -18h-96q-18 0 -18 18zM397 1188.5q-4 6.5 2 15.5l156 232q9 12 23 12h112q12 0 15 -7t-5 -16l-182 -233q-10 -10 -22 -10h-84q-11 0 -15 6.5z" />
<glyph unicode="&#x454;" horiz-adv-x="966" d="M102 492q0 238 120.5 373.5t344.5 135.5q78 0 191 -30l63 -19q19 -3 13 -22l-27 -82q-6 -15 -23 -12l-57 16q-80 27 -158 27q-151 0 -234 -84.5t-97 -239.5h446q18 0 18 -18v-80q0 -19 -18 -19h-446q12 -161 95 -248.5t232 -87.5q76 0 174 29l58 16q19 6 22 -12l25 -82 q6 -19 -13 -22l-63 -19q-106 -32 -203 -32q-222 0 -342.5 136.5t-120.5 375.5z" />
<glyph unicode="&#x455;" horiz-adv-x="960" d="M111 70l28 82q7 17 23 10l53 -19q115 -41 272 -41q113 0 176.5 43.5t63.5 118.5q0 57 -33 92.5t-104 57.5l-240 67q-114 29 -167.5 91t-53.5 163q0 125 92.5 195.5t257.5 70.5q138 0 240 -30l80 -25q18 -6 12 -24l-23 -80q-6 -19 -24 -13l-78 23q-93 27 -205 27 q-103 0 -161 -39.5t-58 -104.5q0 -54 31 -88.5t100 -54.5l238 -68q118 -30 173.5 -94.5t55.5 -165.5q0 -134 -98 -209t-275 -75q-182 0 -309 47l-55 18q-18 6 -12 25z" />
<glyph unicode="&#x456;" horiz-adv-x="514" d="M109 879v84q0 18 18 18h209q18 0 18 -18v-945q0 -18 -18 -18h-96q-19 0 -19 18v842h-94q-18 0 -18 19zM176 1368q0 42 24 66t66 24q41 0 64.5 -23.5t23.5 -66.5t-23.5 -66.5t-64.5 -23.5q-42 0 -66 24t-24 66z" />
<glyph unicode="&#x457;" horiz-adv-x="514" d="M51 1374q0 41 23 64.5t63 23.5q39 0 62.5 -23.5t23.5 -64.5t-23.5 -64.5t-62.5 -23.5q-40 0 -63 23.5t-23 64.5zM109 879v84q0 18 18 18h209q18 0 18 -18v-945q0 -18 -18 -18h-96q-19 0 -19 18v842h-94q-18 0 -18 19zM305 1374q0 41 23 64.5t63 23.5q39 0 62.5 -23.5 t23.5 -64.5t-23.5 -64.5t-62.5 -23.5q-40 0 -63 23.5t-23 64.5z" />
<glyph unicode="&#x458;" horiz-adv-x="514" d="M68 -369q-7 17 6 25l59 45q88 62 88 180v979h-94q-18 0 -18 19v84q0 18 18 18h209q18 0 18 -18v-1082q0 -93 -36.5 -161.5t-114.5 -122.5l-62 -46q-16 -12 -26 5zM178 1368q0 43 23.5 66.5t64.5 23.5q43 0 65.5 -23.5t22.5 -66.5t-22.5 -66.5t-65.5 -23.5 q-41 0 -64.5 23.5t-23.5 66.5z" />
<glyph unicode="&#x459;" horiz-adv-x="1685" d="M51 68q-8 14 8 24l56 29q83 46 122 135.5t39 232.5v474q0 18 19 18h659q19 0 19 -18v-332h162q213 0 331.5 -86t118.5 -240q0 -145 -92.5 -225t-261.5 -80h-373q-18 0 -18 18v842h-430v-371q0 -181 -58.5 -296.5t-181.5 -180.5l-53 -30q-16 -7 -25 8zM973 121h258 q103 0 162 48.5t59 135.5q0 95 -84.5 150t-232.5 55h-162v-389z" />
<glyph unicode="&#x45a;" horiz-adv-x="1619" d="M160 18v945q0 18 18 18h96q19 0 19 -18v-381h481v381q0 18 19 18h96q18 0 18 -18v-381h236q178 0 277.5 -78.5t99.5 -218.5q0 -134 -89.5 -209.5t-248.5 -75.5h-389q-19 0 -19 18v443h-481v-443q0 -18 -19 -18h-96q-18 0 -18 18zM907 121h275q96 0 150 43.5t54 120.5 q0 83 -64 129.5t-179 46.5h-236v-340z" />
<glyph unicode="&#x45b;" horiz-adv-x="1087" d="M41 1124v66q0 18 18 18h111v222q0 18 18 18h95q18 0 18 -18v-222h406q18 0 18 -18v-66q0 -18 -18 -18h-406v-311l92 28q103 33 238 33q157 0 246.5 -86t89.5 -238v-514q0 -18 -19 -18h-96q-18 0 -18 18v500q0 100 -58 157.5t-158 57.5q-106 0 -192 -26l-125 -37v-652 q0 -18 -18 -18h-95q-18 0 -18 18v1088h-111q-18 0 -18 18z" />
<glyph unicode="&#x45c;" horiz-adv-x="1028" d="M160 18v945q0 18 18 18h96q19 0 19 -18v-406h39q39 0 75 15t69.5 45t57 56t56.5 66l12 15l170 217q10 10 23 10h112q12 0 15.5 -7t-2.5 -16l-201 -262q-118 -154 -203 -186q-19 -10 0 -18q94 -37 215 -193l205 -276q6 -9 3 -16t-15 -7h-113q-13 0 -23 10l-178 236 q-31 40 -45.5 58t-44.5 48.5t-53.5 44.5t-58 25.5t-72.5 11.5h-43v-416q0 -18 -19 -18h-96q-18 0 -18 18zM446.5 1188.5q-3.5 6.5 2.5 15.5l155 232q9 12 23 12h112q12 0 15.5 -7t-4.5 -16l-183 -233q-10 -10 -22 -10h-84q-11 0 -14.5 6.5z" />
<glyph unicode="&#x45e;" horiz-adv-x="1114" d="M81.5 974.5q3.5 6.5 14.5 6.5h103q14 0 20 -14l262 -551q52 -113 68 -203q5 -13 15 -13t14 13q21 82 71 203l246 551q6 14 20 14h103q11 0 14.5 -6.5t-0.5 -16.5l-508 -1144q-54 -127 -131.5 -186.5t-189.5 -59.5h-56q-18 0 -18 18v84q0 19 18 19h54q64 0 108 33t78 106 l55 125q30 69 19 146t-62 184l-317 675q-4 10 -0.5 16.5zM317 1378v52q0 18 19 18h72q18 0 18 -18v-52q0 -56 34.5 -86t98.5 -30t98.5 30t34.5 86v52q0 18 19 18h71q19 0 19 -18v-52q0 -101 -64 -158t-178 -57t-178 57t-64 158z" />
<glyph unicode="&#x45f;" horiz-adv-x="1105" d="M160 20v945q0 18 18 18h96q19 0 19 -18v-842h520v842q0 18 18 18h97q18 0 18 -18v-945q0 -18 -18 -18h-314v-295q0 -18 -18 -18h-88q-19 0 -19 18v295h-311q-18 0 -18 18z" />
<glyph unicode="&#x462;" horiz-adv-x="1468" d="M53 1092v86q0 18 19 18h301v195q0 18 18 18h98q19 0 19 -18v-195h360q19 0 19 -18v-86q0 -19 -19 -19h-360v-207h264q287 0 434.5 -113t147.5 -329q0 -200 -123 -312t-344 -112h-496q-18 0 -18 18v1055h-301q-19 0 -19 19zM508 123h379q154 0 240.5 79.5t86.5 221.5 q0 157 -110.5 238t-331.5 81h-264v-620z" />
<glyph unicode="&#x463;" horiz-adv-x="1153" d="M59 883v80q0 18 19 18h229v449q0 18 19 18h96q18 0 18 -18v-449h346q19 0 19 -18v-80q0 -19 -19 -19h-346v-233h166q212 0 329.5 -86t117.5 -240q0 -145 -92.5 -225t-260.5 -80h-374q-19 0 -19 18v846h-229q-19 0 -19 19zM440 121h260q104 0 162 48t58 136 q0 96 -83.5 150.5t-230.5 54.5h-166v-389z" />
<glyph unicode="&#x472;" horiz-adv-x="1415" d="M115 705q0 336 159 531.5t435 195.5q274 0 432.5 -196t158.5 -531t-158 -530t-433 -195q-276 0 -435 195t-159 530zM256 645q12 -252 131.5 -394t321.5 -142q208 0 326 148t126 413q-121 -66 -250 -66q-51 0 -108.5 17.5t-100.5 39t-97.5 39t-100.5 17.5q-125 0 -248 -72 zM256 776q121 66 248 66q51 0 108.5 -17.5t100.5 -39t97.5 -39t100.5 -17.5q119 0 246 72q-20 239 -137 370.5t-311 131.5q-201 0 -319.5 -138.5t-133.5 -388.5z" />
<glyph unicode="&#x473;" horiz-adv-x="1099" d="M102 492q0 235 120 372t327 137q209 0 328.5 -137t119.5 -372q0 -237 -119.5 -374.5t-328.5 -137.5q-207 0 -327 138t-120 374zM238 537q81 45 180 45q57 0 138 -29t128 -29q87 0 176 49q-19 145 -100 225.5t-211 80.5q-138 0 -220 -90.5t-91 -251.5zM240 416 q17 -150 97.5 -232t211.5 -82q139 0 222 93.5t91 257.5q-81 -47 -178 -47q-59 0 -139.5 28.5t-126.5 28.5q-86 0 -178 -47z" />
<glyph unicode="&#x474;" horiz-adv-x="1445" d="M80 1389q-3 9 1 14.5t13 5.5h107q16 0 22 -14l383 -924q50 -121 76 -256q1 -9 7 -12t11.5 0t6.5 12q24 127 75 256l322 762q37 94 91 135t144 41h33q19 0 19 -18v-86q0 -19 -19 -19h-33q-42 0 -65 -22.5t-47 -81.5l-340 -805q-69 -173 -113 -361q-3 -16 -20 -16h-117 q-18 0 -21 16q-51 204 -114 361z" />
<glyph unicode="&#x475;" horiz-adv-x="1118" d="M81.5 974.5q3.5 6.5 14.5 6.5h103q14 0 20 -14l230 -506q61 -150 83 -254q4 -13 14 -13t15 13q18 85 82 246l186 405q51 123 181 123h37q18 0 18 -18v-84q0 -19 -18 -19h-21q-54 0 -84 -65l-194 -428q-73 -169 -125 -351q-3 -16 -21 -16h-110q-18 0 -21 16 q-46 173 -123 351l-266 591q-4 10 -0.5 16.5z" />
<glyph unicode="&#x48a;" horiz-adv-x="1511" d="M180 18v1373q0 18 19 18h100q18 0 18 -18v-971q0 -106 -14 -195q-3 -15 8 -18.5t17 10.5q23 51 67 121l584 856q76 119 115 201q6 14 20 14h127q19 0 19 -18v-1268h120q9 0 13.5 -6t1.5 -15l-123 -467q-3 -16 -21 -16h-94q-9 0 -13 6t-1 15l94 360h-94q-19 0 -19 18v971 q0 119 15 195q3 14 -8 17.5t-17 -9.5q-27 -64 -67 -123l-584 -856q-51 -77 -115 -199q-6 -14 -20 -14h-129q-19 0 -19 18z" />
<glyph unicode="&#x48b;" horiz-adv-x="1198" d="M160 18v945q0 18 18 18h96q19 0 19 -18v-586q0 -97 -12 -176q-2 -12 6 -14t12 10q6 12 55 96l377 530q45 70 78 144q6 14 20 14h132q18 0 18 -18v-840h104q10 0 15 -6t2 -15l-115 -397q-3 -16 -20 -16h-86q-11 0 -15.5 5.5t-1.5 14.5l84 291h-82q-18 0 -18 18v586 q0 112 12 176q2 11 -6 14.5t-12 -8.5q-21 -46 -58 -100l-376 -532q-48 -68 -80 -140q-6 -14 -21 -14h-127q-18 0 -18 18zM330 1378v52q0 18 18 18h72q18 0 18 -18v-52q0 -56 34.5 -86t98.5 -30t99 30t35 86v52q0 18 18 18h72q18 0 18 -18v-52q0 -101 -64 -158t-178 -57 t-177.5 57t-63.5 158z" />
<glyph unicode="&#x48e;" horiz-adv-x="1269" d="M180 18v1373q0 18 19 18h495q221 0 344 -112t123 -312q0 -321 -313 -410l125 -221q5 -9 1.5 -15.5t-13.5 -6.5h-80q-14 0 -23 12l-117 209q-82 -10 -161 -10h-265v-525q0 -18 -18 -18h-98q-19 0 -19 18zM315 666h265q34 0 96 4l-113 196q-5 9 -1.5 16t13.5 7h82 q14 0 23 -12l104 -189q238 64 238 297q0 142 -87 221.5t-241 79.5h-379v-620z" />
<glyph unicode="&#x48f;" horiz-adv-x="1132" d="M160 -414v1377q0 18 18 18h64q17 0 20 -18l8 -123q3 -14 11.5 -14.5t17.5 12.5q117 163 313 163t307 -136t111 -373q0 -168 -59 -288t-170 -177l119 -209q5 -9 1 -16t-14 -7h-78q-13 0 -22 12l-102 185q-55 -12 -117 -12q-131 0 -234 49l-61 28v-471q0 -18 -19 -18h-96 q-18 0 -18 18zM291 186l84 -41q90 -43 209 -43q19 0 55 4l-127 224q-5 9 -1.5 15.5t13.5 6.5h78q14 0 23 -12l112 -201q77 43 118.5 134t41.5 219q0 181 -79 284t-220 103q-147 0 -227 -114t-80 -296v-283z" />
<glyph unicode="&#x490;" horiz-adv-x="1181" d="M180 18v1373q0 18 19 18h735v279q0 18 18 18h95q18 0 18 -18v-383q0 -19 -18 -19h-732v-1268q0 -18 -18 -18h-98q-19 0 -19 18z" />
<glyph unicode="&#x491;" horiz-adv-x="901" d="M160 18v945q0 18 18 18h512v201q0 18 19 18h90q18 0 18 -18v-303q0 -19 -18 -19h-506v-842q0 -18 -19 -18h-96q-18 0 -18 18z" />
<glyph unicode="&#x492;" horiz-adv-x="1261" d="M92 657v68q0 18 19 18h161v648q0 18 19 18h846q23 0 16 -20l-25 -86q-3 -17 -20 -17h-700v-543h329q19 0 19 -18v-68q0 -18 -19 -18h-329v-621q0 -18 -19 -18h-98q-19 0 -19 18v621h-161q-19 0 -19 18z" />
<glyph unicode="&#x493;" horiz-adv-x="944" d="M88 406v65q0 18 18 18h103v474q0 18 18 18h613q23 0 16 -20l-25 -84q-3 -17 -20 -17h-469v-371h287q18 0 18 -18v-65q0 -19 -18 -19h-287v-369q0 -18 -18 -18h-97q-18 0 -18 18v369h-103q-18 0 -18 19z" />
<glyph unicode="&#x494;" horiz-adv-x="1314" d="M180 18v1373q0 18 19 18h845q11 0 15.5 -5.5t1.5 -14.5l-25 -86q-3 -17 -20 -17h-701v-512h9l147 49q130 43 279 43q206 0 323 -119t117 -331v-385q0 -181 -93 -285t-255 -104q-90 0 -166 24l-51 17q-19 6 -13 24l27 82q6 18 25 12l49 -16q57 -16 127 -16q100 0 157.5 69 t57.5 193v370q0 158 -84.5 248t-231.5 90q-128 0 -243 -37l-162 -55q-8 -4 -23 -4h4v-625q0 -18 -18 -18h-98q-19 0 -19 18z" />
<glyph unicode="&#x495;" horiz-adv-x="1058" d="M160 18v945q0 18 18 18h613q23 0 16 -20l-25 -84q-3 -17 -20 -17h-469v-342l90 27q119 33 238 33q158 0 246.5 -86t88.5 -238v-397q2 -145 -77 -228.5t-217 -83.5q-66 0 -136 23l-34 12q-19 6 -13 25l27 78q6 16 22 10l37 -10q43 -13 97 -13q76 0 119.5 50.5t41.5 136.5 v383q0 100 -57.5 156.5t-157.5 56.5q-116 0 -192 -23l-123 -37v-375q0 -18 -19 -18h-96q-18 0 -18 18z" />
<glyph unicode="&#x496;" horiz-adv-x="1910" d="M114 7q-3 7 3 16l248 405q152 229 284 285q12 6 12 13t-12 11q-63 30 -137 101t-133 161l-240 387q-6 9 -2.5 16t15.5 7h108q14 0 23 -12l202 -316q190 -297 353 -297h43v607q0 18 18 18h98q19 0 19 -18v-607h43q164 0 354 297l203 316q9 12 22 12h109q12 0 15 -7t-3 -16 l-239 -387q-59 -90 -133.5 -161t-139.5 -101q-11 -5 -11 -11.5t11 -12.5q137 -57 285 -285l186 -305h107q18 0 18 -19v-466q0 -19 -18 -19h-94q-19 0 -19 19v362h-53q-14 0 -23 12l-213 338q-33 53 -57.5 89.5t-62.5 82t-72.5 73.5t-79 47.5t-90.5 19.5h-45v-644 q0 -18 -19 -18h-98q-18 0 -18 18v644h-45q-56 0 -108.5 -26.5t-99 -77t-80.5 -97t-73 -111.5l-213 -338q-9 -12 -22 -12h-111q-12 0 -15 7z" />
<glyph unicode="&#x497;" horiz-adv-x="1521" d="M114.5 7q-3.5 7 2.5 16l178 276q90 144 197 190q7 2 9.5 5.5t0 6.5t-9.5 5q-44 20 -95 71t-92 115l-174 266q-6 9 -2.5 16t14.5 7h111q13 0 22 -12l140 -213q132 -199 241 -199h31v406q0 18 19 18h94q18 0 18 -18v-406h29q107 0 244 199l139 213q9 12 22 12h109 q11 0 14.5 -7t-2.5 -16l-174 -266q-42 -65 -91.5 -116t-94.5 -70q-9 -3 -9 -8.5t9 -8.5q56 -24 102 -69.5t96 -120.5l113 -176h121q18 0 18 -19v-397q0 -18 -18 -18h-90q-19 0 -19 18v293h-67q-14 0 -23 12l-155 242q-121 180 -240 180h-33v-416q0 -18 -18 -18h-94 q-19 0 -19 18v416h-35q-118 0 -237 -180l-156 -242q-9 -12 -22 -12h-109q-11 0 -14.5 7z" />
<glyph unicode="&#x498;" horiz-adv-x="1245" d="M131 84l31 84q6 15 22 12l115 -35q141 -41 299 -41q175 0 280 74t105 201q0 93 -53.5 158.5t-139.5 95t-198 29.5h-180q-19 0 -19 18v86q0 18 19 18h180q153 0 249.5 75.5t96.5 187.5q0 117 -92 187.5t-244 70.5q-180 0 -301 -39l-100 -31q-19 -6 -25 12l-26 84 q-6 19 12 25l98 28q154 48 344 48q213 0 342 -103.5t129 -273.5q0 -101 -59 -184t-168 -130q-11 -4 -14.5 -9t0.5 -9.5t14 -7.5q127 -41 199.5 -132t72.5 -210q0 -162 -119.5 -267t-322.5 -122v-346q0 -19 -19 -19h-94q-18 0 -18 19v342q-143 5 -289 45l-115 34 q-18 6 -12 25z" />
<glyph unicode="&#x499;" horiz-adv-x="966" d="M111 57l24 82q3 18 23 15l86 -23q114 -29 219 -29q120 0 194 47t74 125q0 75 -76 119.5t-192 44.5h-127q-19 0 -19 19v80q0 18 19 18h125q107 0 171 44t64 120q0 70 -63.5 115t-165.5 45q-114 0 -223 -25l-74 -20q-20 -3 -23 14l-22 82q-6 19 12 22l76 21q115 28 252 28 q165 0 263.5 -74.5t98.5 -197.5q0 -73 -39 -132t-120 -85q-12 -3 -12 -10t12 -10q90 -27 143 -86.5t53 -143.5q0 -114 -87.5 -188.5t-239.5 -89.5v-277q0 -18 -19 -18h-90q-18 0 -18 18v275q-87 5 -197 30l-90 23q-18 3 -12 22z" />
<glyph unicode="&#x49a;" horiz-adv-x="1355" d="M180 18v1373q0 18 19 18h98q18 0 18 -18v-607h47q85 0 171 46.5t148.5 109t117.5 141.5l231 316q9 12 23 12h112q11 0 14.5 -7t-3.5 -16l-263 -370q-67 -95 -155.5 -171t-161.5 -106q-27 -12 0 -24q169 -67 334 -297l205 -295h114q19 0 19 -19v-466q0 -19 -19 -19h-94 q-18 0 -18 19v362h-60q-13 0 -22 12l-238 338q-91 134 -207 223t-243 89h-52v-644q0 -18 -18 -18h-98q-19 0 -19 18z" />
<glyph unicode="&#x49b;" horiz-adv-x="1064" d="M160 18v945q0 18 18 18h96q19 0 19 -18v-406h39q39 0 75 15t69.5 45t57 56t56.5 66l12 15l170 217q10 10 23 10h112q12 0 15.5 -7t-2.5 -16l-201 -262q-118 -154 -203 -186q-19 -10 0 -18q94 -37 215 -193l131 -176h125q19 0 19 -19v-397q0 -18 -19 -18h-90q-18 0 -18 18 v293h-68q-13 0 -23 10l-178 236q-31 40 -45.5 58t-44.5 48.5t-53.5 44.5t-58 25.5t-72.5 11.5h-43v-416q0 -18 -19 -18h-96q-18 0 -18 18z" />
<glyph unicode="&#x49c;" horiz-adv-x="1404" d="M180 18v1373q0 18 19 18h98q18 0 18 -18v-607h123v248q0 19 19 19h73q19 0 19 -19v-239q187 41 358 280l234 324q9 12 22 12h113q12 0 15 -7t-3 -16l-270 -374q-67 -95 -153 -170t-158 -105q-12 -5 -12 -11.5t12 -12.5q174 -66 333 -297l273 -393q7 -9 4 -16t-14 -7h-117 q-14 0 -23 12l-239 342q-82 118 -172.5 199t-202.5 102v-260q0 -18 -19 -18h-73q-19 0 -19 18v267h-123v-644q0 -18 -18 -18h-98q-19 0 -19 18z" />
<glyph unicode="&#x49d;" horiz-adv-x="1114" d="M160 18v945q0 18 18 18h96q19 0 19 -18v-414h80v182q0 19 18 19h72q18 0 18 -19v-170q38 14 79.5 50t65 64t62.5 79l172 217q10 10 23 10h110q12 0 15.5 -7t-2.5 -16l-199 -262q-119 -152 -205 -186q-7 -4 -9.5 -7t0 -5.5t9.5 -5.5q57 -22 105 -68t110 -125l203 -276 q6 -9 3 -16t-15 -7h-113q-14 0 -23 12l-174 234q-36 47 -49.5 63.5t-45 50t-60 50.5t-62.5 26v-176q0 -18 -18 -18h-72q-18 0 -18 18v184h-80v-426q0 -18 -19 -18h-96q-18 0 -18 18z" />
<glyph unicode="&#x49e;" horiz-adv-x="1382" d="M72 1075v66q0 18 18 18h174v232q0 18 19 18h98q18 0 18 -18v-232h174q19 0 19 -18v-66q0 -18 -19 -18h-174v-273h47q85 0 171 46.5t148.5 109t117.5 141.5l231 316q9 12 23 12h112q11 0 14.5 -7t-3.5 -16l-263 -370q-67 -95 -155.5 -171t-161.5 -106q-27 -12 0 -24 q169 -67 334 -297l274 -395q7 -9 4 -16t-14 -7h-117q-13 0 -22 12l-238 338q-91 134 -207 223t-243 89h-52v-644q0 -18 -18 -18h-98q-19 0 -19 18v1039h-174q-18 0 -18 18z" />
<glyph unicode="&#x49f;" horiz-adv-x="1038" d="M41 1163v68q0 18 18 18h111v181q0 18 18 18h97q18 0 18 -18v-181h402q18 0 18 -18v-68q0 -18 -18 -18h-402v-588h39q39 0 75 15t69.5 45t57 56t56.5 66l12 15l170 217q10 10 23 10h113q12 0 15 -7t-3 -16l-201 -262q-118 -154 -203 -186q-19 -10 0 -18q94 -37 215 -193 l205 -276q6 -9 3 -16t-15 -7h-113q-12 0 -22 10l-178 236q-37 48 -57.5 71.5t-56.5 56t-75 46.5t-86 14h-43v-416q0 -18 -18 -18h-97q-18 0 -18 18v1127h-111q-18 0 -18 18z" />
<glyph unicode="&#x4a0;" horiz-adv-x="1579" d="M39 1305v86q0 18 18 18h523q18 0 18 -18v-607h47q123 0 235.5 85.5t200.5 211.5l232 316q9 12 22 12h113q11 0 14 -7t-4 -16l-262 -370q-67 -95 -155.5 -171t-161.5 -106q-27 -12 0 -24q168 -66 333 -297l275 -395q7 -9 4 -16t-14 -7h-117q-14 0 -23 12l-237 338 q-91 134 -207.5 223t-243.5 89h-51v-644q0 -18 -18 -18h-99q-18 0 -18 18v1268h-406q-18 0 -18 19z" />
<glyph unicode="&#x4a1;" horiz-adv-x="1218" d="M47 879v84q0 18 19 18h399q18 0 18 -18v-406h39q39 0 76 16t69 44t59.5 58t56.5 66q7 9 10 13l170 217q10 10 22 10h113q12 0 15 -7t-3 -16l-201 -262q-118 -154 -202 -186q-19 -10 0 -18q94 -37 215 -193l204 -276q6 -9 3 -16t-15 -7h-113q-12 0 -22 10l-178 236 q-37 48 -57.5 71.5t-56.5 56t-75 46.5t-86 14h-43v-416q0 -18 -18 -18h-96q-19 0 -19 18v842h-284q-19 0 -19 19z" />
<glyph unicode="&#x4a2;" horiz-adv-x="1474" d="M180 18v1373q0 18 19 18h98q18 0 18 -18v-607h781v607q0 18 18 18h100q19 0 19 -18v-1268h110q19 0 19 -19v-466q0 -19 -19 -19h-94q-18 0 -18 19v362h-117q-18 0 -18 18v644h-781v-644q0 -18 -18 -18h-98q-19 0 -19 18z" />
<glyph unicode="&#x4a3;" horiz-adv-x="1157" d="M160 18v945q0 18 18 18h96q19 0 19 -18v-406h532v406q0 18 19 18h96q18 0 18 -18v-842h89q18 0 18 -19v-395q0 -18 -18 -18h-89q-18 0 -18 18v293h-96q-19 0 -19 18v416h-532v-416q0 -18 -19 -18h-96q-18 0 -18 18z" />
<glyph unicode="&#x4a4;" horiz-adv-x="2086" d="M180 18v1373q0 18 19 18h98q18 0 18 -18v-607h781v607q0 18 18 18h846q23 0 16 -20l-24 -86q-3 -17 -21 -17h-698v-1268q0 -18 -19 -18h-100q-18 0 -18 18v644h-781v-644q0 -18 -18 -18h-98q-19 0 -19 18z" />
<glyph unicode="&#x4a5;" horiz-adv-x="1560" d="M160 18v945q0 18 18 18h96q19 0 19 -18v-406h532v406q0 18 19 18h612q11 0 15.5 -5.5t1.5 -14.5l-25 -84q-3 -17 -21 -17h-469v-842q0 -18 -18 -18h-96q-19 0 -19 18v416h-532v-416q0 -18 -19 -18h-96q-18 0 -18 18z" />
<glyph unicode="&#x4a6;" horiz-adv-x="1449" d="M180 18v1373q0 18 19 18h991q18 0 18 -18v-1268h113q18 0 18 -19v-466q0 -19 -18 -19h-94q-19 0 -19 19v362h-116q-19 0 -19 18v1268h-758v-1268q0 -18 -18 -18h-98q-19 0 -19 18z" />
<glyph unicode="&#x4a7;" horiz-adv-x="1144" d="M160 18v945q0 18 18 18h750q18 0 18 -18v-842h88q19 0 19 -19v-395q0 -18 -19 -18h-88q-18 0 -18 18v293h-97q-18 0 -18 18v842h-520v-842q0 -18 -19 -18h-96q-18 0 -18 18z" />
<glyph unicode="&#x4a8;" horiz-adv-x="1705" d="M115 698q0 195 69.5 350t218.5 293l84 80q13 13 25 0l70 -63q15 -12 0 -27l-82 -80q-126 -114 -186 -248t-60 -301q0 -280 144.5 -438t400.5 -158q66 0 133 13q-126 107 -194 285t-68 413q0 268 108.5 418.5t302.5 150.5q201 0 313.5 -150t112.5 -417q0 -238 -72 -417 t-208 -285q68 -11 112 -11q121 0 211 25l95 27q18 3 24 -13l25 -84q6 -18 -13 -24l-94 -27q-122 -30 -246 -30q-140 0 -264 51q-130 -51 -282 -51q-320 0 -500 190t-180 528zM805 813q0 -235 69.5 -399t202.5 -242q143 78 218 243.5t75 401.5q0 210 -75.5 325t-211.5 115 q-132 0 -205 -116.5t-73 -327.5z" />
<glyph unicode="&#x4a9;" horiz-adv-x="1312" d="M102 496q0 247 177 424l67 69q12 12 27 0l69 -57q13 -13 2 -27l-61 -63q-147 -147 -147 -346q0 -187 93 -290.5t261 -103.5q36 0 80 7q-176 150 -176 442q0 180 82.5 281.5t228.5 101.5t227.5 -101.5t81.5 -281.5q0 -284 -158 -436q63 -13 121 -13q74 0 137 17l39 12 q19 3 25 -14l25 -82q7 -20 -13 -23l-41 -12q-81 -20 -178 -20q-144 0 -254 43q-98 -43 -229 -43q-228 0 -357 135.5t-129 380.5zM627 551q0 -132 48.5 -229.5t141.5 -153.5q79 56 121.5 154t42.5 229q0 122 -46.5 191t-129.5 69t-130.5 -69t-47.5 -191z" />
<glyph unicode="&#x4aa;" d="M115 705q0 338 159.5 532.5t438.5 194.5q87 0 149 -11t142 -41l86 -30q17 -7 10 -23l-29 -84q-6 -18 -24 -12l-86 33q-61 23 -115 31t-133 8q-218 0 -338.5 -157.5t-120.5 -440.5q0 -282 120.5 -440.5t338.5 -158.5q127 0 252 46l84 28q16 6 22 -10l31 -84q7 -16 -10 -23 l-84 -30q-144 -51 -269 -53v-342q0 -19 -18 -19h-94q-19 0 -19 19v350q-232 35 -362.5 225t-130.5 492z" />
<glyph unicode="&#x4ab;" horiz-adv-x="956" d="M102 492q0 238 120.5 373.5t344.5 135.5q89 0 191 -30l63 -19q19 -3 13 -22l-27 -82q-6 -15 -23 -12l-57 16q-80 27 -158 27q-165 0 -249 -101.5t-84 -285.5q0 -185 84 -287.5t245 -102.5q76 0 174 29l58 16q18 6 24 -12l25 -80q6 -18 -12 -24l-66 -19q-78 -26 -172 -32 v-273q0 -18 -18 -18h-91q-18 0 -18 18v281q-177 28 -272 160t-95 344z" />
<glyph unicode="&#x4ac;" horiz-adv-x="1280" d="M88 1305v86q0 18 18 18h1068q18 0 18 -18v-86q0 -19 -18 -19h-465v-1163h110q19 0 19 -19v-466q0 -19 -19 -19h-94q-18 0 -18 19v362h-117q-19 0 -19 18v1268h-465q-18 0 -18 19z" />
<glyph unicode="&#x4ad;" horiz-adv-x="1009" d="M84 879v84q0 18 18 18h803q19 0 19 -18v-84q0 -19 -19 -19h-336v-739h90q19 0 19 -19v-395q0 -18 -19 -18h-88q-18 0 -18 18v293h-96q-19 0 -19 18v842h-336q-18 0 -18 19z" />
<glyph unicode="&#x4ae;" horiz-adv-x="1337" d="M83.5 1402q3.5 7 14.5 7h113q13 0 22 -12l302 -465q67 -111 116 -223q3 -13 11 -21q4 -4 10.5 -1t9.5 11q47 115 119 234l303 465q9 12 22 12h113q11 0 14.5 -7t-2.5 -16l-350 -542q-95 -154 -130.5 -244.5t-35.5 -220.5v-361q0 -18 -18 -18h-99q-18 0 -18 18v361 q0 131 -35 222t-129 243l-350 542q-6 9 -2.5 16z" />
<glyph unicode="&#x4af;" horiz-adv-x="1099" d="M81.5 974.5q3.5 6.5 14.5 6.5h103q14 0 20 -14l232 -506q65 -169 84 -258q3 -9 9 -12t11.5 0t7.5 12q30 122 86 258l230 506q6 14 20 14h102q11 0 15 -6.5t0 -16.5l-273 -606q-127 -292 -127 -497v-269q0 -18 -18 -18h-96q-19 0 -19 18v269q0 205 -127 497l-274 606 q-4 10 -0.5 16.5z" />
<glyph unicode="&#x4b0;" horiz-adv-x="1357" d="M94 1402q4 7 15 7h112q14 0 23 -12l301 -465q71 -117 117 -223q4 -15 10 -21q4 -4 10.5 -1t9.5 11q47 115 119 234l303 465q9 12 23 12h112q11 0 15 -7t-2 -16l-351 -542q-85 -139 -120 -218t-43 -180h303q18 0 18 -18v-86q0 -18 -18 -18h-306v-306q0 -18 -18 -18h-98 q-19 0 -19 18v306h-305q-18 0 -18 18v86q0 18 18 18h303q-8 101 -43 180.5t-119 217.5l-350 542q-6 9 -2 16z" />
<glyph unicode="&#x4b1;" horiz-adv-x="1124" d="M94 958q-4 10 0 16.5t15 6.5h102q14 0 20 -14l232 -506q65 -169 84 -258q3 -9 9 -12t11.5 0t7.5 12q28 116 87 258l229 506q6 14 20 14h103q11 0 14.5 -6.5t-0.5 -16.5l-272 -606q-61 -142 -90 -248h235q19 0 19 -18v-68q0 -18 -19 -18h-260q-12 -70 -12 -145v-269 q0 -18 -19 -18h-96q-18 0 -18 18v269q0 69 -13 145h-260q-18 0 -18 18v68q0 18 18 18h236q-29 106 -90 248z" />
<glyph unicode="&#x4b2;" horiz-adv-x="1355" d="M126.5 7q-3.5 7 2.5 16l383 591q36 65 76 86q6 5 6.5 12.5t-6.5 12.5q-38 21 -74 86l-373 575q-6 9 -2 16t15 7h110q14 0 23 -12l372 -576q7 -13 17 -13t18 13l371 576q9 12 22 12h113q11 0 14.5 -7t-2.5 -16l-370 -575q-44 -67 -76 -86q-8 -5 -8 -13t8 -12 q39 -21 76 -86l315 -491h105q18 0 18 -19v-466q0 -19 -18 -19h-95q-18 0 -18 19v362h-51q-14 0 -23 12l-381 596q-16 25 -35 0l-383 -596q-9 -12 -22 -12h-113q-11 0 -14.5 7z" />
<glyph unicode="&#x4b3;" horiz-adv-x="1093" d="M105 7q-3 7 4 16l278 405q24 38 47 55q15 10 15 13q0 4 -7 8q-27 20 -55 61l-270 393q-7 9 -4 16t14 7h111q13 0 22 -12l256 -371q9 -16 21 -8q2 2 12 16l252 363q9 12 22 12h109q11 0 14 -7t-4 -16l-270 -393q-34 -49 -56 -61q-6 -3 -6 -6q-1 -2 0 -4t3 -3.5t4 -2.5 t5.5 -2.5t4.5 -2.5q25 -22 45 -55l211 -305h125q18 0 18 -19v-397q0 -18 -18 -18h-88q-19 0 -19 18v293h-72q-13 0 -22 12l-264 381q-12 18 -27 0l-264 -381q-9 -12 -23 -12h-110q-11 0 -14 7z" />
<glyph unicode="&#x4b4;" horiz-adv-x="1738" d="M39 1300v91q0 18 18 18h957q18 0 18 -18v-91q0 -18 -18 -18h-412v-1159h758v1268q0 18 18 18h99q18 0 18 -18v-1268h113q18 0 18 -19v-466q0 -19 -18 -19h-95q-18 0 -18 19v362h-1010q-18 0 -18 18v1264h-410q-18 0 -18 18z" />
<glyph unicode="&#x4b5;" horiz-adv-x="1329" d="M47 879v84q0 18 19 18h682q18 0 18 -18v-84q0 -19 -18 -19h-271v-739h520v842q0 18 19 18h96q18 0 18 -18v-842h89q18 0 18 -19v-395q0 -18 -18 -18h-89q-18 0 -18 18v293h-750q-18 0 -18 18v842h-278q-19 0 -19 19z" />
<glyph unicode="&#x4b6;" horiz-adv-x="1376" d="M133 961v430q0 18 19 18h100q18 0 18 -18v-416q0 -163 81 -252.5t227 -89.5q137 0 247 37l174 57v664q0 18 19 18h98q19 0 19 -18v-1268h112q19 0 19 -19v-466q0 -19 -19 -19h-94q-18 0 -18 19v362h-117q-19 0 -19 18v578l-139 -47q-136 -43 -289 -43q-207 0 -322.5 120 t-115.5 335z" />
<glyph unicode="&#x4b7;" horiz-adv-x="1091" d="M113 659v304q0 18 18 18h96q19 0 19 -18v-289q0 -100 57.5 -155.5t161.5 -55.5q97 0 170 22l123 37v441q0 18 18 18h96q19 0 19 -18v-842h88q18 0 18 -19v-395q0 -18 -18 -18h-88q-19 0 -19 18v293h-96q-18 0 -18 18v377l-94 -26q-102 -31 -211 -31q-160 0 -250 85 t-90 236z" />
<glyph unicode="&#x4b8;" horiz-adv-x="1314" d="M133 961v430q0 18 19 18h100q18 0 18 -18v-416q0 -161 79 -250.5t222 -91.5v231q0 19 19 19h72q18 0 18 -19v-227q64 7 145 33l174 57v664q0 18 19 18h98q19 0 19 -18v-1373q0 -18 -19 -18h-98q-19 0 -19 18v578l-139 -47q-101 -31 -180 -39v-281q0 -18 -18 -18h-72 q-19 0 -19 18v277q-207 0 -322.5 120t-115.5 335z" />
<glyph unicode="&#x4b9;" horiz-adv-x="1050" d="M113 659v304q0 18 18 18h96q19 0 19 -18v-289q0 -95 53 -151t150 -60v168q0 18 18 18h72q18 0 18 -18v-162q32 2 78 16l123 37v441q0 18 18 18h96q19 0 19 -18v-945q0 -18 -19 -18h-96q-18 0 -18 18v377l-94 -26q-67 -18 -107 -25v-192q0 -19 -18 -19h-72q-18 0 -18 19 v186q-158 1 -247 86.5t-89 234.5z" />
<glyph unicode="&#x4ba;" horiz-adv-x="1314" d="M180 18v1373q0 18 19 18h98q18 0 18 -18v-506l140 45q134 45 288 45q207 0 323 -120.5t116 -334.5v-502q0 -18 -19 -18h-100q-19 0 -19 18v488q0 163 -80.5 251.5t-226.5 88.5q-136 0 -248 -35l-174 -57v-736q0 -18 -18 -18h-98q-19 0 -19 18z" />
<glyph unicode="&#x4bb;" horiz-adv-x="1050" d="M160 18v945q0 18 18 18h96q19 0 19 -18v-342l94 26q96 29 211 29q160 0 250 -85t90 -237v-336q0 -18 -18 -18h-97q-18 0 -18 18v324q0 99 -57.5 155t-161.5 56q-83 0 -170 -23l-123 -36v-476q0 -18 -19 -18h-96q-18 0 -18 18z" />
<glyph unicode="&#x4bc;" horiz-adv-x="1603" d="M78 739v166q0 19 18 19h99q18 0 18 -19v-166q0 -57 33 -83t92 -15l65 10l-2 54q0 339 159 533t435 194q230 0 362 -112.5t132 -309.5q0 -143 -100.5 -237t-290.5 -126l-545 -100q32 -211 146.5 -326t295.5 -115q127 0 250 46l84 28q16 7 23 -10l30 -86q7 -16 -10 -23 l-86 -30q-84 -30 -144 -40.5t-147 -10.5q-234 0 -386.5 143t-192.5 399l-60 -12q-133 -22 -205.5 38t-72.5 191zM541 678l534 92q132 25 203.5 87.5t71.5 152.5q0 139 -94 216t-261 77q-217 0 -338.5 -162.5t-115.5 -462.5z" />
<glyph unicode="&#x4bd;" d="M59 532v107q0 18 19 18h86q18 0 18 -18v-107q0 -40 24.5 -59t67.5 -12l39 6v25q0 236 119.5 372.5t329.5 136.5q174 0 272.5 -80.5t98.5 -222.5q0 -214 -285 -260l-389 -63q19 -130 98 -201.5t207 -71.5q90 0 186 27l72 18q19 3 22 -14l23 -82q6 -19 -12 -22l-72 -19 q-102 -30 -219 -30q-178 0 -291.5 98.5t-146.5 275.5l-37 -6q-113 -17 -171.5 30.5t-58.5 153.5zM444 487l381 64q89 15 131.5 50t42.5 95q0 86 -63 134.5t-176 48.5q-147 0 -228.5 -98t-87.5 -294z" />
<glyph unicode="&#x4be;" horiz-adv-x="1603" d="M78 739v166q0 19 18 19h99q18 0 18 -19v-166q0 -57 33 -83t92 -15l63 10v54q0 339 159 533t435 194q230 0 362 -112.5t132 -309.5q0 -143 -100.5 -237t-290.5 -126l-545 -100q32 -211 146.5 -326t295.5 -115q127 0 250 46l84 28q16 7 23 -10l30 -86q7 -16 -10 -23 l-86 -30q-78 -28 -134.5 -39t-129.5 -12v-342q0 -19 -18 -19h-95q-18 0 -18 19v350q-192 31 -316 170t-159 364l-60 -12q-133 -22 -205.5 38t-72.5 191zM541 678l534 92q132 25 203.5 87.5t71.5 152.5q0 139 -94 216t-261 77q-217 0 -338.5 -162.5t-115.5 -462.5z" />
<glyph unicode="&#x4bf;" d="M59 532v107q0 18 19 18h86q18 0 18 -18v-107q0 -40 24.5 -59t67.5 -12l39 6v25q0 236 119.5 372.5t329.5 136.5q174 0 272.5 -80.5t98.5 -222.5q0 -213 -279 -258l-395 -65q19 -130 98 -201.5t207 -71.5q90 0 186 27l72 18q19 3 22 -14l23 -82q6 -19 -12 -22l-72 -19 q-88 -25 -178 -30v-273q0 -18 -19 -18h-88q-18 0 -18 18v279q-144 22 -235 117t-119 251l-37 -6q-113 -17 -171.5 30.5t-58.5 153.5zM444 487l387 66q168 25 168 143q0 86 -63 134.5t-176 48.5q-147 0 -228.5 -98t-87.5 -294z" />
<glyph unicode="&#x4c0;" horiz-adv-x="495" d="M180 18v1373q0 18 19 18h98q18 0 18 -18v-1373q0 -18 -18 -18h-98q-19 0 -19 18z" />
<glyph unicode="&#x4c1;" horiz-adv-x="1896" d="M114 7q-3 7 3 16l248 405q152 229 284 285q12 6 12 13t-12 11q-63 30 -137 101t-133 161l-240 387q-6 9 -2.5 16t15.5 7h108q14 0 23 -12l202 -316q190 -297 353 -297h43v607q0 18 18 18h98q19 0 19 -18v-607h43q164 0 354 297l203 316q9 12 22 12h109q12 0 15 -7t-3 -16 l-239 -387q-59 -90 -133.5 -161t-139.5 -101q-11 -5 -11 -11.5t11 -12.5q137 -57 285 -285l248 -405q6 -9 2.5 -16t-15.5 -7h-108q-14 0 -23 12l-213 338q-33 53 -57.5 89.5t-62.5 82t-72.5 73.5t-79 47.5t-90.5 19.5h-45v-644q0 -18 -19 -18h-98q-18 0 -18 18v644h-45 q-56 0 -108.5 -26.5t-99 -77t-80.5 -97t-73 -111.5l-213 -338q-9 -12 -22 -12h-111q-12 0 -15 7zM702 1749v25q0 18 19 18h76q18 0 18 -18v-23q0 -98 133 -98q64 0 98.5 25.5t34.5 72.5v23q0 18 19 18h76q18 0 18 -18v-25q0 -199 -246 -199t-246 199z" />
<glyph unicode="&#x4c2;" horiz-adv-x="1507" d="M114.5 7q-3.5 7 2.5 16l178 276q90 144 197 190q7 2 9.5 5.5t0 6.5t-9.5 5q-44 20 -95 71t-92 115l-174 266q-6 9 -2.5 16t14.5 7h111q13 0 22 -12l140 -213q132 -199 241 -199h31v406q0 18 19 18h94q18 0 18 -18v-406h29q107 0 244 199l139 213q9 12 22 12h109 q11 0 14.5 -7t-2.5 -16l-174 -266q-42 -65 -91.5 -116t-94.5 -70q-9 -3 -9 -8.5t9 -8.5q56 -24 102 -69.5t96 -120.5l179 -276q6 -9 2 -16t-15 -7h-108q-14 0 -23 12l-155 242q-121 180 -240 180h-33v-416q0 -18 -18 -18h-94q-19 0 -19 18v416h-35q-118 0 -237 -180 l-156 -242q-9 -12 -22 -12h-109q-11 0 -14.5 7zM514 1378v52q0 18 18 18h72q19 0 19 -18v-52q0 -56 34.5 -86t98.5 -30t98.5 30t34.5 86v52q0 18 18 18h72q18 0 18 -18v-52q0 -101 -63.5 -158t-177.5 -57t-178 57t-64 158z" />
<glyph unicode="&#x4c3;" horiz-adv-x="1337" d="M180 18v1373q0 18 19 18h98q18 0 18 -18v-607h47q226 0 437 297l229 316q9 12 23 12h114q11 0 14.5 -7t-3.5 -16l-261 -364q-128 -177 -258 -246q-13 -9 -12.5 -16.5t14.5 -9.5q237 -34 382 -171t145 -364v-231q0 -168 -94.5 -271.5t-253.5 -103.5q-87 0 -160 24l-60 17 q-18 6 -12 24l31 82q6 16 22 13l54 -17q50 -14 125 -14q99 0 155 66.5t56 179.5v231q0 206 -158.5 326.5t-433.5 120.5h-142v-644q0 -18 -18 -18h-98q-19 0 -19 18z" />
<glyph unicode="&#x4c4;" horiz-adv-x="1044" d="M160 18v945q0 18 18 18h96q19 0 19 -18v-406h35q71 0 138.5 55t135.5 142l170 217q10 10 23 10h112q12 0 15.5 -7t-2.5 -16l-201 -262q-80 -102 -170 -159q-21 -12 2 -19q176 -23 275.5 -131t99.5 -270v-287q0 -129 -77.5 -207t-209.5 -78q-60 0 -133 23l-35 10 q-19 3 -12 23l24 80q6 15 23 12l37 -10q54 -13 94 -13q73 0 114.5 43.5t41.5 116.5v287q0 150 -107.5 233.5t-294.5 83.5h-98v-416q0 -18 -19 -18h-96q-18 0 -18 18z" />
<glyph unicode="&#x4c5;" horiz-adv-x="1505" d="M45 59q-9 16 6 27l74 45q107 69 158 208.5t51 365.5v686q0 18 18 18h883q18 0 18 -18v-1268h121q9 0 13.5 -6t1.5 -15l-123 -467q-3 -16 -21 -16h-94q-9 0 -13 6t-1 15l94 360h-94q-19 0 -19 18v1268h-649v-581q0 -260 -69.5 -425.5t-217.5 -256.5l-71 -46q-18 -11 -25 7 z" />
<glyph unicode="&#x4c6;" horiz-adv-x="1218" d="M51 68q-8 14 8 24l56 29q83 46 122 135.5t39 232.5v474q0 18 19 18h684q18 0 18 -18v-840h105q10 0 14.5 -6t1.5 -15l-114 -397q-3 -16 -21 -16h-86q-23 0 -16 20l84 291h-82q-19 0 -19 18v842h-454v-371q0 -181 -58.5 -296.5t-181.5 -180.5l-53 -30q-16 -7 -25 8z" />
<glyph unicode="&#x4c7;" horiz-adv-x="1413" d="M180 18v1373q0 18 19 18h98q18 0 18 -18v-607h781v607q0 18 18 18h100q19 0 19 -18v-1397q0 -181 -93 -283t-257 -102q-75 0 -164 26l-51 15q-19 6 -13 24l27 84q7 17 25 11l49 -15q57 -16 127 -16q100 0 156.5 67.5t56.5 188.5v668h-781v-644q0 -18 -18 -18h-98 q-19 0 -19 18z" />
<glyph unicode="&#x4c8;" horiz-adv-x="1116" d="M160 18v945q0 18 18 18h96q19 0 19 -18v-406h532v406q0 18 19 18h96q18 0 18 -18v-1106q0 -146 -79 -229t-217 -83q-61 0 -138 25l-39 10q-18 6 -12 25l25 78q6 18 24 12l41 -12q43 -13 94 -13q79 0 123.5 49.5t44.5 137.5v577h-532v-416q0 -18 -19 -18h-96q-18 0 -18 18 z" />
<glyph unicode="&#x4c9;" horiz-adv-x="1482" d="M180 18v1373q0 18 19 18h98q18 0 18 -18v-607h781v607q0 18 18 18h100q19 0 19 -18v-1268h119q9 0 13 -6t1 -15l-123 -467q-3 -16 -20 -16h-95q-9 0 -13 6t-1 15l94 360h-94q-18 0 -18 18v644h-781v-644q0 -18 -18 -18h-98q-19 0 -19 18z" />
<glyph unicode="&#x4ca;" horiz-adv-x="1177" d="M160 18v945q0 18 18 18h96q19 0 19 -18v-406h532v406q0 18 19 18h96q18 0 18 -18v-840h105q10 0 14.5 -6t1.5 -15l-114 -397q-3 -16 -21 -16h-86q-23 0 -16 20l84 291h-82q-19 0 -19 18v416h-532v-416q0 -18 -19 -18h-96q-18 0 -18 18z" />
<glyph unicode="&#x4cb;" horiz-adv-x="1314" d="M133 897v494q0 18 19 18h100q18 0 18 -18v-484q0 -160 81 -248t227 -88q137 0 247 37l174 58v725q0 18 19 18h98q19 0 19 -18v-1373q0 -18 -19 -18h-119v-362q0 -19 -18 -19h-94q-19 0 -19 19v466q0 19 19 19h114v412l-139 -48q-130 -43 -289 -43q-207 0 -322.5 119.5 t-115.5 333.5z" />
<glyph unicode="&#x4cc;" horiz-adv-x="1050" d="M113 627v336q0 18 18 18h96q19 0 19 -18v-328q0 -100 57.5 -154.5t161.5 -54.5q94 0 170 23l123 36v478q0 18 18 18h96q19 0 19 -18v-945q0 -18 -19 -18h-100v-293q0 -18 -18 -18h-90q-19 0 -19 18v395q0 19 19 19h94v237l-94 -28q-96 -29 -211 -29q-161 0 -250.5 86 t-89.5 240z" />
<glyph unicode="&#x4cd;" horiz-adv-x="1714" d="M180 18v1373q0 18 19 18h161q18 0 21 -16q26 -84 63 -162l304 -670q37 -90 59 -168q5 -15 15 -15t14 15q31 100 59 166l305 672q42 90 62 162q3 16 20 16h164q18 0 18 -18v-1268h119q9 0 13 -6t1 -15l-122 -467q-3 -16 -21 -16h-94q-9 0 -13 6t-1 15l94 360h-94 q-19 0 -19 18v893q0 158 14 273q2 19 -9 22.5t-17 -16.5q-26 -72 -68 -164l-278 -606q-35 -81 -78 -203q-3 -14 -21 -14h-96q-17 0 -20 14q-48 138 -80 203l-275 604q-14 28 -71 166q-4 13 -10.5 16t-11 -3.5t-3.5 -18.5q12 -123 12 -273v-893q0 -18 -18 -18h-98 q-19 0 -19 18z" />
<glyph unicode="&#x4ce;" horiz-adv-x="1361" d="M160 18v945q0 18 18 18h154q17 0 20 -16q13 -45 43 -111l201 -399q36 -87 45 -123q2 -9 5.5 -12t7 0t5.5 12q8 29 46 123l202 399q25 54 41 111q3 16 21 16h153q19 0 19 -18v-840h104q10 0 15 -6t2 -15l-115 -397q-3 -16 -21 -16h-86q-23 0 -16 20l84 291h-82 q-18 0 -18 18v525q0 149 10 239q2 14 -6.5 16.5t-12.5 -10.5q-20 -49 -51 -116l-192 -383q-30 -69 -49 -125q-3 -14 -21 -14h-74q-17 0 -20 14q-20 66 -49 125l-193 383q-31 66 -51 116q-4 13 -12.5 10.5t-5.5 -16.5q12 -108 12 -239v-525q0 -18 -19 -18h-96q-18 0 -18 18z " />
<glyph unicode="&#x4cf;" horiz-adv-x="495" d="M180 18v1373q0 18 19 18h98q18 0 18 -18v-1373q0 -18 -18 -18h-98q-19 0 -19 18z" />
<glyph unicode="&#x4d0;" horiz-adv-x="1425" d="M90 20l422 1020q71 179 119 353q3 16 20 16h121q18 0 21 -16q43 -155 120 -353l420 -1020q3 -9 -1 -14.5t-13 -5.5h-105q-16 0 -22 14l-139 344h-680l-140 -344q-6 -14 -22 -14h-107q-9 0 -13 5.5t-1 14.5zM424 483h577l-188 453q-62 153 -88 272q-2 9 -7.5 12t-11.5 0 t-8 -12q-22 -113 -88 -272zM465 1749v25q0 18 18 18h76q19 0 19 -18v-23q0 -98 133 -98q64 0 98.5 25.5t34.5 72.5v23q0 18 18 18h76q18 0 18 -18v-25q0 -199 -245 -199q-246 0 -246 199z" />
<glyph unicode="&#x4d1;" horiz-adv-x="1036" d="M92 274q0 137 94 218.5t267 82.5h309v27q0 131 -71.5 203t-203.5 72q-106 0 -186 -25l-72 -21q-18 -6 -24 13l-23 80q-6 18 13 24l75 23q98 30 219 30q188 0 297 -106t109 -291v-586q0 -18 -18 -18h-64q-17 0 -20 18l-7 93q-9 39 -41 2q-106 -133 -325 -133 q-155 0 -241.5 78.5t-86.5 215.5zM225 283q0 -87 53.5 -135t151.5 -48q158 0 245 87t87 247v27h-309q-113 0 -170.5 -47.5t-57.5 -130.5zM279 1380v52q0 18 18 18h72q18 0 18 -18v-52q0 -56 34.5 -86t98.5 -30t98.5 30t34.5 86v52q0 18 19 18h71q19 0 19 -18v-52 q0 -101 -64 -158t-178 -57t-177.5 57t-63.5 158z" />
<glyph unicode="&#x4d2;" horiz-adv-x="1425" d="M90 20l422 1020q71 179 119 353q3 16 20 16h121q18 0 21 -16q43 -155 120 -353l420 -1020q3 -9 -1 -14.5t-13 -5.5h-105q-16 0 -22 14l-139 344h-680l-140 -344q-6 -14 -22 -14h-107q-9 0 -13 5.5t-1 14.5zM424 483h577l-188 453q-62 153 -88 272q-2 9 -7.5 12t-11.5 0 t-8 -12q-22 -113 -88 -272zM471 1679q0 40 24 63t66 23q40 0 64 -23t24 -63q0 -39 -24 -61.5t-64 -22.5q-43 0 -66.5 22t-23.5 62zM776 1679q0 40 24 63t66 23q40 0 64 -23t24 -63q0 -39 -24 -61.5t-64 -22.5q-43 0 -66.5 22t-23.5 62z" />
<glyph unicode="&#x4d3;" horiz-adv-x="1036" d="M92 274q0 137 94 218.5t267 82.5h309v27q0 131 -71.5 203t-203.5 72q-106 0 -186 -25l-72 -21q-18 -6 -24 13l-23 80q-6 18 13 24l75 23q98 30 219 30q188 0 297 -106t109 -291v-586q0 -18 -18 -18h-64q-17 0 -20 18l-7 93q-9 39 -41 2q-106 -133 -325 -133 q-155 0 -241.5 78.5t-86.5 215.5zM225 283q0 -87 53.5 -135t151.5 -48q158 0 245 87t87 247v27h-309q-113 0 -170.5 -47.5t-57.5 -130.5zM276 1372q0 41 23 64.5t63 23.5q39 0 63 -23.5t24 -64.5t-24 -64.5t-63 -23.5q-40 0 -63 23.5t-23 64.5zM588 1372q0 41 23 64.5 t63 23.5q39 0 62.5 -23.5t23.5 -64.5t-23.5 -64.5t-62.5 -23.5q-40 0 -63 23.5t-23 64.5z" />
<glyph unicode="&#x4d4;" horiz-adv-x="1869" d="M90 20l414 1000q86 216 127 373q3 16 20 16h1082q23 0 16 -20l-25 -86q-3 -17 -20 -17h-842q-16 0 -19 -7t-1 -24q13 -68 63 -186l117 -285h567q19 0 19 -18v-86q0 -18 -19 -18h-518l223 -539h449q18 0 18 -19v-86q0 -18 -18 -18h-529q-16 0 -22 14l-139 344h-680 l-140 -344q-6 -14 -22 -14h-107q-9 0 -13 5.5t-1 14.5zM424 483h577l-194 469q-58 142 -80 256q-5 14 -15.5 14t-13.5 -14q-26 -121 -82 -254z" />
<glyph unicode="&#x4d5;" horiz-adv-x="1681" d="M92 279q0 138 93 216t259 78h318v45q0 119 -72 189t-201 70q-95 0 -186 -25l-74 -23q-18 -6 -24 13l-25 82q-3 19 15 22l81 25q100 28 216 28q241 0 339 -194q16 -29 35 0q53 95 140.5 145.5t201.5 50.5q186 0 278.5 -83t92.5 -211q0 -116 -75 -181.5t-234 -91.5 l-361 -61q20 -122 97 -196.5t202 -74.5q89 0 195 27l65 18q20 3 23 -14l25 -82q3 -19 -15 -22l-65 -19q-105 -30 -228 -30q-254 0 -360 219q-18 30 -33 0q-106 -219 -389 -219q-157 0 -245.5 80.5t-88.5 218.5zM225 285q0 -84 55 -134.5t152 -50.5q167 0 248.5 87.5 t81.5 275.5h-320q-102 0 -159.5 -47t-57.5 -131zM897 487l352 58q102 17 150.5 56t48.5 104q0 70 -58 122t-182 52q-144 0 -225.5 -99t-85.5 -293z" />
<glyph unicode="&#x4d6;" horiz-adv-x="1228" d="M180 18v1373q0 18 19 18h895q23 0 16 -20l-27 -86q-3 -17 -20 -17h-748v-502h637q19 0 19 -18v-86q0 -18 -19 -18h-637v-539h787q18 0 18 -19v-86q0 -18 -18 -18h-903q-19 0 -19 18zM403 1749v25q0 18 19 18h76q18 0 18 -18v-23q0 -98 133 -98q64 0 98.5 25.5t34.5 72.5 v23q0 18 19 18h76q18 0 18 -18v-25q0 -199 -246 -199t-246 199z" />
<glyph unicode="&#x4d7;" horiz-adv-x="1024" d="M102 492q0 235 120 372t329 137q174 0 272.5 -80.5t98.5 -222.5q0 -212 -275 -258l-399 -65q20 -130 100 -201.5t205 -71.5q105 0 190 27l62 18q18 3 24 -14l25 -82q3 -19 -14 -22l-66 -19q-94 -30 -221 -30q-211 0 -331 137.5t-120 374.5zM238 487l387 66 q163 27 163 143q0 87 -62.5 135t-176.5 48q-145 0 -226 -99t-85 -293zM289 1378v52q0 18 18 18h72q18 0 18 -18v-52q0 -56 34.5 -86t98.5 -30t99 30t35 86v52q0 18 18 18h72q18 0 18 -18v-52q0 -101 -64 -158t-178 -57t-177.5 57t-63.5 158z" />
<glyph unicode="&#x4d8;" horiz-adv-x="1302" d="M113 377q0 163 93 254.5t290 128.5l540 98q-31 215 -141.5 330t-292.5 115q-149 0 -283 -54l-69 -24q-19 -6 -25 12l-28 82q-6 18 12 24l72 25q179 64 321 64q275 0 430.5 -194t155.5 -538q0 -337 -157.5 -528.5t-432.5 -191.5q-229 0 -357 106t-128 291zM250 377 q0 -125 92.5 -198t255.5 -73q217 0 333 162.5t118 464.5l-529 -98q-141 -26 -205.5 -87.5t-64.5 -170.5z" />
<glyph unicode="&#x4d9;" horiz-adv-x="1019" d="M98 283q0 212 275 258l399 65q-20 130 -100 201.5t-205 71.5q-105 0 -191 -27l-61 -18q-19 -3 -25 14l-24 82q-3 19 14 22l64 19q97 30 221 30q211 0 332 -137.5t121 -374.5q0 -235 -120 -372t-329 -137q-175 0 -273 80t-98 223zM231 285q0 -88 63 -135.5t177 -47.5 q145 0 226 99t85 293l-387 -66q-164 -27 -164 -143z" />
<glyph unicode="&#x4da;" horiz-adv-x="1302" d="M113 377q0 163 93 254.5t290 128.5l540 98q-31 215 -141.5 330t-292.5 115q-149 0 -283 -54l-69 -24q-19 -6 -25 12l-28 82q-6 18 12 24l72 25q179 64 321 64q275 0 430.5 -194t155.5 -538q0 -337 -157.5 -528.5t-432.5 -191.5q-229 0 -357 106t-128 291zM250 377 q0 -125 92.5 -198t255.5 -73q217 0 333 162.5t118 464.5l-529 -98q-141 -26 -205.5 -87.5t-64.5 -170.5zM385 1679q0 40 24 63t66 23q40 0 64 -23t24 -63q0 -39 -24 -61.5t-64 -22.5q-43 0 -66.5 22t-23.5 62zM690 1679q0 40 24 63t66 23q40 0 64 -23t24 -63 q0 -39 -24 -61.5t-64 -22.5q-43 0 -66.5 22t-23.5 62z" />
<glyph unicode="&#x4db;" horiz-adv-x="1019" d="M98 283q0 212 275 258l399 65q-20 130 -100 201.5t-205 71.5q-105 0 -191 -27l-61 -18q-19 -3 -25 14l-24 82q-3 19 14 22l64 19q97 30 221 30q211 0 332 -137.5t121 -374.5q0 -235 -120 -372t-329 -137q-175 0 -273 80t-98 223zM231 285q0 -88 63 -135.5t177 -47.5 q145 0 226 99t85 293l-387 -66q-164 -27 -164 -143zM248 1370q0 41 23 64.5t63 23.5q39 0 62.5 -23.5t23.5 -64.5t-23.5 -64.5t-62.5 -23.5q-40 0 -63 23.5t-23 64.5zM559 1370q0 41 23 64.5t63 23.5q39 0 62.5 -23.5t23.5 -64.5t-23.5 -64.5t-62.5 -23.5q-40 0 -63 23.5 t-23 64.5z" />
<glyph unicode="&#x4dc;" horiz-adv-x="1896" d="M114 7q-3 7 3 16l248 405q152 229 284 285q12 6 12 13t-12 11q-63 30 -137 101t-133 161l-240 387q-6 9 -2.5 16t15.5 7h108q14 0 23 -12l202 -316q190 -297 353 -297h43v607q0 18 18 18h98q19 0 19 -18v-607h43q164 0 354 297l203 316q9 12 22 12h109q12 0 15 -7t-3 -16 l-239 -387q-59 -90 -133.5 -161t-139.5 -101q-11 -5 -11 -11.5t11 -12.5q137 -57 285 -285l248 -405q6 -9 2.5 -16t-15.5 -7h-108q-14 0 -23 12l-213 338q-33 53 -57.5 89.5t-62.5 82t-72.5 73.5t-79 47.5t-90.5 19.5h-45v-644q0 -18 -19 -18h-98q-18 0 -18 18v644h-45 q-56 0 -108.5 -26.5t-99 -77t-80.5 -97t-73 -111.5l-213 -338q-9 -12 -22 -12h-111q-12 0 -15 7zM709 1679q0 40 24 63t66 23q40 0 64 -23t24 -63q0 -39 -24 -61.5t-64 -22.5q-43 0 -66.5 22t-23.5 62zM1014 1679q0 40 24 63t66 23q40 0 64 -23t24 -63q0 -39 -24 -61.5 t-64 -22.5q-43 0 -66.5 22t-23.5 62z" />
<glyph unicode="&#x4dd;" horiz-adv-x="1507" d="M114.5 7q-3.5 7 2.5 16l178 276q90 144 197 190q7 2 9.5 5.5t0 6.5t-9.5 5q-44 20 -95 71t-92 115l-174 266q-6 9 -2.5 16t14.5 7h111q13 0 22 -12l140 -213q132 -199 241 -199h31v406q0 18 19 18h94q18 0 18 -18v-406h29q107 0 244 199l139 213q9 12 22 12h109 q11 0 14.5 -7t-2.5 -16l-174 -266q-42 -65 -91.5 -116t-94.5 -70q-9 -3 -9 -8.5t9 -8.5q56 -24 102 -69.5t96 -120.5l179 -276q6 -9 2 -16t-15 -7h-108q-14 0 -23 12l-155 242q-121 180 -240 180h-33v-416q0 -18 -18 -18h-94q-19 0 -19 18v416h-35q-118 0 -237 -180 l-156 -242q-9 -12 -22 -12h-109q-11 0 -14.5 7zM514 1370q0 41 23 64.5t63 23.5q39 0 62.5 -23.5t23.5 -64.5t-23.5 -64.5t-62.5 -23.5q-40 0 -63 23.5t-23 64.5zM825 1370q0 41 23 64.5t63 23.5q39 0 62.5 -23.5t23.5 -64.5t-23.5 -64.5t-62.5 -23.5q-40 0 -63 23.5 t-23 64.5z" />
<glyph unicode="&#x4de;" horiz-adv-x="1245" d="M131 84l31 84q6 15 22 12l115 -35q141 -41 299 -41q175 0 280 74t105 201q0 93 -53.5 158.5t-139.5 95t-198 29.5h-180q-19 0 -19 18v86q0 18 19 18h180q153 0 249.5 75.5t96.5 187.5q0 117 -92 187.5t-244 70.5q-180 0 -301 -39l-100 -31q-19 -6 -25 12l-26 84 q-6 19 12 25l98 28q154 48 344 48q213 0 342 -103.5t129 -273.5q0 -101 -59 -184t-168 -130q-11 -4 -14.5 -9t0.5 -9.5t14 -7.5q127 -41 199.5 -132t72.5 -210q0 -179 -142 -286t-378 -107q-182 0 -342 45l-115 34q-18 6 -12 25zM360 1679q0 40 24 63t67 23q40 0 64 -23 t24 -63q0 -39 -24 -61.5t-64 -22.5q-43 0 -67 22t-24 62zM666 1679q0 40 24 63t66 23q40 0 64 -23t24 -63q0 -39 -24 -61.5t-64 -22.5q-43 0 -66.5 22t-23.5 62z" />
<glyph unicode="&#x4df;" horiz-adv-x="966" d="M111 57l24 82q3 18 23 15l86 -23q114 -29 219 -29q120 0 194 47t74 125q0 75 -76 119.5t-192 44.5h-127q-19 0 -19 19v80q0 18 19 18h125q107 0 171 44t64 120q0 70 -63.5 115t-165.5 45q-114 0 -223 -25l-74 -20q-20 -3 -23 14l-22 82q-6 19 12 22l76 21q115 28 252 28 q165 0 263.5 -74.5t98.5 -197.5q0 -73 -39 -132t-120 -85q-12 -3 -12 -10t12 -10q90 -27 143 -86.5t53 -143.5q0 -128 -108.5 -205t-292.5 -77q-115 0 -250 32l-90 23q-18 3 -12 22zM223 1370q0 41 23 64.5t63 23.5q39 0 62.5 -23.5t23.5 -64.5t-23.5 -64.5t-62.5 -23.5 q-40 0 -63 23.5t-23 64.5zM535 1370q0 41 23 64.5t63 23.5q39 0 62.5 -23.5t23.5 -64.5t-23.5 -64.5t-62.5 -23.5q-40 0 -63 23.5t-23 64.5z" />
<glyph unicode="&#x4e0;" horiz-adv-x="1241" d="M119 84l31 84q6 15 22 12l115 -35q134 -39 299 -39q182 0 283.5 73.5t101.5 205.5q0 131 -106.5 205t-297.5 74h-121q-18 0 -18 18v90q0 15 10 25q39 41 111 127l205 245q34 47 86 93q17 13 12.5 21.5t-23.5 6.5q-53 -4 -143 -4h-502q-18 0 -18 19v86q0 18 18 18h854 q14 0 23 -12l10 -19q8 -14 -4 -26q-79 -76 -168 -185l-221 -270q-43 -58 -80 -92q-10 -9 -7.5 -15t13.5 -8q234 -3 369 -109.5t135 -289.5q0 -187 -139 -295t-381 -108q-176 0 -340 47l-117 32q-18 6 -12 25z" />
<glyph unicode="&#x4e1;" horiz-adv-x="978" d="M88 -369l25 82q6 16 24 13l76 -23q121 -33 221 -33q151 0 234.5 73t83.5 204q0 134 -86.5 210t-241.5 76h-107q-18 0 -18 19v90q0 12 8 23q45 53 94 124l168 250q40 63 70 95q13 15 9.5 22.5t-19.5 5.5q-45 -2 -123 -2h-381q-19 0 -19 19v84q0 18 19 18h696q14 0 23 -12 l4 -6q10 -13 0 -27q-24 -27 -48 -60t-56 -80.5t-37 -54.5l-185 -278q-36 -59 -69 -94q-10 -11 -8 -16t12 -5q203 -5 315.5 -110t112.5 -289q0 -190 -119 -296t-330 -106q-116 0 -260 37l-76 23q-18 6 -12 24z" />
<glyph unicode="&#x4e2;" horiz-adv-x="1439" d="M180 18v1373q0 18 19 18h100q18 0 18 -18v-971q0 -106 -14 -195q-3 -15 8 -18.5t17 10.5q23 51 67 121l584 856q76 119 115 201q6 14 20 14h127q19 0 19 -18v-1373q0 -18 -19 -18h-98q-19 0 -19 18v971q0 119 15 195q3 14 -8 17.5t-17 -9.5q-27 -64 -67 -123l-584 -856 q-51 -77 -115 -199q-6 -14 -20 -14h-129q-19 0 -19 18zM438 1638v70q0 18 19 18h547q18 0 18 -18v-70q0 -18 -18 -18h-547q-19 0 -19 18z" />
<glyph unicode="&#x4e3;" horiz-adv-x="1136" d="M160 18v945q0 18 18 18h96q19 0 19 -18v-586q0 -97 -12 -176q-2 -12 6 -14t12 10q6 12 55 96l377 530q45 70 78 144q6 14 20 14h132q18 0 18 -18v-945q0 -18 -18 -18h-97q-18 0 -18 18v586q0 112 12 176q2 11 -6 14.5t-12 -8.5q-21 -46 -58 -100l-376 -532 q-48 -68 -80 -140q-6 -14 -21 -14h-127q-18 0 -18 18zM317 1280v66q0 18 19 18h467q18 0 18 -18v-66q0 -18 -18 -18h-467q-19 0 -19 18z" />
<glyph unicode="&#x4e4;" horiz-adv-x="1439" d="M180 18v1373q0 18 19 18h100q18 0 18 -18v-971q0 -106 -14 -195q-3 -15 8 -18.5t17 10.5q23 51 67 121l584 856q76 119 115 201q6 14 20 14h127q19 0 19 -18v-1373q0 -18 -19 -18h-98q-19 0 -19 18v971q0 119 15 195q3 14 -8 17.5t-17 -9.5q-27 -64 -67 -123l-584 -856 q-51 -77 -115 -199q-6 -14 -20 -14h-129q-19 0 -19 18zM492 1679q0 40 24 63t66 23q40 0 64 -23t24 -63q0 -39 -24 -61.5t-64 -22.5q-43 0 -66.5 22t-23.5 62zM797 1679q0 40 24 63t66 23q40 0 64 -23t24 -63q0 -39 -24 -61.5t-64 -22.5q-43 0 -66.5 22t-23.5 62z" />
<glyph unicode="&#x4e5;" horiz-adv-x="1136" d="M160 18v945q0 18 18 18h96q19 0 19 -18v-586q0 -97 -12 -176q-2 -12 6 -14t12 10q6 12 55 96l377 530q45 70 78 144q6 14 20 14h132q18 0 18 -18v-945q0 -18 -18 -18h-97q-18 0 -18 18v586q0 112 12 176q2 11 -6 14.5t-12 -8.5q-21 -46 -58 -100l-376 -532 q-48 -68 -80 -140q-6 -14 -21 -14h-127q-18 0 -18 18zM330 1370q0 41 23 64.5t63 23.5q39 0 62.5 -23.5t23.5 -64.5t-23.5 -64.5t-62.5 -23.5q-40 0 -63 23.5t-23 64.5zM641 1370q0 41 23 64.5t63 23.5q39 0 62.5 -23.5t23.5 -64.5t-23.5 -64.5t-62.5 -23.5q-40 0 -63 23.5 t-23 64.5z" />
<glyph unicode="&#x4e6;" horiz-adv-x="1415" d="M115 705q0 336 159 531.5t435 195.5q274 0 432.5 -196t158.5 -531t-158 -530t-433 -195q-276 0 -435 195t-159 530zM254 705q0 -282 120 -440.5t335 -158.5t333.5 158.5t118.5 440.5t-118.5 440t-333.5 158t-335 -158t-120 -440zM469 1679q0 40 24 63t66 23q40 0 64 -23 t24 -63q0 -39 -24 -61.5t-64 -22.5q-43 0 -66.5 22t-23.5 62zM774 1679q0 40 24 63t66 23q40 0 64 -23t24 -63q0 -39 -24 -61.5t-64 -22.5q-43 0 -66.5 22t-23.5 62z" />
<glyph unicode="&#x4e7;" horiz-adv-x="1099" d="M102 492q0 235 120 372t327 137t326.5 -137t119.5 -372q0 -237 -119.5 -374.5t-326.5 -137.5t-327 138t-120 374zM236 492q0 -183 82.5 -286.5t230.5 -103.5t231.5 103.5t83.5 286.5q0 182 -83.5 284.5t-231.5 102.5t-230.5 -102.5t-82.5 -284.5zM309 1370q0 41 23 64.5 t63 23.5q39 0 62.5 -23.5t23.5 -64.5t-23.5 -64.5t-62.5 -23.5q-40 0 -63 23.5t-23 64.5zM621 1370q0 41 23 64.5t63 23.5q39 0 62.5 -23.5t23.5 -64.5t-23.5 -64.5t-62.5 -23.5q-40 0 -63 23.5t-23 64.5z" />
<glyph unicode="&#x4e8;" horiz-adv-x="1415" d="M115 705q0 336 159 531.5t435 195.5q274 0 432.5 -196t158.5 -531t-158 -530t-433 -195q-276 0 -435 195t-159 530zM254 662q9 -260 129 -406.5t326 -146.5t324.5 146t127.5 407h-907zM256 784h903q-17 246 -134.5 382.5t-315.5 136.5q-199 0 -317.5 -136.5 t-135.5 -382.5z" />
<glyph unicode="&#x4e9;" horiz-adv-x="1099" d="M102 492q0 235 120 372t327 137q209 0 328.5 -137t119.5 -372q0 -237 -119.5 -374.5t-328.5 -137.5q-207 0 -327 138t-120 374zM238 438q12 -159 93.5 -247.5t217.5 -88.5t218.5 88.5t94.5 247.5h-624zM238 555h624q-15 153 -97.5 238.5t-215.5 85.5t-214.5 -85.5 t-96.5 -238.5z" />
<glyph unicode="&#x4ea;" horiz-adv-x="1415" d="M115 705q0 336 159 531.5t435 195.5q274 0 432.5 -196t158.5 -531t-158 -530t-433 -195q-276 0 -435 195t-159 530zM254 662q9 -260 129 -406.5t326 -146.5t324.5 146t127.5 407h-907zM256 784h903q-17 246 -134.5 382.5t-315.5 136.5q-199 0 -317.5 -136.5 t-135.5 -382.5zM473 1679q0 40 24 63t66 23q40 0 64 -23t24 -63q0 -39 -24 -61.5t-64 -22.5q-43 0 -66.5 22t-23.5 62zM778 1679q0 40 24 63t66 23q40 0 64 -23t24 -63q0 -39 -24 -61.5t-64 -22.5q-43 0 -66.5 22t-23.5 62z" />
<glyph unicode="&#x4eb;" horiz-adv-x="1099" d="M102 492q0 235 120 372t327 137q209 0 328.5 -137t119.5 -372q0 -237 -119.5 -374.5t-328.5 -137.5q-207 0 -327 138t-120 374zM238 438q12 -159 93.5 -247.5t217.5 -88.5t218.5 88.5t94.5 247.5h-624zM238 555h624q-15 153 -97.5 238.5t-215.5 85.5t-214.5 -85.5 t-96.5 -238.5zM313 1384q0 41 23 65t63 24q39 0 62.5 -24t23.5 -65t-23.5 -64.5t-62.5 -23.5q-40 0 -63 23.5t-23 64.5zM625 1384q0 41 23 65t63 24q39 0 62.5 -24t23.5 -65t-23.5 -64.5t-62.5 -23.5q-40 0 -63 23.5t-23 64.5z" />
<glyph unicode="&#x4ec;" d="M133 86l31 84q6 16 22 10l84 -28q125 -46 252 -46q209 0 329.5 147t129.5 409h-653q-19 0 -19 18v86q0 18 19 18h651q-17 247 -136 383t-321 136q-79 0 -133 -8t-115 -31l-86 -33q-18 -6 -24 12l-29 84q-7 16 10 23l86 30q80 30 142 41t149 11q279 0 438.5 -194.5 t159.5 -532.5q0 -336 -159.5 -530.5t-438.5 -194.5q-85 0 -148.5 11.5t-146.5 41.5l-84 30q-17 7 -10 23zM305 1679q0 40 24 63t66 23q40 0 64 -23t24 -63q0 -39 -24 -61.5t-64 -22.5q-43 0 -66.5 22t-23.5 62zM610 1679q0 40 24 63t66 23q40 0 64 -23t24 -63 q0 -39 -24 -61.5t-64 -22.5q-43 0 -66.5 22t-23.5 62z" />
<glyph unicode="&#x4ed;" horiz-adv-x="966" d="M121 53l24 82q6 18 25 12l57 -16q95 -29 174 -29q149 0 232 88t94 248h-444q-19 0 -19 19v80q0 18 19 18h444q-14 156 -97 240t-235 84q-77 0 -157 -27l-58 -16q-16 -3 -22 12l-27 82q-6 19 12 22l66 19q110 30 188 30q225 0 345 -135t120 -374t-120 -375.5t-341 -136.5 q-96 0 -202 32l-66 19q-18 3 -12 22zM221 1370q0 41 23 64.5t63 23.5q39 0 62.5 -23.5t23.5 -64.5t-23.5 -64.5t-62.5 -23.5q-40 0 -63 23.5t-23 64.5zM532 1370q0 41 23 64.5t63 23.5q39 0 63 -23.5t24 -64.5t-24 -64.5t-63 -23.5q-40 0 -63 23.5t-23 64.5z" />
<glyph unicode="&#x4ee;" horiz-adv-x="1345" d="M79.5 1402.5q3.5 6.5 14.5 6.5h109q14 0 20 -12l357 -688q71 -132 94 -230q2 -8 7 -11t11 -0.5t10 11.5q49 131 97 230l338 686q6 14 20 14h107q11 0 14.5 -6.5t-0.5 -16.5l-504 -1030q-18 -37 -28.5 -58t-30 -56t-33.5 -55.5t-36.5 -49t-43 -46t-48 -37t-56 -30 t-64 -17.5t-74.5 -7h-75q-19 0 -19 18v86q0 19 19 19h75q97 0 157.5 65.5t60.5 147.5q0 51 -15 102t-65 148l-416 800q-6 10 -2.5 16.5zM387 1638v70q0 18 19 18h546q19 0 19 -18v-70q0 -18 -19 -18h-546q-19 0 -19 18z" />
<glyph unicode="&#x4ef;" horiz-adv-x="1114" d="M81.5 974.5q3.5 6.5 14.5 6.5h103q14 0 20 -14l262 -551q52 -113 68 -203q5 -13 15 -13t14 13q21 82 71 203l246 551q6 14 20 14h103q11 0 14.5 -6.5t-0.5 -16.5l-508 -1144q-54 -127 -131.5 -186.5t-189.5 -59.5h-56q-18 0 -18 18v84q0 19 18 19h54q64 0 108 33t78 106 l55 125q30 69 19 146t-62 184l-317 675q-4 10 -0.5 16.5zM305 1280v66q0 18 19 18h467q18 0 18 -18v-66q0 -18 -18 -18h-467q-19 0 -19 18z" />
<glyph unicode="&#x4f0;" horiz-adv-x="1345" d="M79.5 1402.5q3.5 6.5 14.5 6.5h109q14 0 20 -12l357 -688q71 -132 94 -230q2 -8 7 -11t11 -0.5t10 11.5q49 131 97 230l338 686q6 14 20 14h107q11 0 14.5 -6.5t-0.5 -16.5l-504 -1030q-18 -37 -28.5 -58t-30 -56t-33.5 -55.5t-36.5 -49t-43 -46t-48 -37t-56 -30 t-64 -17.5t-74.5 -7h-75q-19 0 -19 18v86q0 19 19 19h75q97 0 157.5 65.5t60.5 147.5q0 51 -15 102t-65 148l-416 800q-6 10 -2.5 16.5zM438 1679q0 40 24 63t66 23q40 0 64 -23t24 -63q0 -39 -24 -61.5t-64 -22.5q-43 0 -66.5 22t-23.5 62zM743 1679q0 40 24 63t67 23 q40 0 64 -23t24 -63q0 -39 -24 -61.5t-64 -22.5q-43 0 -67 22t-24 62z" />
<glyph unicode="&#x4f1;" horiz-adv-x="1114" d="M81.5 974.5q3.5 6.5 14.5 6.5h103q14 0 20 -14l262 -551q52 -113 68 -203q5 -13 15 -13t14 13q21 82 71 203l246 551q6 14 20 14h103q11 0 14.5 -6.5t-0.5 -16.5l-508 -1144q-54 -127 -131.5 -186.5t-189.5 -59.5h-56q-18 0 -18 18v84q0 19 18 19h54q64 0 108 33t78 106 l55 125q30 69 19 146t-62 184l-317 675q-4 10 -0.5 16.5zM317 1370q0 41 23 64.5t63 23.5q39 0 62.5 -23.5t23.5 -64.5t-23.5 -64.5t-62.5 -23.5q-40 0 -63 23.5t-23 64.5zM629 1370q0 41 23 64.5t63 23.5q39 0 62.5 -23.5t23.5 -64.5t-23.5 -64.5t-62.5 -23.5 q-40 0 -63 23.5t-23 64.5z" />
<glyph unicode="&#x4f2;" horiz-adv-x="1345" d="M79.5 1402.5q3.5 6.5 14.5 6.5h109q14 0 20 -12l357 -688q71 -132 94 -230q2 -8 7 -11t11 -0.5t10 11.5q49 131 97 230l338 686q6 14 20 14h107q11 0 14.5 -6.5t-0.5 -16.5l-504 -1030q-18 -37 -28.5 -58t-30 -56t-33.5 -55.5t-36.5 -49t-43 -46t-48 -37t-56 -30 t-64 -17.5t-74.5 -7h-75q-19 0 -19 18v86q0 19 19 19h75q97 0 157.5 65.5t60.5 147.5q0 51 -15 102t-65 148l-416 800q-6 10 -2.5 16.5zM465 1595l96 185q6 12 21 12h108q11 0 14.5 -7t-2.5 -16l-116 -184q-9 -12 -23 -12h-84q-23 0 -14 22zM752.5 1579.5q-3.5 6.5 1.5 15.5 l102 185q9 12 23 12h110q11 0 14.5 -7t-2.5 -16l-124 -184q-9 -12 -23 -12h-88q-10 0 -13.5 6.5z" />
<glyph unicode="&#x4f3;" horiz-adv-x="1114" d="M81.5 974.5q3.5 6.5 14.5 6.5h103q14 0 20 -14l262 -551q52 -113 68 -203q5 -13 15 -13t14 13q21 82 71 203l246 551q6 14 20 14h103q11 0 14.5 -6.5t-0.5 -16.5l-508 -1144q-54 -127 -131.5 -186.5t-189.5 -59.5h-56q-18 0 -18 18v84q0 19 18 19h54q64 0 108 33t78 106 l55 125q30 69 19 146t-62 184l-317 675q-4 10 -0.5 16.5zM360 1202l95 232q6 14 22 14h94q11 0 15 -6.5t0 -16.5l-115 -229q-6 -14 -20 -14h-76q-9 0 -13.5 5.5t-1.5 14.5zM631 1204l100 230q6 14 21 14h94q11 0 14.5 -6t-2.5 -17l-119 -231q-6 -12 -20 -12h-76 q-21 0 -12 22z" />
<glyph unicode="&#x4f4;" horiz-adv-x="1314" d="M133 961v430q0 18 19 18h100q18 0 18 -18v-416q0 -163 81 -252.5t227 -89.5q137 0 247 37l174 57v664q0 18 19 18h98q19 0 19 -18v-1373q0 -18 -19 -18h-98q-19 0 -19 18v578l-139 -47q-136 -43 -289 -43q-207 0 -322.5 120t-115.5 335zM395 1679q0 40 24 63t66 23 q40 0 64 -23t24 -63q0 -39 -24 -61.5t-64 -22.5q-43 0 -66.5 22t-23.5 62zM700 1679q0 40 24 63t67 23q40 0 64 -23t24 -63q0 -39 -24 -61.5t-64 -22.5q-43 0 -67 22t-24 62z" />
<glyph unicode="&#x4f5;" horiz-adv-x="1050" d="M113 659v304q0 18 18 18h96q19 0 19 -18v-289q0 -100 57.5 -155.5t161.5 -55.5q97 0 170 22l123 37v441q0 18 18 18h96q19 0 19 -18v-945q0 -18 -19 -18h-96q-18 0 -18 18v377l-94 -26q-102 -31 -211 -31q-160 0 -250 85t-90 236zM258 1370q0 41 23 64.5t63 23.5 q39 0 62.5 -23.5t23.5 -64.5t-23.5 -64.5t-62.5 -23.5q-40 0 -63 23.5t-23 64.5zM569 1370q0 41 23 64.5t63 23.5q39 0 62.5 -23.5t23.5 -64.5t-23.5 -64.5t-62.5 -23.5q-40 0 -63 23.5t-23 64.5z" />
<glyph unicode="&#x4f6;" horiz-adv-x="1163" d="M180 18v1373q0 18 19 18h845q11 0 15.5 -5.5t1.5 -14.5l-25 -86q-3 -17 -20 -17h-701v-1163h113q18 0 18 -19v-466q0 -19 -18 -19h-94q-19 0 -19 19v362h-116q-19 0 -19 18z" />
<glyph unicode="&#x4f7;" horiz-adv-x="894" d="M160 18v945q0 18 18 18h613q23 0 16 -20l-25 -84q-3 -17 -20 -17h-469v-739h88q18 0 18 -19v-395q0 -18 -18 -18h-88q-19 0 -19 18v293h-96q-18 0 -18 18z" />
<glyph unicode="&#x4f8;" horiz-adv-x="1693" d="M180 18v1373q0 18 19 18h98q18 0 18 -18v-525h265q287 0 434 -113t147 -329q0 -200 -123 -312t-344 -112h-495q-19 0 -19 18zM315 123h379q154 0 241 79.5t87 221.5q0 157 -110.5 238t-331.5 81h-265v-620zM596 1679q0 40 24 63t66 23q40 0 64 -23t24 -63 q0 -39 -24 -61.5t-64 -22.5q-43 0 -66.5 22t-23.5 62zM901 1679q0 40 24 63t66 23q40 0 64 -23t24 -63q0 -39 -24 -61.5t-64 -22.5q-43 0 -66.5 22t-23.5 62zM1378 18v1373q0 18 19 18h98q18 0 18 -18v-1373q0 -18 -18 -18h-98q-19 0 -19 18z" />
<glyph unicode="&#x4f9;" horiz-adv-x="1384" d="M160 18v945q0 18 18 18h96q19 0 19 -18v-332h164q213 0 330.5 -86t117.5 -240q0 -145 -92.5 -225t-259.5 -80h-375q-18 0 -18 18zM293 121h260q103 0 161 48.5t58 135.5q0 96 -83 150.5t-232 54.5h-164v-389zM444 1370q0 41 23 64.5t63 23.5q39 0 62.5 -23.5t23.5 -64.5 t-23.5 -64.5t-62.5 -23.5q-40 0 -63 23.5t-23 64.5zM756 1370q0 41 23 64.5t63 23.5q39 0 62.5 -23.5t23.5 -64.5t-23.5 -64.5t-62.5 -23.5q-40 0 -63 23.5t-23 64.5zM1094 18v945q0 18 18 18h94q19 0 19 -18v-945q0 -18 -19 -18h-94q-18 0 -18 18z" />
<glyph unicode="&#x2000;" horiz-adv-x="939" />
<glyph unicode="&#x2001;" horiz-adv-x="1878" />
<glyph unicode="&#x2002;" horiz-adv-x="939" />
<glyph unicode="&#x2003;" horiz-adv-x="1878" />
<glyph unicode="&#x2004;" horiz-adv-x="626" />
<glyph unicode="&#x2005;" horiz-adv-x="469" />
<glyph unicode="&#x2006;" horiz-adv-x="313" />
<glyph unicode="&#x2007;" horiz-adv-x="313" />
<glyph unicode="&#x2008;" horiz-adv-x="234" />
<glyph unicode="&#x2009;" horiz-adv-x="375" />
<glyph unicode="&#x200a;" horiz-adv-x="104" />
<glyph unicode="&#x2010;" horiz-adv-x="901" d="M166 496v84q0 18 18 18h533q18 0 18 -18v-84q0 -19 -18 -19h-533q-18 0 -18 19z" />
<glyph unicode="&#x2011;" horiz-adv-x="901" d="M166 496v84q0 18 18 18h533q18 0 18 -18v-84q0 -19 -18 -19h-533q-18 0 -18 19z" />
<glyph unicode="&#x2012;" horiz-adv-x="901" d="M166 496v84q0 18 18 18h533q18 0 18 -18v-84q0 -19 -18 -19h-533q-18 0 -18 19z" />
<glyph unicode="&#x2013;" horiz-adv-x="1376" d="M166 496v84q0 18 18 18h1008q18 0 18 -18v-84q0 -19 -18 -19h-1008q-18 0 -18 19z" />
<glyph unicode="&#x2014;" horiz-adv-x="1615" d="M166 496v84q0 18 18 18h1248q18 0 18 -18v-84q0 -19 -18 -19h-1248q-18 0 -18 19z" />
<glyph unicode="&#x2018;" horiz-adv-x="401" d="M102 1223q0 -51 26.5 -80t72.5 -29t72 26t26 70q0 63 -51 86q-18 8 -19.5 17t11.5 26l67 107h-94l-59 -90q-52 -77 -52 -133z" />
<glyph unicode="&#x2019;" horiz-adv-x="401" d="M94 1124h94l60 90q51 76 51 134q0 51 -26 79.5t-72 28.5t-72.5 -26t-26.5 -70q0 -63 52 -86q18 -8 19.5 -17t-11.5 -26z" />
<glyph unicode="&#x201a;" horiz-adv-x="401" d="M94 -147h94l60 90q51 76 51 133q0 51 -26 79.5t-72 28.5t-72.5 -26t-26.5 -70q0 -63 52 -86q18 -8 19.5 -17t-11.5 -26z" />
<glyph unicode="&#x201c;" horiz-adv-x="700" d="M102 1223q0 -51 26.5 -80t72.5 -29t72 26t26 70q0 63 -51 86q-18 8 -19.5 17t11.5 26l67 107h-94l-59 -90q-52 -77 -52 -133zM401 1223q0 -51 26.5 -80t72.5 -29t72 26t26 70q0 63 -51 86q-18 8 -19.5 17t11.5 26l67 107h-94l-59 -90q-52 -77 -52 -133z" />
<glyph unicode="&#x201d;" horiz-adv-x="702" d="M94 1124h94l60 90q51 76 51 134q0 51 -26 79.5t-72 28.5t-72.5 -26t-26.5 -70q0 -63 52 -86q18 -8 19.5 -17t-11.5 -26zM395 1124h94l60 90q51 76 51 134q0 51 -26 79.5t-72 28.5t-72.5 -26t-26.5 -70q0 -63 52 -86q18 -8 19.5 -17t-11.5 -26z" />
<glyph unicode="&#x201e;" horiz-adv-x="702" d="M94 -147h94l60 90q51 76 51 133q0 51 -26 79.5t-72 28.5t-72.5 -26t-26.5 -70q0 -63 52 -86q18 -8 19.5 -17t-11.5 -26zM395 -147h94l60 90q51 76 51 133q0 51 -26 79.5t-72 28.5t-72.5 -26t-26.5 -70q0 -63 52 -86q18 -8 19.5 -17t-11.5 -26z" />
<glyph unicode="&#x2020;" horiz-adv-x="919" d="M127 999v66q0 18 18 18h261v347q0 18 18 18h72q18 0 18 -18v-347h260q19 0 19 -18v-66q0 -18 -19 -18h-260v-705q0 -18 -18 -18h-72q-18 0 -18 18v705h-261q-18 0 -18 18z" />
<glyph unicode="&#x2021;" horiz-adv-x="919" d="M127 999v66q0 18 18 18h261v347q0 18 18 18h72q18 0 18 -18v-347h260q19 0 19 -18v-66q0 -18 -19 -18h-260v-250h258q19 0 19 -18v-68q0 -18 -19 -18h-258v-351q0 -18 -18 -18h-72q-18 0 -18 18v351h-259q-18 0 -18 18v68q0 18 18 18h259v250h-261q-18 0 -18 18z" />
<glyph unicode="&#x2022;" horiz-adv-x="718" d="M201 705q0 167 159 167q158 0 158 -167q0 -82 -40 -125t-118 -43q-159 0 -159 168z" />
<glyph unicode="&#x2026;" horiz-adv-x="1087" d="M133 82q0 48 25.5 75t72.5 27t74 -27.5t27 -74.5t-27 -74.5t-74 -27.5t-72.5 27t-25.5 75zM455 82q0 48 25.5 75t72.5 27t73.5 -27.5t26.5 -74.5t-26.5 -74.5t-73.5 -27.5t-72.5 27t-25.5 75zM776 82q0 48 25.5 75t72.5 27t74 -27.5t27 -74.5t-27 -74.5t-74 -27.5 t-72.5 27t-25.5 75z" />
<glyph unicode="&#x202f;" horiz-adv-x="375" />
<glyph unicode="&#x2039;" horiz-adv-x="751" d="M162 483v15q0 11 8 22l260 328q10 10 23 10h110q12 0 15 -6.5t-5 -15.5l-270 -344l270 -347q8 -9 5 -15.5t-15 -6.5h-108q-13 0 -23 10l-262 328q-8 11 -8 22z" />
<glyph unicode="&#x203a;" horiz-adv-x="751" d="M173 129.5q-3 6.5 5 15.5l271 347l-271 344q-8 9 -5 15.5t15 6.5h111q13 0 23 -10l260 -328q8 -11 8 -22v-15q0 -11 -8 -22l-263 -328q-10 -10 -22 -10h-109q-12 0 -15 6.5z" />
<glyph unicode="&#x205f;" horiz-adv-x="469" />
<glyph unicode="&#x20ac;" horiz-adv-x="1370" d="M94 555v66q0 18 19 18h141l-2 66q0 56 2 83h-141q-19 0 -19 19v65q0 19 19 19h153q41 255 194.5 398t389.5 143q87 0 149 -11t142 -41l86 -30q17 -7 10 -23l-29 -84q-6 -18 -24 -12l-86 33q-61 23 -115 31t-133 8q-179 0 -293 -107t-149 -305h524q10 0 14 -6t0 -15 l-22 -67q-6 -15 -23 -15h-508q-2 -27 -2 -83l2 -66h451q10 0 14 -6t0 -15l-22 -67q-6 -14 -23 -14h-410q34 -205 149.5 -318t297.5 -113q127 0 252 46l84 28q16 6 22 -10l31 -84q7 -16 -10 -23l-84 -30q-83 -30 -146.5 -41.5t-148.5 -11.5q-242 0 -395.5 147.5t-190.5 409.5 h-151q-19 0 -19 18z" />
<glyph unicode="&#x2122;" horiz-adv-x="1830" d="M49 1325v66q0 18 19 18h649q18 0 18 -18v-66q0 -18 -18 -18h-271v-664q0 -18 -18 -18h-74q-18 0 -18 18v664h-268q-19 0 -19 18zM893 643v748q0 18 18 18h119q17 0 23 -14q14 -38 37 -82l149 -299q49 -121 49 -123q2 -7 5 -9.5t6 0t6 9.5q9 31 51 123l149 299l35 82 q6 14 21 14h122q19 0 19 -18v-748q0 -18 -19 -18h-73q-19 0 -19 18v408q0 114 11 192q2 12 -5.5 14t-11.5 -10q-5 -15 -20 -45.5t-21 -46.5l-153 -301q-29 -61 -43 -96q-3 -15 -21 -15h-61q-17 0 -23 15q-6 16 -20.5 48.5t-20.5 47.5l-151 301q-8 20 -25.5 53.5t-19.5 38.5 q-6 12 -11.5 10t-3.5 -14q10 -71 10 -192v-408q0 -18 -18 -18h-72q-18 0 -18 18z" />
<glyph unicode="&#x25fc;" horiz-adv-x="983" d="M0 0v983h983v-983h-983z" />
</font>
</defs>
</svg>
